STARTFONT 2.1
COMMENT Exported by Fony v1.4.7
FONT robotoR56
SIZE 84 96 96
FONTBOUNDINGBOX 73 83 0 -20
STARTPROPERTIES 6
COPYRIGHT "Copyright 2011 Google Inc. All Rights Reserved."
RESOLUTION_X 96
RESOLUTION_Y 96
FONT_ASCENT 64
FONT_DESCENT 20
DEFAULT_CHAR 0
ENDPROPERTIES
CHARS 256
STARTCHAR 000
ENCODING 0
SWIDTH 72 0
DWIDTH 1 0
BBX 0 0 0 0
BITMAP
ENDCHAR
STARTCHAR 001
ENCODING 1
SWIDTH 72 0
DWIDTH 1 0
BBX 0 0 0 0
BITMAP
ENDCHAR
STARTCHAR 002
ENCODING 2
SWIDTH 72 0
DWIDTH 1 0
BBX 0 0 0 0
BITMAP
ENDCHAR
STARTCHAR 003
ENCODING 3
SWIDTH 72 0
DWIDTH 1 0
BBX 0 0 0 0
BITMAP
ENDCHAR
STARTCHAR 004
ENCODING 4
SWIDTH 72 0
DWIDTH 1 0
BBX 0 0 0 0
BITMAP
ENDCHAR
STARTCHAR 005
ENCODING 5
SWIDTH 72 0
DWIDTH 1 0
BBX 0 0 0 0
BITMAP
ENDCHAR
STARTCHAR 006
ENCODING 6
SWIDTH 72 0
DWIDTH 1 0
BBX 0 0 0 0
BITMAP
ENDCHAR
STARTCHAR 007
ENCODING 7
SWIDTH 72 0
DWIDTH 1 0
BBX 0 0 0 0
BITMAP
ENDCHAR
STARTCHAR 008
ENCODING 8
SWIDTH 72 0
DWIDTH 1 0
BBX 0 0 0 0
BITMAP
ENDCHAR
STARTCHAR 009
ENCODING 9
SWIDTH 72 0
DWIDTH 1 0
BBX 0 0 0 0
BITMAP
ENDCHAR
STARTCHAR 010
ENCODING 10
SWIDTH 72 0
DWIDTH 1 0
BBX 0 0 0 0
BITMAP
ENDCHAR
STARTCHAR 011
ENCODING 11
SWIDTH 72 0
DWIDTH 1 0
BBX 0 0 0 0
BITMAP
ENDCHAR
STARTCHAR 012
ENCODING 12
SWIDTH 72 0
DWIDTH 1 0
BBX 0 0 0 0
BITMAP
ENDCHAR
STARTCHAR 013
ENCODING 13
SWIDTH 1368 0
DWIDTH 19 0
BBX 0 0 0 0
BITMAP
ENDCHAR
STARTCHAR 014
ENCODING 14
SWIDTH 72 0
DWIDTH 1 0
BBX 0 0 0 0
BITMAP
ENDCHAR
STARTCHAR 015
ENCODING 15
SWIDTH 72 0
DWIDTH 1 0
BBX 0 0 0 0
BITMAP
ENDCHAR
STARTCHAR 016
ENCODING 16
SWIDTH 72 0
DWIDTH 1 0
BBX 0 0 0 0
BITMAP
ENDCHAR
STARTCHAR 017
ENCODING 17
SWIDTH 72 0
DWIDTH 1 0
BBX 0 0 0 0
BITMAP
ENDCHAR
STARTCHAR 018
ENCODING 18
SWIDTH 72 0
DWIDTH 1 0
BBX 0 0 0 0
BITMAP
ENDCHAR
STARTCHAR 019
ENCODING 19
SWIDTH 72 0
DWIDTH 1 0
BBX 0 0 0 0
BITMAP
ENDCHAR
STARTCHAR 020
ENCODING 20
SWIDTH 72 0
DWIDTH 1 0
BBX 0 0 0 0
BITMAP
ENDCHAR
STARTCHAR 021
ENCODING 21
SWIDTH 72 0
DWIDTH 1 0
BBX 0 0 0 0
BITMAP
ENDCHAR
STARTCHAR 022
ENCODING 22
SWIDTH 72 0
DWIDTH 1 0
BBX 0 0 0 0
BITMAP
ENDCHAR
STARTCHAR 023
ENCODING 23
SWIDTH 72 0
DWIDTH 1 0
BBX 0 0 0 0
BITMAP
ENDCHAR
STARTCHAR 024
ENCODING 24
SWIDTH 72 0
DWIDTH 1 0
BBX 0 0 0 0
BITMAP
ENDCHAR
STARTCHAR 025
ENCODING 25
SWIDTH 72 0
DWIDTH 1 0
BBX 0 0 0 0
BITMAP
ENDCHAR
STARTCHAR 026
ENCODING 26
SWIDTH 72 0
DWIDTH 1 0
BBX 0 0 0 0
BITMAP
ENDCHAR
STARTCHAR 027
ENCODING 27
SWIDTH 72 0
DWIDTH 1 0
BBX 0 0 0 0
BITMAP
ENDCHAR
STARTCHAR 028
ENCODING 28
SWIDTH 72 0
DWIDTH 1 0
BBX 0 0 0 0
BITMAP
ENDCHAR
STARTCHAR 029
ENCODING 29
SWIDTH 72 0
DWIDTH 1 0
BBX 0 0 0 0
BITMAP
ENDCHAR
STARTCHAR 030
ENCODING 30
SWIDTH 72 0
DWIDTH 1 0
BBX 0 0 0 0
BITMAP
ENDCHAR
STARTCHAR 031
ENCODING 31
SWIDTH 72 0
DWIDTH 1 0
BBX 0 0 0 0
BITMAP
ENDCHAR
STARTCHAR 032
ENCODING 32
SWIDTH 1368 0
DWIDTH 19 0
BBX 0 0 0 0
BITMAP
ENDCHAR
STARTCHAR 033
ENCODING 33
SWIDTH 1440 0
DWIDTH 20 0
BBX 8 55 6 0
BITMAP
FF
FF
FF
FF
FF
FF
FF
FF
FF
FF
7F
7F
7F
7F
7F
7F
7F
7F
7F
7F
7E
7E
7E
7E
7E
7E
7E
7E
7E
7E
7E
7E
7E
7E
7E
7E
7E
7E
7E
00
00
00
00
00
00
00
00
3E
7F
FF
FF
FF
FF
7F
3C
ENDCHAR
STARTCHAR 034
ENCODING 34
SWIDTH 1800 0
DWIDTH 25 0
BBX 16 18 5 40
BITMAP
FC3F
FC3F
FC3F
FC3F
FC3F
F83F
F83F
F83F
F83E
F83E
F83E
F83E
F83E
F83E
F83E
F83E
F83E
F03E
ENDCHAR
STARTCHAR 035
ENCODING 35
SWIDTH 3456 0
DWIDTH 48 0
BBX 42 55 5 0
BITMAP
0000FC00F800
0000FC00F800
0000F801F800
0000F801F800
0001F801F000
0001F801F000
0001F801F000
0001F003F000
0001F003F000
0003F003E000
0003F003E000
0003E003E000
0003E007E000
0003E007E000
0007E007C000
3FFFFFFFFFC0
3FFFFFFFFFC0
3FFFFFFFFFC0
3FFFFFFFFFC0
3FFFFFFFFFC0
000FC00F8000
000F801F8000
000F801F8000
000F801F8000
001F801F0000
001F801F0000
001F001F0000
001F003F0000
001F003F0000
003F003E0000
003F003E0000
003F003E0000
003E007E0000
003E007E0000
FFFFFFFFFE00
FFFFFFFFFE00
FFFFFFFFFE00
FFFFFFFFFE00
FFFFFFFFFE00
007C00FC0000
00FC00F80000
00FC00F80000
00F801F80000
00F801F80000
00F801F80000
01F801F00000
01F801F00000
01F001F00000
01F003F00000
01F003F00000
03F003E00000
03F003E00000
03F003E00000
03E007E00000
03E007E00000
ENDCHAR
STARTCHAR 036
ENCODING 36
SWIDTH 3168 0
DWIDTH 44 0
BBX 36 66 4 -8
BITMAP
0000FC0000
0000FC0000
0007FF0000
003FFFE000
007FFFF000
01FFFFFC00
03FFFFFE00
07FFFFFF00
07FE03FF00
0FF800FF80
0FF0007F80
1FE0003FC0
1FC0003FC0
1FC0001FC0
3FC0001FE0
3F80000FE0
3F80000FE0
3F80000FE0
3F80000FE0
3FC0000FE0
1FC0000000
1FC0000000
1FE0000000
0FF0000000
0FF8000000
07FE000000
07FF800000
03FFF00000
01FFFC0000
007FFF8000
003FFFE000
000FFFF800
0003FFFC00
00007FFE00
00000FFF00
000003FF80
000000FFC0
0000007FC0
0000001FE0
0000001FE0
0000000FE0
0000000FE0
FE00000FF0
FE000007F0
FE000007F0
FF00000FF0
7F00000FF0
7F00000FE0
7F80001FE0
7F80001FE0
3FC0003FC0
3FF000FFC0
1FFC03FF80
0FFFFFFF80
07FFFFFF00
03FFFFFE00
01FFFFF800
007FFFE000
000FFF0000
0001F80000
0001F80000
0001F80000
0001F80000
0001F80000
0001F80000
0001F80000
ENDCHAR
STARTCHAR 037
ENCODING 37
SWIDTH 4104 0
DWIDTH 57 0
BBX 50 57 4 -1
BITMAP
00FE0000000000
07FF8000000000
0FFFE000000000
1FFFF000000000
3FFFF800000000
7F83F800000000
7E01FC00080000
7C00FC001E0000
FC007C001F0000
FC007E003F0000
F8007E007E0000
F8007E007C0000
F8007E00FC0000
F8007E01F80000
F8007E01F00000
F8007E03F00000
F8007E03E00000
FC007C07E00000
7C00FC0FC00000
7E01FC0F800000
7F83F81F800000
3FFFF83F000000
1FFFF03E000000
0FFFE07E000000
07FF807C000000
00FE00FC000000
000001F8000000
000001F0000000
000003F0000000
000007E0000000
000007C0000000
00000FC01FC000
00000F80FFF000
00001F81FFFC00
00003F03FFFE00
00003E07FFFF00
00007E0FF07F00
0000FC0FC03F80
0000F80F801F80
0001F81F800F80
0001F01F800FC0
0003F01F000FC0
0007E01F000FC0
0007C01F000FC0
000FC01F000FC0
001F801F000FC0
001F001F000FC0
003F001F800FC0
003E001F800F80
007E000F801F80
001C000FC03F80
0008000FF07F00
00000007FFFF00
00000003FFFE00
00000001FFFC00
00000000FFF000
000000001FC000
ENDCHAR
STARTCHAR 038
ENCODING 38
SWIDTH 3456 0
DWIDTH 48 0
BBX 44 57 4 -1
BITMAP
0003FC000000
001FFF800000
007FFFE00000
00FFFFF00000
01FFFFF80000
03FFFFFC0000
03FF07FC0000
07FC01FE0000
07F800FE0000
07F000FE0000
07F0007E0000
0FF0007E0000
0FE0007E0000
0FE0007E0000
0FF0007E0000
07F000FE0000
07F001FC0000
07F801FC0000
07F807F80000
03FC0FF80000
03FC1FF00000
01FE7FE00000
00FFFFC00000
00FFFF000000
007FFE000000
003FFC000000
003FF0000000
007FF0000000
01FFF8000000
03FFFC000000
07FFFE000000
0FFDFF001F80
1FF0FF001F80
3FE07F803F80
3FC03FC03F80
7F803FE03F80
7F001FF03F80
FF000FF83F00
FE0007F87F00
FE0003FC7F00
FE0001FE7F00
FE0000FFFE00
FE0000FFFE00
FE00007FFC00
FE00003FFC00
FF00001FF800
7F00000FF800
7F80001FF800
7FC0003FFC00
3FE000FFFE00
1FFC03FFFF00
1FFFFFFFFF00
07FFFFFE7F80
03FFFFFC3FC0
01FFFFF03FE0
007FFFC01FF0
000FFC000000
ENDCHAR
STARTCHAR 039
ENCODING 39
SWIDTH 1008 0
DWIDTH 14 0
BBX 6 17 4 41
BITMAP
FC
FC
FC
FC
FC
FC
F8
F8
F8
F8
F8
F8
F8
F8
F8
F8
F8
ENDCHAR
STARTCHAR 040
ENCODING 40
SWIDTH 1944 0
DWIDTH 27 0
BBX 20 76 5 -18
BITMAP
000FE0
001FC0
003F80
003F00
007F00
00FE00
00FC00
01FC00
01F800
03F800
07F000
07F000
07E000
0FE000
0FC000
1FC000
1FC000
1F8000
3F8000
3F8000
3F8000
3F0000
7F0000
7F0000
7F0000
7F0000
7F0000
7E0000
FE0000
FE0000
FE0000
FE0000
FE0000
FE0000
FE0000
FE0000
FE0000
FE0000
FE0000
FE0000
FE0000
FE0000
FE0000
7E0000
7F0000
7F0000
7F0000
7F0000
7F0000
3F0000
3F8000
3F8000
3F8000
1F8000
1FC000
1FC000
0FC000
0FE000
07E000
07F000
07F000
03F800
01F800
01FC00
00FC00
00FE00
007E00
003F00
003F80
001FC0
000FE0
0007F0
0003F0
0001F0
0000E0
000020
ENDCHAR
STARTCHAR 041
ENCODING 41
SWIDTH 1944 0
DWIDTH 27 0
BBX 21 76 1 -18
BITMAP
3F0000
1F8000
0FC000
0FE000
07F000
03F000
03F800
01FC00
01FC00
00FE00
00FE00
007F00
007F00
003F00
003F80
003F80
001FC0
001FC0
001FC0
000FE0
000FE0
000FE0
000FE0
000FE0
0007F0
0007F0
0007F0
0007F0
0007F0
0007F0
0007F0
0007F0
0007F8
0007F8
0007F8
0003F8
0007F8
0007F8
0007F8
0007F0
0007F0
0007F0
0007F0
0007F0
0007F0
0007F0
0007F0
0007E0
000FE0
000FE0
000FE0
000FE0
001FC0
001FC0
001FC0
001F80
003F80
003F00
003F00
007F00
007E00
00FE00
00FC00
01F800
01F800
03F000
07F000
07E000
0FC000
1F8000
3F0000
7F0000
FE0000
7C0000
700000
200000
ENDCHAR
STARTCHAR 042
ENCODING 42
SWIDTH 2448 0
DWIDTH 34 0
BBX 31 32 1 23
BITMAP
0007E000
0007E000
0007E000
0007E000
0007E000
0007E000
0007E000
0007E000
0007E000
2007E004
7C07E03C
7F07C1FC
7FE7C7FE
FFFFFFFE
FFFFFFFE
3FFFFFFC
07FFFFC0
00FFFE00
000FF000
001FF800
003FF800
007EFC00
007EFE00
00FC7E00
01FC7F00
03F83F80
03F01FC0
07F01FC0
0FE00FE0
07C007C0
03C00780
00800300
ENDCHAR
STARTCHAR 043
ENCODING 43
SWIDTH 3168 0
DWIDTH 44 0
BBX 38 40 3 6
BITMAP
0001FE0000
0001FE0000
0001FE0000
0001FE0000
0001FE0000
0001FE0000
0001FE0000
0001FE0000
0001FE0000
0001FE0000
0001FE0000
0001FE0000
0001FE0000
0001FE0000
0001FE0000
0001FE0000
FFFFFFFFFC
FFFFFFFFFC
FFFFFFFFFC
FFFFFFFFFC
FFFFFFFFFC
FFFFFFFFFC
0001FE0000
0001FE0000
0001FE0000
0001FE0000
0001FE0000
0001FE0000
0001FE0000
0001FE0000
0001FE0000
0001FE0000
0001FE0000
0001FE0000
0001FE0000
0001FE0000
0001FE0000
0001FE0000
0001FE0000
0001FE0000
ENDCHAR
STARTCHAR 044
ENCODING 44
SWIDTH 1080 0
DWIDTH 15 0
BBX 11 19 1 -11
BITMAP
0FE0
0FE0
0FE0
0FE0
0FE0
0FE0
0FE0
0FE0
0FC0
1FC0
1FC0
1F80
3F80
3F80
7F00
7E00
FE00
3C00
1800
ENDCHAR
STARTCHAR 045
ENCODING 45
SWIDTH 1584 0
DWIDTH 22 0
BBX 19 6 1 20
BITMAP
FFFFE0
FFFFE0
FFFFE0
FFFFE0
FFFFE0
FFFFE0
ENDCHAR
STARTCHAR 046
ENCODING 46
SWIDTH 1512 0
DWIDTH 21 0
BBX 9 8 5 0
BITMAP
3E00
7F00
FF80
FF80
FF80
FF80
7F00
3E00
ENDCHAR
STARTCHAR 047
ENCODING 47
SWIDTH 2304 0
DWIDTH 32 0
BBX 29 60 1 -5
BITMAP
000001F8
000003F0
000003F0
000007F0
000007E0
000007E0
00000FC0
00000FC0
00000FC0
00001F80
00001F80
00003F00
00003F00
00003F00
00007E00
00007E00
0000FE00
0000FC00
0000FC00
0001F800
0001F800
0001F800
0003F000
0003F000
0007E000
0007E000
0007E000
000FC000
000FC000
001FC000
001F8000
001F8000
003F0000
003F0000
003F0000
007E0000
007E0000
00FC0000
00FC0000
00FC0000
01F80000
01F80000
03F00000
03F00000
03F00000
07E00000
07E00000
0FE00000
0FC00000
0FC00000
1F800000
1F800000
1F800000
3F000000
3F000000
7E000000
7E000000
7E000000
FC000000
FC000000
ENDCHAR
STARTCHAR 048
ENCODING 48
SWIDTH 3168 0
DWIDTH 44 0
BBX 34 57 5 -1
BITMAP
000FFC0000
007FFF8000
01FFFFE000
03FFFFF000
07FFFFF800
0FFFFFFC00
1FFC0FFE00
1FE003FE00
3FC000FF00
3F8000FF00
3F80007F00
7F00003F80
7F00003F80
7F00003F80
FE00001FC0
FE00001FC0
FE00001FC0
FE00001FC0
FE00001FC0
FE00001FC0
FE00001FC0
FE00001FC0
FE00001FC0
FE00001FC0
FE00001FC0
FE00001FC0
FE00001FC0
FE00001FC0
FE00001FC0
FE00001FC0
FE00001FC0
FE00001FC0
FE00001FC0
FE00001FC0
FE00001FC0
FE00001FC0
FE00001FC0
FE00001FC0
FE00001FC0
FE00001FC0
FE00001FC0
FE00001FC0
FE00001FC0
7F00003F80
7F00003F80
7F00003F80
3F80007F00
3FC000FF00
3FC001FF00
1FF003FE00
1FFC0FFC00
0FFFFFFC00
07FFFFF800
03FFFFF000
01FFFFE000
007FFF8000
000FFC0000
ENDCHAR
STARTCHAR 049
ENCODING 49
SWIDTH 3168 0
DWIDTH 44 0
BBX 22 56 6 0
BITMAP
00001C
00007C
0003FC
000FFC
007FFC
01FFFC
0FFFFC
3FFFFC
FFFFFC
FFF9FC
FFC1FC
FE01FC
F801FC
C001FC
0001FC
0001FC
0001FC
0001FC
0001FC
0001FC
0001FC
0001FC
0001FC
0001FC
0001FC
0001FC
0001FC
0001FC
0001FC
0001FC
0001FC
0001FC
0001FC
0001FC
0001FC
0001FC
0001FC
0001FC
0001FC
0001FC
0001FC
0001FC
0001FC
0001FC
0001FC
0001FC
0001FC
0001FC
0001FC
0001FC
0001FC
0001FC
0001FC
0001FC
0001FC
0001FC
ENDCHAR
STARTCHAR 050
ENCODING 50
SWIDTH 3168 0
DWIDTH 44 0
BBX 37 56 4 0
BITMAP
0007FE0000
007FFFC000
01FFFFF000
03FFFFF800
07FFFFFC00
0FFFFFFE00
1FFC07FF00
3FE001FF80
3FC000FF80
7F80007FC0
7F00003FC0
FF00003FC0
FE00001FC0
FE00001FC0
FE00001FC0
FE00001FC0
FE00001FC0
0000001FC0
0000001FC0
0000001FC0
0000003F80
0000003F80
0000007F00
0000007F00
000000FE00
000001FE00
000003FC00
000003F800
000007F800
00000FF000
00001FE000
00003FC000
00007F8000
0000FF0000
0001FF0000
0003FE0000
0007FC0000
0007F80000
000FF00000
001FE00000
003FC00000
007F800000
00FF000000
01FE000000
03FC000000
07F8000000
0FF0000000
1FE0000000
1FE0000000
3FC0000000
7FFFFFFFF8
7FFFFFFFF8
7FFFFFFFF8
7FFFFFFFF8
7FFFFFFFF8
7FFFFFFFF8
ENDCHAR
STARTCHAR 051
ENCODING 51
SWIDTH 3168 0
DWIDTH 44 0
BBX 35 57 4 -1
BITMAP
000FFC0000
007FFF8000
01FFFFE000
03FFFFF800
07FFFFFC00
0FFFFFFE00
1FFC07FE00
3FE001FF00
3FC000FF00
7F80007F80
7F00003F80
FF00003F80
FE00003FC0
FE00001FC0
FE00001FC0
0000001FC0
0000001FC0
0000001FC0
0000003FC0
0000003F80
0000003F80
0000007F00
000000FF00
000003FE00
00000FFC00
001FFFF800
001FFFF000
001FFFC000
001FFFE000
001FFFF800
001FFFFC00
00000FFE00
000001FF00
0000007F80
0000003F80
0000003FC0
0000001FC0
0000001FC0
0000001FE0
0000000FE0
0000000FE0
0000000FE0
FE00000FE0
FE00001FE0
FE00001FC0
FE00001FC0
FF00003FC0
7F80003FC0
7FC0007F80
3FE000FF80
3FF807FF00
1FFFFFFE00
0FFFFFFC00
07FFFFF800
01FFFFE000
007FFF8000
000FFC0000
ENDCHAR
STARTCHAR 052
ENCODING 52
SWIDTH 3168 0
DWIDTH 44 0
BBX 40 55 2 0
BITMAP
0000007F00
000000FF00
000001FF00
000001FF00
000003FF00
000007FF00
000007FF00
00000FFF00
00001FFF00
00001FFF00
00003FFF00
00007F7F00
00007F7F00
0000FE7F00
0000FC7F00
0001FC7F00
0003F87F00
0003F07F00
0007F07F00
000FE07F00
000FC07F00
001FC07F00
003F807F00
003F807F00
007F007F00
00FE007F00
00FE007F00
01FC007F00
01F8007F00
03F8007F00
07F0007F00
07F0007F00
0FE0007F00
1FC0007F00
1FC0007F00
3F80007F00
7F00007F00
7FFFFFFFFF
FFFFFFFFFF
FFFFFFFFFF
FFFFFFFFFF
FFFFFFFFFF
FFFFFFFFFF
0000007F00
0000007F00
0000007F00
0000007F00
0000007F00
0000007F00
0000007F00
0000007F00
0000007F00
0000007F00
0000007F00
0000007F00
ENDCHAR
STARTCHAR 053
ENCODING 53
SWIDTH 3168 0
DWIDTH 44 0
BBX 35 56 6 -1
BITMAP
0FFFFFFF80
0FFFFFFF80
0FFFFFFF80
0FFFFFFF80
0FFFFFFF80
0FFFFFFF80
0FC0000000
0FC0000000
0FC0000000
0FC0000000
0FC0000000
1FC0000000
1FC0000000
1FC0000000
1FC0000000
1FC0000000
1F80000000
1F80000000
1F80000000
1F83FE0000
1F9FFFC000
3FFFFFE000
3FFFFFF800
3FFFFFFC00
3FFFFFFE00
3FF80FFE00
3FC003FF00
3F8000FF80
0700007F80
0000007F80
0000003FC0
0000001FC0
0000001FC0
0000001FC0
0000001FE0
0000000FE0
0000000FE0
0000000FE0
0000000FE0
0000000FE0
0000001FE0
FE00001FC0
FE00001FC0
FE00001FC0
7F00003FC0
7F00003F80
7F80007F80
3FC000FF80
3FE001FF00
1FFC07FE00
0FFFFFFE00
07FFFFFC00
03FFFFF800
01FFFFE000
007FFF8000
000FFC0000
ENDCHAR
STARTCHAR 054
ENCODING 54
SWIDTH 3168 0
DWIDTH 44 0
BBX 35 56 5 -1
BITMAP
000007E000
0000FFE000
0003FFE000
000FFFE000
001FFFE000
007FFFE000
00FFF80000
01FFC00000
03FF000000
03FC000000
07F8000000
0FF0000000
0FE0000000
1FE0000000
1FC0000000
3F80000000
3F80000000
3F80000000
3F00000000
7F01FE0000
7F0FFFC000
7F3FFFF000
7E7FFFF800
7EFFFFFC00
FFFFFFFE00
FFFE07FF00
FFF001FF00
FFE000FF80
FFC0007F80
FF80003FC0
FF00001FC0
FF00001FC0
FE00001FE0
FE00000FE0
FE00000FE0
FE00000FE0
FE00000FE0
FE00000FE0
FE00000FE0
FE00000FE0
7F00000FE0
7F00000FE0
7F00001FE0
7F80001FC0
3F80001FC0
3FC0003FC0
1FE0007F80
1FF0007F80
0FF801FF00
07FE07FF00
07FFFFFE00
03FFFFFC00
00FFFFF800
007FFFE000
001FFF8000
0007FC0000
ENDCHAR
STARTCHAR 055
ENCODING 55
SWIDTH 3168 0
DWIDTH 44 0
BBX 37 55 3 0
BITMAP
FFFFFFFFF8
FFFFFFFFF8
FFFFFFFFF8
FFFFFFFFF8
FFFFFFFFF8
FFFFFFFFF8
00000003F0
00000007F0
00000007E0
0000000FE0
0000000FE0
0000001FC0
0000001FC0
0000003F80
0000003F80
0000007F00
0000007F00
0000007E00
000000FE00
000000FC00
000001FC00
000001FC00
000003F800
000003F800
000007F000
000007F000
00000FE000
00000FE000
00001FC000
00001FC000
00003FC000
00003F8000
00003F8000
00007F0000
00007F0000
0000FE0000
0000FE0000
0001FC0000
0001FC0000
0003F80000
0003F80000
0007F80000
0007F00000
000FF00000
000FE00000
001FE00000
001FC00000
001FC00000
003F800000
003F800000
007F000000
007F000000
00FF000000
00FE000000
01FE000000
ENDCHAR
STARTCHAR 056
ENCODING 56
SWIDTH 3168 0
DWIDTH 44 0
BBX 35 57 4 -1
BITMAP
0007FE0000
003FFFC000
00FFFFF000
01FFFFF800
03FFFFFC00
07FFFFFE00
0FFE07FF00
1FF001FF00
1FE000FF80
3FC0007F80
3FC0003FC0
3F80003FC0
3F80001FC0
3F80001FC0
3F80001FC0
3F80001FC0
3F80001FC0
3F80001FC0
3F80001FC0
3F80003FC0
3FC0003F80
1FC0007F80
1FE0007F00
0FF001FF00
07FE07FE00
03FFFFFC00
01FFFFF800
007FFFE000
00FFFFE000
01FFFFF800
07FFFFFC00
0FFC07FE00
1FF000FF00
1FE0007F80
3FC0003FC0
3F80001FC0
7F00001FE0
7F00000FE0
7F00000FE0
FE00000FE0
FE00000FE0
FE00000FE0
FE00000FE0
FF00000FE0
7F00000FE0
7F00000FE0
7F80001FE0
7F80003FC0
3FC0007FC0
3FF000FF80
1FFC03FF80
0FFFFFFF00
07FFFFFE00
03FFFFFC00
01FFFFF000
007FFFC000
0007FE0000
ENDCHAR
STARTCHAR 057
ENCODING 57
SWIDTH 3168 0
DWIDTH 44 0
BBX 35 56 4 0
BITMAP
0007F80000
003FFF0000
00FFFFC000
03FFFFE000
07FFFFF800
0FFFFFF800
1FFC0FFC00
1FF003FE00
3FC001FF00
3FC000FF00
7F80007F80
7F00007F80
7F00003F80
FE00003FC0
FE00001FC0
FE00001FC0
FE00001FC0
FE00001FC0
FE00000FC0
FE00000FE0
FE00000FE0
FE00000FE0
FE00000FE0
FE00000FE0
FF00001FE0
7F00001FE0
7F80003FE0
7F80007FE0
3FC000FFE0
3FF003FFE0
1FFC0FFFC0
0FFFFFEFC0
07FFFFCFC0
03FFFF9FC0
01FFFF1FC0
007FFC1FC0
001FF01FC0
0000001F80
0000003F80
0000003F80
0000003F80
0000007F00
0000007F00
000000FE00
000001FE00
000003FC00
000007FC00
00000FF800
00003FF000
0003FFE000
00FFFFC000
00FFFF8000
00FFFE0000
00FFFC0000
00FFE00000
00FE000000
ENDCHAR
STARTCHAR 058
ENCODING 58
SWIDTH 1368 0
DWIDTH 19 0
BBX 9 42 5 0
BITMAP
3E00
7F00
FF80
FF80
FF80
FF80
7F00
3E00
0000
0000
0000
0000
0000
0000
0000
0000
0000
0000
0000
0000
0000
0000
0000
0000
0000
0000
0000
0000
0000
0000
0000
0000
0000
0000
3E00
7F00
FF80
FF80
FF80
FF80
7F00
3E00
ENDCHAR
STARTCHAR 059
ENCODING 59
SWIDTH 1152 0
DWIDTH 16 0
BBX 11 53 2 -11
BITMAP
0F80
1FC0
3FE0
3FE0
3FE0
3FE0
1FC0
0F80
0000
0000
0000
0000
0000
0000
0000
0000
0000
0000
0000
0000
0000
0000
0000
0000
0000
0000
0000
0000
0000
0000
0000
0000
0000
0000
1FC0
1FC0
1FC0
1FC0
1FC0
1FC0
1FC0
1FC0
1FC0
1FC0
1F80
3F80
3F80
7F00
7E00
FE00
FC00
7800
1000
ENDCHAR
STARTCHAR 060
ENCODING 60
SWIDTH 2880 0
DWIDTH 40 0
BBX 31 34 3 8
BITMAP
00000002
0000000E
0000007E
000001FE
000007FE
00001FFE
00007FFE
0003FFFE
000FFFF0
003FFFC0
00FFFE00
03FFF800
0FFFC000
7FFF0000
FFF80000
FFE00000
FF800000
FF000000
FFE00000
FFF80000
7FFF0000
0FFFC000
03FFF800
00FFFE00
003FFFC0
000FFFF0
0003FFFE
00007FFE
00001FFE
000007FE
000001FE
0000007E
0000000E
00000002
ENDCHAR
STARTCHAR 061
ENCODING 61
SWIDTH 3096 0
DWIDTH 43 0
BBX 32 22 6 15
BITMAP
FFFFFFFF
FFFFFFFF
FFFFFFFF
FFFFFFFF
FFFFFFFF
FFFFFFFF
00000000
00000000
00000000
00000000
00000000
00000000
00000000
00000000
00000000
00000000
FFFFFFFF
FFFFFFFF
FFFFFFFF
FFFFFFFF
FFFFFFFF
FFFFFFFF
ENDCHAR
STARTCHAR 062
ENCODING 62
SWIDTH 2952 0
DWIDTH 41 0
BBX 33 34 5 8
BITMAP
8000000000
F000000000
FC00000000
FF00000000
FFC0000000
FFF8000000
FFFE000000
7FFF800000
0FFFF00000
03FFFC0000
007FFF0000
001FFFC000
0003FFF800
0000FFFE00
00001FFF80
000003FF80
000000FF80
000000FF80
000007FF80
00001FFF80
0000FFFE00
0003FFF800
001FFFC000
00FFFF0000
03FFFC0000
1FFFF00000
7FFF800000
FFFE000000
FFF8000000
FFC0000000
FF00000000
FC00000000
F000000000
8000000000
ENDCHAR
STARTCHAR 063
ENCODING 63
SWIDTH 2664 0
DWIDTH 37 0
BBX 31 56 3 0
BITMAP
001FF000
00FFFE00
03FFFF80
07FFFFC0
0FFFFFE0
1FFFFFF0
3FF01FF8
7FC007F8
7F8003FC
FF0001FC
FF0001FC
FE0001FE
FE0000FE
FE0000FE
000000FE
000000FE
000001FE
000001FC
000001FC
000003FC
000003F8
000007F8
00000FF0
00001FF0
00003FE0
00007FC0
0000FF80
0001FF00
0003FE00
0003FC00
0007F800
000FF000
000FE000
001FE000
001FE000
001FC000
001FC000
001FC000
001FC000
001FC000
00000000
00000000
00000000
00000000
00000000
00000000
00000000
00000000
000F8000
001FC000
001FC000
003FE000
003FE000
001FC000
001FC000
000F8000
ENDCHAR
STARTCHAR 064
ENCODING 64
SWIDTH 5040 0
DWIDTH 70 0
BBX 62 72 4 -17
BITMAP
0000001FFE000000
000001FFFFE00000
000007FFFFFC0000
00003FFFFFFF0000
00007FFFFFFFC000
0001FFE001FFE000
0003FF00001FF000
0007F8000007F800
000FF0000001FC00
001FC0000000FE00
003F800000007F00
007F000000003F80
00FE000000001F80
00FC000000000FC0
01F80000000007C0
03F00000000007E0
03F00000000003E0
07E00003FC0003F0
07C0000FFF8001F0
0FC0003FFFC001F0
0FC0007FFFF000F8
1F8000FFFFF800F8
1F8001FE07F000F8
1F0003FC01F000F8
3F0003F001F0007C
3F0007F003F0007C
3E0007E003F0007C
3E000FC003F0007C
7E000FC003F0007C
7E001F8003F0007C
7E001F8003F0007C
7C003F8003F0007C
7C003F0003F0007C
7C003F0003E0007C
7C003F0003E0007C
7C003F0003E0007C
FC007E0007E0007C
FC007E0007E0007C
FC007E0007E0007C
FC007E0007E0007C
FC007E0007E0007C
FC007E0007E00078
7C007E0007E000F8
7C007E0007E000F8
7C007E000FC000F8
7C007E000FC001F0
7E007F001FE001F0
7E007F001FE003F0
7E003F003FE003E0
3E003F807FE007C0
3F001FE1FBF00FC0
3F001FFFF3F83F80
3F000FFFE1FFFF00
1F8007FFC0FFFE00
1F8003FF807FF800
1FC000FC001FC000
0FC0000000000000
0FE0000000000000
07F0000000000000
03F0000000000000
03F8000000000000
01FC000000000000
00FE000000000000
007F800000000000
003FE00000200000
001FF80001E00000
000FFF800FF00000
0007FFFFFFF00000
0001FFFFFFF00000
00007FFFFFC00000
00000FFFFF000000
000000FFF0000000
ENDCHAR
STARTCHAR 065
ENCODING 65
SWIDTH 3672 0
DWIDTH 51 0
BBX 49 55 1 0
BITMAP
000007F0000000
000007F0000000
00000FF8000000
00000FF8000000
00000FF8000000
00001FFC000000
00001FFC000000
00003FFE000000
00003FFE000000
00003F7E000000
00007F7F000000
00007F7F000000
0000FE3F800000
0000FE3F800000
0000FE1F800000
0001FC1FC00000
0001FC1FC00000
0001F80FC00000
0003F80FE00000
0003F80FE00000
0007F007F00000
0007F007F00000
0007F007F00000
000FE003F80000
000FE003F80000
001FE003FC0000
001FC001FC0000
001FC001FC0000
003F8000FE0000
003F8000FE0000
003F8000FE0000
007F00007F0000
007F00007F0000
00FF00007F8000
00FE00003F8000
00FFFFFFFF8000
01FFFFFFFFC000
01FFFFFFFFC000
03FFFFFFFFE000
03FFFFFFFFE000
03FFFFFFFFE000
07F800000FF000
07F0000007F000
07F0000007F000
0FF0000007F800
0FE0000003F800
1FE0000003FC00
1FC0000001FC00
1FC0000001FC00
3FC0000001FE00
3F80000000FE00
7F80000000FF00
7F80000000FF00
7F000000007F00
FF000000007F80
ENDCHAR
STARTCHAR 066
ENCODING 66
SWIDTH 3528 0
DWIDTH 49 0
BBX 38 55 6 0
BITMAP
FFFFFF8000
FFFFFFF000
FFFFFFFC00
FFFFFFFF00
FFFFFFFF80
FFFFFFFFC0
FF0001FFE0
FF00003FE0
FF00001FF0
FF00000FF0
FF000007F0
FF000007F0
FF000007F8
FF000007F8
FF000007F8
FF000007F8
FF000007F8
FF000007F0
FF00000FF0
FF00000FF0
FF00001FE0
FF00007FC0
FF0001FF80
FFFFFFFF00
FFFFFFFE00
FFFFFFF800
FFFFFFFE00
FFFFFFFF00
FFFFFFFFC0
FF0000FFE0
FF00001FF0
FF00000FF0
FF000007F8
FF000003F8
FF000003FC
FF000003FC
FF000001FC
FF000001FC
FF000001FC
FF000001FC
FF000001FC
FF000001FC
FF000003FC
FF000003FC
FF000007F8
FF000007F8
FF00000FF8
FF00003FF0
FF0000FFE0
FFFFFFFFE0
FFFFFFFFC0
FFFFFFFF00
FFFFFFFE00
FFFFFFF800
FFFFFF8000
ENDCHAR
STARTCHAR 067
ENCODING 67
SWIDTH 3672 0
DWIDTH 51 0
BBX 42 57 5 -1
BITMAP
00007FE00000
0007FFFE0000
001FFFFF8000
003FFFFFC000
00FFFFFFF000
01FFFFFFF800
03FFC03FF800
07FE0007FC00
0FFC0003FE00
0FF00001FF00
1FE00000FF00
1FE000007F80
3FC000007F80
3F8000003F80
7F8000003FC0
7F0000003FC0
7F0000003FC0
FF0000001FC0
FF0000001FC0
FE0000000000
FE0000000000
FE0000000000
FE0000000000
FE0000000000
FE0000000000
FE0000000000
FE0000000000
FE0000000000
FE0000000000
FE0000000000
FE0000000000
FE0000000000
FE0000000000
FE0000000000
FE0000000000
FE0000000000
FE0000000000
FE0000000000
FF0000000000
FF0000001FC0
7F0000001FC0
7F0000003FC0
7F8000003FC0
3F8000003F80
3FC000007F80
3FE000007F80
1FE00000FF00
0FF00001FF00
0FF80003FE00
07FE0007FC00
03FF803FF800
01FFFFFFF000
00FFFFFFE000
007FFFFFC000
001FFFFF0000
0007FFFC0000
0000FFE00000
ENDCHAR
STARTCHAR 068
ENCODING 68
SWIDTH 3672 0
DWIDTH 51 0
BBX 41 55 6 0
BITMAP
FFFFFC000000
FFFFFF800000
FFFFFFF00000
FFFFFFF80000
FFFFFFFE0000
FFFFFFFF0000
FF0007FF8000
FF0000FFC000
FF00003FE000
FF00001FF000
FF00000FF000
FF000007F800
FF000003FC00
FF000003FC00
FF000001FE00
FF000001FE00
FF000000FE00
FF000000FE00
FF000000FF00
FF0000007F00
FF0000007F00
FF0000007F00
FF0000007F00
FF0000007F00
FF0000007F80
FF0000007F80
FF0000007F80
FF0000007F80
FF0000007F80
FF0000007F80
FF0000007F80
FF0000007F00
FF0000007F00
FF0000007F00
FF0000007F00
FF0000007F00
FF000000FF00
FF000000FF00
FF000000FE00
FF000001FE00
FF000001FE00
FF000003FC00
FF000003FC00
FF000007F800
FF00000FF800
FF00001FF000
FF00007FE000
FF0001FFC000
FF000FFF8000
FFFFFFFF0000
FFFFFFFE0000
FFFFFFF80000
FFFFFFF00000
FFFFFF800000
FFFFF8000000
ENDCHAR
STARTCHAR 069
ENCODING 69
SWIDTH 3168 0
DWIDTH 44 0
BBX 36 55 6 0
BITMAP
FFFFFFFFE0
FFFFFFFFE0
FFFFFFFFE0
FFFFFFFFE0
FFFFFFFFE0
FFFFFFFFE0
FF00000000
FF00000000
FF00000000
FF00000000
FF00000000
FF00000000
FF00000000
FF00000000
FF00000000
FF00000000
FF00000000
FF00000000
FF00000000
FF00000000
FF00000000
FF00000000
FF00000000
FF00000000
FFFFFFFF00
FFFFFFFF00
FFFFFFFF00
FFFFFFFF00
FFFFFFFF00
FFFFFFFF00
FF00000000
FF00000000
FF00000000
FF00000000
FF00000000
FF00000000
FF00000000
FF00000000
FF00000000
FF00000000
FF00000000
FF00000000
FF00000000
FF00000000
FF00000000
FF00000000
FF00000000
FF00000000
FF00000000
FFFFFFFFF0
FFFFFFFFF0
FFFFFFFFF0
FFFFFFFFF0
FFFFFFFFF0
FFFFFFFFF0
ENDCHAR
STARTCHAR 070
ENCODING 70
SWIDTH 3096 0
DWIDTH 43 0
BBX 35 55 6 0
BITMAP
FFFFFFFFE0
FFFFFFFFE0
FFFFFFFFE0
FFFFFFFFE0
FFFFFFFFE0
FFFFFFFFE0
FF00000000
FF00000000
FF00000000
FF00000000
FF00000000
FF00000000
FF00000000
FF00000000
FF00000000
FF00000000
FF00000000
FF00000000
FF00000000
FF00000000
FF00000000
FF00000000
FF00000000
FF00000000
FF00000000
FFFFFFFE00
FFFFFFFE00
FFFFFFFE00
FFFFFFFE00
FFFFFFFE00
FFFFFFFE00
FF00000000
FF00000000
FF00000000
FF00000000
FF00000000
FF00000000
FF00000000
FF00000000
FF00000000
FF00000000
FF00000000
FF00000000
FF00000000
FF00000000
FF00000000
FF00000000
FF00000000
FF00000000
FF00000000
FF00000000
FF00000000
FF00000000
FF00000000
FF00000000
ENDCHAR
STARTCHAR 071
ENCODING 71
SWIDTH 3816 0
DWIDTH 53 0
BBX 42 57 5 -1
BITMAP
00007FE00000
0007FFFE0000
001FFFFF8000
007FFFFFE000
00FFFFFFF000
01FFFFFFF800
03FFC03FFC00
07FE0007FE00
0FFC0003FE00
0FF00000FF00
1FE00000FF80
1FE000007F80
3FC000003F80
3F8000003FC0
7F8000003FC0
7F8000001FC0
7F0000001FC0
FF0000000000
FF0000000000
FF0000000000
FE0000000000
FE0000000000
FE0000000000
FE0000000000
FE0000000000
FE0000000000
FE0000000000
FE0000000000
FE0000000000
FE0003FFFFC0
FE0003FFFFC0
FE0003FFFFC0
FE0003FFFFC0
FE0003FFFFC0
FE0003FFFFC0
FE0000001FC0
FE0000001FC0
FF0000001FC0
FF0000001FC0
7F0000001FC0
7F8000001FC0
7F8000001FC0
3F8000001FC0
3FC000001FC0
3FE000001FC0
1FE000001FC0
1FF000001FC0
0FF800001FC0
07FC00007FC0
03FF0000FFC0
01FFE00FFF80
00FFFFFFFF00
007FFFFFFE00
003FFFFFFC00
000FFFFFF000
0003FFFF8000
00007FF80000
ENDCHAR
STARTCHAR 072
ENCODING 72
SWIDTH 4032 0
DWIDTH 56 0
BBX 43 55 6 0
BITMAP
FF0000000FE0
FF0000000FE0
FF0000000FE0
FF0000000FE0
FF0000000FE0
FF0000000FE0
FF0000000FE0
FF0000000FE0
FF0000000FE0
FF0000000FE0
FF0000000FE0
FF0000000FE0
FF0000000FE0
FF0000000FE0
FF0000000FE0
FF0000000FE0
FF0000000FE0
FF0000000FE0
FF0000000FE0
FF0000000FE0
FF0000000FE0
FF0000000FE0
FF0000000FE0
FFFFFFFFFFE0
FFFFFFFFFFE0
FFFFFFFFFFE0
FFFFFFFFFFE0
FFFFFFFFFFE0
FFFFFFFFFFE0
FF0000000FE0
FF0000000FE0
FF0000000FE0
FF0000000FE0
FF0000000FE0
FF0000000FE0
FF0000000FE0
FF0000000FE0
FF0000000FE0
FF0000000FE0
FF0000000FE0
FF0000000FE0
FF0000000FE0
FF0000000FE0
FF0000000FE0
FF0000000FE0
FF0000000FE0
FF0000000FE0
FF0000000FE0
FF0000000FE0
FF0000000FE0
FF0000000FE0
FF0000000FE0
FF0000000FE0
FF0000000FE0
FF0000000FE0
ENDCHAR
STARTCHAR 073
ENCODING 73
SWIDTH 1512 0
DWIDTH 21 0
BBX 7 55 7 0
BITMAP
FE
FE
FE
FE
FE
FE
FE
FE
FE
FE
FE
FE
FE
FE
FE
FE
FE
FE
FE
FE
FE
FE
FE
FE
FE
FE
FE
FE
FE
FE
FE
FE
FE
FE
FE
FE
FE
FE
FE
FE
FE
FE
FE
FE
FE
FE
FE
FE
FE
FE
FE
FE
FE
FE
FE
ENDCHAR
STARTCHAR 074
ENCODING 74
SWIDTH 3096 0
DWIDTH 43 0
BBX 35 56 2 -1
BITMAP
0000000FE0
0000000FE0
0000000FE0
0000000FE0
0000000FE0
0000000FE0
0000000FE0
0000000FE0
0000000FE0
0000000FE0
0000000FE0
0000000FE0
0000000FE0
0000000FE0
0000000FE0
0000000FE0
0000000FE0
0000000FE0
0000000FE0
0000000FE0
0000000FE0
0000000FE0
0000000FE0
0000000FE0
0000000FE0
0000000FE0
0000000FE0
0000000FE0
0000000FE0
0000000FE0
0000000FE0
0000000FE0
0000000FE0
0000000FE0
0000000FE0
0000000FE0
0000000FE0
0000000FE0
0000000FE0
0000000FE0
FE00000FE0
FE00001FE0
FF00001FE0
FF00001FE0
FF00001FC0
7F80003FC0
7F80007FC0
7FC000FF80
3FE001FF80
1FFC07FF00
1FFFFFFE00
0FFFFFFC00
07FFFFF800
01FFFFF000
007FFFC000
000FFC0000
ENDCHAR
STARTCHAR 075
ENCODING 75
SWIDTH 3528 0
DWIDTH 49 0
BBX 43 55 6 0
BITMAP
FF000000FF80
FF000001FF00
FF000003FE00
FF000007FC00
FF00000FF800
FF00001FF000
FF00003FE000
FF00003FE000
FF00007FC000
FF0000FF8000
FF0001FF0000
FF0003FE0000
FF0007FC0000
FF000FF80000
FF001FF00000
FF003FE00000
FF007FC00000
FF007FC00000
FF00FF800000
FF01FF000000
FF03FE000000
FF07FC000000
FF0FF8000000
FF1FF0000000
FF3FF0000000
FF7FF0000000
FFFFF8000000
FFFFFC000000
FFFFFE000000
FFFDFE000000
FFF9FF000000
FFF8FF800000
FFF07FC00000
FFE03FC00000
FFC03FE00000
FF801FF00000
FF000FF80000
FF0007FC0000
FF0007FC0000
FF0003FE0000
FF0001FF0000
FF0000FF8000
FF00007F8000
FF00007FC000
FF00003FE000
FF00001FF000
FF00000FF000
FF00000FF800
FF000007FC00
FF000003FE00
FF000001FE00
FF000001FF00
FF000000FF80
FF0000007FC0
FF0000003FE0
ENDCHAR
STARTCHAR 076
ENCODING 76
SWIDTH 3024 0
DWIDTH 42 0
BBX 34 55 6 0
BITMAP
FF00000000
FF00000000
FF00000000
FF00000000
FF00000000
FF00000000
FF00000000
FF00000000
FF00000000
FF00000000
FF00000000
FF00000000
FF00000000
FF00000000
FF00000000
FF00000000
FF00000000
FF00000000
FF00000000
FF00000000
FF00000000
FF00000000
FF00000000
FF00000000
FF00000000
FF00000000
FF00000000
FF00000000
FF00000000
FF00000000
FF00000000
FF00000000
FF00000000
FF00000000
FF00000000
FF00000000
FF00000000
FF00000000
FF00000000
FF00000000
FF00000000
FF00000000
FF00000000
FF00000000
FF00000000
FF00000000
FF00000000
FF00000000
FF00000000
FFFFFFFFC0
FFFFFFFFC0
FFFFFFFFC0
FFFFFFFFC0
FFFFFFFFC0
FFFFFFFFC0
ENDCHAR
STARTCHAR 077
ENCODING 77
SWIDTH 4896 0
DWIDTH 68 0
BBX 56 55 6 0
BITMAP
FFC000000003FF
FFC000000003FF
FFE000000007FF
FFE000000007FF
FFF00000000FFF
FFF00000000FFF
FFF80000000FFF
FFF80000001FFF
FFF80000001FFF
FFFC0000003FFF
FFFC0000003FFF
FFFE0000007FFF
FEFE0000007F7F
FEFE0000007F7F
FE7F000000FE7F
FE7F000000FE7F
FE7F800001FE7F
FE3F800001FC7F
FE3F800001FC7F
FE1FC00003F87F
FE1FC00003F87F
FE1FE00007F87F
FE0FE00007F07F
FE0FE00007F07F
FE07F0000FE07F
FF07F0000FE07F
FF03F8001FC07F
FF03F8001FC0FF
FF03F8001FC0FF
FF01FC003F80FF
FF01FC003F80FF
FF00FE007F00FF
FF00FE007F00FF
FF00FE007F00FF
FF007F00FE00FF
FF007F00FE00FF
FF003F81FC00FF
FF003F81FC00FF
FF003F81FC00FF
FF001FC3F800FF
FF001FC3F800FF
FF000FE7F000FF
FF000FE7F000FF
FF000FE7F000FF
FF0007FFE000FF
FF0007FFE000FF
FF0003FFC000FF
FF0003FFC000FF
FF0001FF8000FF
FF0001FF8000FF
FF0001FF8000FF
FF0000FF0000FF
FF0000FF0000FF
FF00007E0000FF
FF00007E0000FF
ENDCHAR
STARTCHAR 078
ENCODING 78
SWIDTH 4032 0
DWIDTH 56 0
BBX 42 55 7 0
BITMAP
FE0000001FC0
FF0000001FC0
FF8000001FC0
FF8000001FC0
FFC000001FC0
FFE000001FC0
FFE000001FC0
FFF000001FC0
FFF800001FC0
FFF800001FC0
FFFC00001FC0
FFFE00001FC0
FFFE00001FC0
FEFF00001FC0
FEFF80001FC0
FE7F80001FC0
FE3FC0001FC0
FE3FE0001FC0
FE1FE0001FC0
FE0FF0001FC0
FE0FF8001FC0
FE07F8001FC0
FE03FC001FC0
FE03FE001FC0
FE01FE001FC0
FE00FF001FC0
FE00FF801FC0
FE007F801FC0
FE003FC01FC0
FE003FC01FC0
FE001FE01FC0
FE000FF01FC0
FE000FF01FC0
FE0007F81FC0
FE0007FC1FC0
FE0003FC1FC0
FE0001FE1FC0
FE0001FF1FC0
FE0000FF1FC0
FE00007F9FC0
FE00007FDFC0
FE00003FDFC0
FE00001FFFC0
FE00001FFFC0
FE00000FFFC0
FE000007FFC0
FE000007FFC0
FE000003FFC0
FE000001FFC0
FE000001FFC0
FE000000FFC0
FE0000007FC0
FE0000007FC0
FE0000003FC0
FE0000001FC0
ENDCHAR
STARTCHAR 079
ENCODING 79
SWIDTH 3888 0
DWIDTH 54 0
BBX 45 57 4 -1
BITMAP
00003FF00000
0001FFFE0000
000FFFFF8000
001FFFFFE000
007FFFFFF000
00FFFFFFF800
01FFE01FFC00
03FF0007FE00
03FE0001FF00
07F80000FF80
0FF800007F80
0FF000003FC0
1FE000001FC0
1FC000001FE0
1FC000000FE0
3FC000000FE0
3F8000000FF0
3F80000007F0
7F80000007F0
7F00000007F0
7F00000007F8
7F00000007F8
7F00000003F8
7F00000003F8
7F00000003F8
FF00000003F8
FF00000003F8
FF00000003F8
FF00000003F8
FF00000003F8
FF00000003F8
FF00000003F8
7F00000003F8
7F00000003F8
7F00000003F8
7F00000007F8
7F00000007F8
7F00000007F0
7F80000007F0
3F80000007F0
3F8000000FF0
3FC000000FF0
3FC000000FE0
1FE000001FE0
1FE000001FC0
0FF000003FC0
0FF800007F80
07FC0000FF80
03FE0001FF00
03FF0003FE00
01FFE01FFC00
00FFFFFFF800
007FFFFFF000
001FFFFFE000
000FFFFF8000
0001FFFE0000
00003FF00000
ENDCHAR
STARTCHAR 080
ENCODING 80
SWIDTH 3528 0
DWIDTH 49 0
BBX 40 55 6 0
BITMAP
FFFFFFC000
FFFFFFFC00
FFFFFFFF00
FFFFFFFFC0
FFFFFFFFE0
FFFFFFFFF0
FF00007FF8
FF00001FF8
FF000007FC
FF000003FE
FF000001FE
FF000000FE
FF000000FF
FF000000FF
FF0000007F
FF0000007F
FF0000007F
FF0000007F
FF0000007F
FF0000007F
FF000000FF
FF000000FF
FF000000FF
FF000001FE
FF000003FE
FF000007FC
FF00000FFC
FF00007FF8
FFFFFFFFF0
FFFFFFFFE0
FFFFFFFFC0
FFFFFFFF00
FFFFFFFC00
FFFFFFC000
FF00000000
FF00000000
FF00000000
FF00000000
FF00000000
FF00000000
FF00000000
FF00000000
FF00000000
FF00000000
FF00000000
FF00000000
FF00000000
FF00000000
FF00000000
FF00000000
FF00000000
FF00000000
FF00000000
FF00000000
FF00000000
ENDCHAR
STARTCHAR 081
ENCODING 81
SWIDTH 3888 0
DWIDTH 54 0
BBX 45 66 4 -10
BITMAP
00003FF00000
0003FFFE0000
000FFFFF8000
001FFFFFE000
007FFFFFF000
00FFFFFFF800
01FFE01FFC00
03FF0007FE00
07FE0001FF00
07F80000FF80
0FF000007F80
0FF000003FC0
1FE000003FC0
1FC000001FE0
3FC000001FE0
3F8000000FE0
3F8000000FF0
7F80000007F0
7F80000007F0
7F00000007F0
7F00000007F0
7F00000007F8
7F00000007F8
FF00000003F8
FF00000003F8
FF00000003F8
FF00000003F8
FF00000003F8
FF00000003F8
FF00000003F8
FF00000003F8
FF00000003F8
FF00000003F8
FF00000007F8
7F00000007F8
7F00000007F8
7F00000007F8
7F00000007F0
7F80000007F0
7F80000007F0
3F8000000FF0
3F8000000FE0
3FC000000FE0
1FC000001FE0
1FE000003FC0
0FF000003FC0
0FF000007F80
07F80000FF80
07FE0001FF00
03FF0007FE00
01FFE01FFC00
00FFFFFFF800
007FFFFFF000
001FFFFFF000
000FFFFFF800
0003FFFFFC00
00003FF7FE00
00000003FF80
00000001FFC0
00000000FFE0
000000003FF8
000000001FF8
000000000FF0
0000000003C0
000000000180
000000000100
ENDCHAR
STARTCHAR 082
ENCODING 82
SWIDTH 3456 0
DWIDTH 48 0
BBX 41 55 6 0
BITMAP
FFFFFF800000
FFFFFFF00000
FFFFFFFE0000
FFFFFFFF0000
FFFFFFFF8000
FFFFFFFFC000
FF0001FFE000
FF00003FF000
FF00001FF000
FF00000FF800
FF000007F800
FF000003FC00
FF000003FC00
FF000003FC00
FF000001FC00
FF000001FC00
FF000001FC00
FF000001FC00
FF000001FC00
FF000003FC00
FF000003FC00
FF000003FC00
FF000007F800
FF00000FF800
FF00001FF000
FF00003FF000
FF0001FFE000
FFFFFFFFC000
FFFFFFFF8000
FFFFFFFE0000
FFFFFFFC0000
FFFFFFF00000
FFFFFFF00000
FF0007F80000
FF0003F80000
FF0003FC0000
FF0001FC0000
FF0001FE0000
FF0000FF0000
FF0000FF0000
FF00007F8000
FF00007F8000
FF00003FC000
FF00001FC000
FF00001FE000
FF00000FF000
FF00000FF000
FF000007F800
FF000007F800
FF000003FC00
FF000003FC00
FF000001FE00
FF000001FE00
FF000000FF00
FF0000007F80
ENDCHAR
STARTCHAR 083
ENCODING 83
SWIDTH 3312 0
DWIDTH 46 0
BBX 40 57 3 -1
BITMAP
0001FFC000
000FFFF800
003FFFFE00
00FFFFFF80
01FFFFFFC0
03FFFFFFE0
07FF007FF0
0FFC001FF8
1FF00007FC
1FE00003FC
3FC00001FE
3FC00000FE
3F800000FF
3F800000FF
3F8000007F
3F8000007F
3F8000007F
3F80000000
3FC0000000
3FC0000000
1FE0000000
1FF0000000
0FFC000000
07FF000000
03FFC00000
01FFF80000
00FFFF0000
003FFFE000
001FFFFC00
0003FFFF00
0000FFFF80
00000FFFE0
000001FFF0
0000007FF8
0000000FFC
00000007FC
00000001FE
00000001FE
00000000FF
00000000FF
FE0000007F
FE0000007F
FE0000007F
FF0000007F
FF0000007F
7F800000FF
7F800000FF
3FC00001FE
3FF00003FE
1FF8000FFC
0FFF003FFC
07FFFFFFF8
03FFFFFFF0
00FFFFFFC0
007FFFFF80
000FFFFC00
0000FFE000
ENDCHAR
STARTCHAR 084
ENCODING 84
SWIDTH 3384 0
DWIDTH 47 0
BBX 43 55 2 0
BITMAP
FFFFFFFFFFE0
FFFFFFFFFFE0
FFFFFFFFFFE0
FFFFFFFFFFE0
FFFFFFFFFFE0
FFFFFFFFFFE0
00003F800000
00003F800000
00003F800000
00003F800000
00003F800000
00003F800000
00003F800000
00003F800000
00003F800000
00003F800000
00003F800000
00003F800000
00003F800000
00003F800000
00003F800000
00003F800000
00003F800000
00003F800000
00003F800000
00003F800000
00003F800000
00003F800000
00003F800000
00003F800000
00003F800000
00003F800000
00003F800000
00003F800000
00003F800000
00003F800000
00003F800000
00003F800000
00003F800000
00003F800000
00003F800000
00003F800000
00003F800000
00003F800000
00003F800000
00003F800000
00003F800000
00003F800000
00003F800000
00003F800000
00003F800000
00003F800000
00003F800000
00003F800000
00003F800000
ENDCHAR
STARTCHAR 085
ENCODING 85
SWIDTH 3672 0
DWIDTH 51 0
BBX 40 56 6 -1
BITMAP
FE000000FF
FE000000FF
FE000000FF
FE000000FF
FE000000FF
FE000000FF
FE000000FF
FE000000FF
FE000000FF
FE000000FF
FE000000FF
FE000000FF
FE000000FF
FE000000FF
FE000000FF
FE000000FF
FE000000FF
FE000000FF
FE000000FF
FE000000FF
FE000000FF
FE000000FF
FE000000FF
FE000000FF
FE000000FF
FE000000FF
FE000000FF
FE000000FF
FE000000FF
FE000000FF
FE000000FF
FE000000FF
FE000000FF
FE000000FF
FE000000FF
FE000000FF
FE000000FF
FE000000FF
FE000000FF
FE000000FF
FE000000FE
FE000000FE
FF000000FE
FF000001FE
7F000001FE
7F800003FC
7FC00007FC
3FE0000FF8
1FF8001FF0
1FFE00FFF0
0FFFFFFFE0
07FFFFFF80
01FFFFFF00
00FFFFFC00
001FFFF000
0003FF8000
ENDCHAR
STARTCHAR 086
ENCODING 86
SWIDTH 3600 0
DWIDTH 50 0
BBX 48 55 1 0
BITMAP
FF00000000FF
7F80000001FE
7F80000001FE
3F80000001FE
3FC0000003FC
3FC0000003FC
1FC0000003F8
1FE0000007F8
1FE0000007F8
0FF0000007F0
0FF000000FF0
07F000000FF0
07F800001FE0
07F800001FE0
03F800001FC0
03FC00003FC0
03FC00003FC0
01FC00003F80
01FE00007F80
00FE00007F80
00FE00007F00
00FF0000FF00
007F0000FE00
007F0000FE00
007F8001FE00
003F8001FC00
003F8001FC00
001FC003FC00
001FC003F800
001FC003F800
000FE007F000
000FE007F000
000FF00FF000
0007F00FE000
0007F00FE000
0007F81FE000
0003F81FC000
0003F81FC000
0001FC3F8000
0001FC3F8000
0001FC3F8000
0000FE7F0000
0000FE7F0000
0000FE7F0000
00007FFE0000
00007FFE0000
00003FFC0000
00003FFC0000
00003FFC0000
00001FF80000
00001FF80000
00001FF80000
00000FF00000
00000FF00000
000007E00000
ENDCHAR
STARTCHAR 087
ENCODING 87
SWIDTH 4968 0
DWIDTH 69 0
BBX 58 55 10 0
BITMAP
000003F000003FC0
000003F800003F80
000007F800003F80
000007F800007F80
800007F800007F00
80000FFC00007F00
80000FFC00007F00
80000FFC0000FF00
C0000FFE0000FE00
C0001FFE0000FE00
C0001FFE0000FE00
C0001FFE0000FE00
E0003FFF0001FC00
E0003FBF0001FC00
E0003F3F0001FC00
E0003F3F0001FC00
E0007F3F8003FC00
F0007E1F8003F800
F0007E1F8003F800
F000FE1FC003F800
F000FE0FC007F800
F800FC0FC007F000
F800FC0FC007F000
F801FC0FE007F000
F801F807E007F000
FC01F807E00FE000
FC03F807F00FE000
FC03F803F00FE000
FC03F003F00FE000
FC03F003F01FC000
FE07F003F81FC000
FE07E001F81FC000
FE07E001F81FC000
FE0FE001FC3F8000
7F0FC000FC3F8000
7F0FC000FC3F8000
7F0FC000FC3F8000
7F1FC000FE3F0000
3F9F80007E7F0000
3F9F80007E7F0000
3F9F80007E7F0000
3FBF00003F7E0000
1FBF00003F7E0000
1FBF00003F7E0000
1FBF00003FFE0000
1FFE00001FFC0000
0FFE00001FFC0000
0FFE00001FFC0000
0FFC00000FFC0000
0FFC00000FF80000
07FC00000FF80000
07F800000FF80000
07F8000007F80000
07F8000007F00000
03F8000007F00000
ENDCHAR
STARTCHAR 088
ENCODING 88
SWIDTH 3528 0
DWIDTH 49 0
BBX 45 55 2 0
BITMAP
7F8000001FF0
3FC000001FE0
3FE000003FE0
1FE000003FC0
1FF000007FC0
0FF80000FF80
07F80000FF00
07FC0001FF00
03FE0003FE00
01FE0003FC00
01FF0007FC00
00FF0007F800
007F800FF000
007FC01FF000
003FC01FE000
001FE03FC000
001FF07FC000
000FF07F8000
000FF8FF8000
0007FCFF0000
0003FDFE0000
0003FFFE0000
0001FFFC0000
0000FFF80000
0000FFF80000
00007FF00000
00003FE00000
00003FE00000
00007FF00000
00007FF00000
0000FFF80000
0001FFFC0000
0001FFFC0000
0003FFFE0000
0007FDFF0000
0007F8FF0000
000FF8FF8000
000FF07FC000
001FE03FC000
003FE03FE000
003FC01FE000
007F800FF000
00FF800FF800
00FF0007F800
01FF0007FC00
03FE0003FE00
03FC0001FE00
07FC0001FF00
0FF80000FF80
0FF000007F80
1FF000007FC0
3FE000003FE0
3FC000001FE0
7FC000001FF0
FF8000000FF8
ENDCHAR
STARTCHAR 089
ENCODING 89
SWIDTH 3384 0
DWIDTH 47 0
BBX 45 55 1 0
BITMAP
FF00000007F8
FF8000000FF0
7F8000001FF0
3FC000001FE0
3FC000003FE0
1FE000003FC0
1FE000007FC0
0FF000007F80
0FF00000FF00
07F80000FF00
07F80001FE00
03FC0001FE00
03FC0003FC00
01FE0003FC00
00FF0007F800
00FF0007F800
007F800FF000
007F800FE000
003FC01FE000
003FC01FC000
001FE03FC000
001FE03F8000
000FF07F8000
0007F0FF0000
0007F8FF0000
0003F9FE0000
0003FDFC0000
0001FFFC0000
0001FFF80000
0000FFF80000
0000FFF00000
00007FF00000
00003FE00000
00003FE00000
00001FC00000
00001FC00000
00001FC00000
00001FC00000
00001FC00000
00001FC00000
00001FC00000
00001FC00000
00001FC00000
00001FC00000
00001FC00000
00001FC00000
00001FC00000
00001FC00000
00001FC00000
00001FC00000
00001FC00000
00001FC00000
00001FC00000
00001FC00000
00001FC00000
ENDCHAR
STARTCHAR 090
ENCODING 90
SWIDTH 3384 0
DWIDTH 47 0
BBX 41 55 3 0
BITMAP
7FFFFFFFFE00
7FFFFFFFFE00
7FFFFFFFFE00
7FFFFFFFFE00
7FFFFFFFFE00
7FFFFFFFFE00
00000003FE00
00000003FC00
00000007F800
0000000FF800
0000000FF000
0000001FE000
0000003FC000
0000007FC000
0000007F8000
000000FF0000
000001FF0000
000001FE0000
000003FC0000
000007FC0000
000007F80000
00000FF00000
00001FE00000
00003FE00000
00003FC00000
00007F800000
0000FF800000
0000FF000000
0001FE000000
0003FE000000
0003FC000000
0007F8000000
000FF0000000
001FF0000000
001FE0000000
003FC0000000
007FC0000000
007F80000000
00FF00000000
01FF00000000
01FE00000000
03FC00000000
07F800000000
0FF800000000
0FF000000000
1FE000000000
3FE000000000
3FC000000000
7F8000000000
FFFFFFFFFF80
FFFFFFFFFF80
FFFFFFFFFF80
FFFFFFFFFF80
FFFFFFFFFF80
FFFFFFFFFF80
ENDCHAR
STARTCHAR 091
ENCODING 91
SWIDTH 1512 0
DWIDTH 21 0
BBX 14 76 6 -12
BITMAP
FFFC
FFFC
FFFC
FFFC
FFFC
FFFC
FFFC
FE00
FE00
FE00
FE00
FE00
FE00
FE00
FE00
FE00
FE00
FE00
FE00
FE00
FE00
FE00
FE00
FE00
FE00
FE00
FE00
FE00
FE00
FE00
FE00
FE00
FE00
FE00
FE00
FE00
FE00
FE00
FE00
FE00
FE00
FE00
FE00
FE00
FE00
FE00
FE00
FE00
FE00
FE00
FE00
FE00
FE00
FE00
FE00
FE00
FE00
FE00
FE00
FE00
FE00
FE00
FE00
FE00
FE00
FE00
FE00
FE00
FE00
FE00
FFFC
FFFC
FFFC
FFFC
FFFC
FFFC
ENDCHAR
STARTCHAR 092
ENCODING 92
SWIDTH 2304 0
DWIDTH 32 0
BBX 29 60 2 -5
BITMAP
FC000000
FE000000
7E000000
7F000000
7F000000
3F000000
3F800000
3F800000
1FC00000
1FC00000
0FC00000
0FE00000
0FE00000
07E00000
07F00000
03F00000
03F80000
03F80000
01F80000
01FC0000
01FC0000
00FE0000
00FE0000
007E0000
007F0000
007F0000
003F0000
003F8000
001F8000
001FC000
001FC000
000FC000
000FE000
000FE000
0007F000
0007F000
0003F000
0003F800
0003F800
0001F800
0001FC00
0000FC00
0000FE00
0000FE00
00007E00
00007F00
00007F00
00003F80
00003F80
00001F80
00001FC0
00001FC0
00000FE0
00000FE0
000007E0
000007F0
000007F0
000003F0
000003F8
000003F8
ENDCHAR
STARTCHAR 093
ENCODING 93
SWIDTH 1512 0
DWIDTH 21 0
BBX 15 76 0 -12
BITMAP
FFFE
FFFE
FFFE
FFFE
FFFE
FFFE
FFFE
00FE
00FE
00FE
00FE
00FE
00FE
00FE
00FE
00FE
00FE
00FE
00FE
00FE
00FE
00FE
00FE
00FE
00FE
00FE
00FE
00FE
00FE
00FE
00FE
00FE
00FE
00FE
00FE
00FE
00FE
00FE
00FE
00FE
00FE
00FE
00FE
00FE
00FE
00FE
00FE
00FE
00FE
00FE
00FE
00FE
00FE
00FE
00FE
00FE
00FE
00FE
00FE
00FE
00FE
00FE
00FE
00FE
00FE
00FE
00FE
00FE
00FE
00FE
FFFE
FFFE
FFFE
FFFE
FFFE
FFFE
ENDCHAR
STARTCHAR 094
ENCODING 94
SWIDTH 2376 0
DWIDTH 33 0
BBX 27 27 3 28
BITMAP
001F0000
003F0000
003F8000
003F8000
007FC000
007FC000
00FFE000
00FFE000
01FFE000
01FFF000
01FBF000
03FBF800
03F1F800
07F1FC00
07E0FC00
0FE0FC00
0FC0FE00
0FC07E00
1FC07F00
1F803F00
3F803F00
3F003F80
3F001F80
7F001FC0
7E000FC0
FE000FE0
FC000FE0
ENDCHAR
STARTCHAR 095
ENCODING 95
SWIDTH 2520 0
DWIDTH 35 0
BBX 35 6 0 -6
BITMAP
FFFFFFFFE0
FFFFFFFFE0
FFFFFFFFE0
FFFFFFFFE0
FFFFFFFFE0
FFFFFFFFE0
ENDCHAR
STARTCHAR 096
ENCODING 96
SWIDTH 1728 0
DWIDTH 24 0
BBX 16 11 2 47
BITMAP
FF80
3FC0
3FC0
1FE0
0FF0
07F8
03F8
01FC
00FE
007E
003F
ENDCHAR
STARTCHAR 097
ENCODING 97
SWIDTH 3024 0
DWIDTH 42 0
BBX 34 43 4 -1
BITMAP
0007FC0000
007FFF8000
01FFFFE000
03FFFFF000
07FFFFF800
0FFFFFFC00
1FF80FFE00
3FE003FE00
3FC000FF00
7F8000FF00
7F00007F00
7F00007F00
0000007F00
0000007F80
0000007F80
0000007F80
0000007F80
0007FFFF80
007FFFFF80
01FFFFFF80
07FFFFFF80
0FFFFFFF80
1FFFFFFF80
3FFC007F80
7FE0007F80
7F80007F80
7F00007F80
FF00007F80
FE00007F80
FE00007F80
FE00007F80
FE00007F80
FE00007F80
FF0000FF80
FF0003FF80
7FC007FF80
7FF03FFF80
3FFFFFFF80
1FFFFFBF80
0FFFFF3F80
07FFFC3FC0
01FFF83FC0
007FC00000
ENDCHAR
STARTCHAR 098
ENCODING 98
SWIDTH 3168 0
DWIDTH 44 0
BBX 35 59 5 -1
BITMAP
FF00000000
FF00000000
FF00000000
FF00000000
FF00000000
FF00000000
FF00000000
FF00000000
FF00000000
FF00000000
FF00000000
FF00000000
FF00000000
FF00000000
FF00000000
FF00000000
FF01FE0000
FF0FFFC000
FF1FFFF000
FF7FFFF800
FFFFFFFC00
FFFFFFFE00
FFFC07FF00
FFF001FF00
FFC000FF80
FF80007F80
FF80003FC0
FF00003FC0
FF00001FC0
FF00001FE0
FF00000FE0
FF00000FE0
FF00000FE0
FF00000FE0
FF00000FE0
FF00000FE0
FF00000FE0
FF00000FE0
FF00000FE0
FF00000FE0
FF00000FE0
FF00000FE0
FF00000FE0
FF00000FE0
FF00001FE0
FF00001FE0
FF00001FC0
FF00003FC0
FF80003FC0
FF80007F80
FFC000FF80
FFF001FF00
FFFC07FF00
FFFFFFFE00
FEFFFFFC00
FE7FFFF800
FE3FFFF000
FE0FFFC000
0001FE0000
ENDCHAR
STARTCHAR 099
ENCODING 99
SWIDTH 2952 0
DWIDTH 41 0
BBX 34 43 4 -1
BITMAP
0007FC0000
003FFF8000
00FFFFE000
01FFFFF800
03FFFFFC00
07FFFFFE00
0FFC07FF00
1FF001FF00
1FE0007F80
3FC0003F80
3F80003FC0
7F80001FC0
7F00001FC0
FF00001FC0
FE00000FC0
FE00000000
FE00000000
FE00000000
FE00000000
FE00000000
FE00000000
FE00000000
FE00000000
FE00000000
FE00000000
FE00000000
FE00000000
FE00000000
FE00000000
FF00000FC0
7F00001FC0
7F80001FC0
3F80001FC0
3FC0003F80
1FE0007F80
1FF000FF00
0FFC07FF00
07FFFFFE00
03FFFFFC00
01FFFFF800
00FFFFE000
003FFF8000
0007FC0000
ENDCHAR
STARTCHAR 100
ENCODING 100
SWIDTH 3168 0
DWIDTH 44 0
BBX 34 59 4 -1
BITMAP
0000001FC0
0000001FC0
0000001FC0
0000001FC0
0000001FC0
0000001FC0
0000001FC0
0000001FC0
0000001FC0
0000001FC0
0000001FC0
0000001FC0
0000001FC0
0000001FC0
0000001FC0
0000001FC0
000FF01FC0
007FFE1FC0
00FFFF9FC0
03FFFFDFC0
07FFFFFFC0
0FFFFFFFC0
0FFC07FFC0
1FF001FFC0
3FE0007FC0
3FC0003FC0
7F80003FC0
7F80001FC0
7F00001FC0
FF00001FC0
FF00001FC0
FE00001FC0
FE00001FC0
FE00001FC0
FE00001FC0
FE00001FC0
FE00001FC0
FE00001FC0
FE00001FC0
FE00001FC0
FE00001FC0
FE00001FC0
FE00001FC0
FE00001FC0
FE00001FC0
7F00001FC0
7F00001FC0
7F80001FC0
3F80003FC0
3FC0003FC0
3FE0007FC0
1FF001FFC0
0FFC07FFC0
0FFFFFFFC0
07FFFFEFC0
03FFFFCFC0
00FFFF8FC0
007FFE0FC0
000FF00000
ENDCHAR
STARTCHAR 101
ENCODING 101
SWIDTH 2952 0
DWIDTH 41 0
BBX 35 43 3 -1
BITMAP
0003FE0000
000FFFC000
003FFFF000
00FFFFF800
01FFFFFC00
03FFFFFE00
07FE03FF00
0FF800FF00
0FF0007F80
1FE0003F80
1FC0003FC0
3FC0001FC0
3F80001FC0
7F80000FE0
7F00000FE0
7F00000FE0
7F00000FE0
7F00000FE0
FFFFFFFFE0
FFFFFFFFE0
FFFFFFFFE0
FFFFFFFFE0
FFFFFFFFE0
FFFFFFFFE0
FE00000000
FF00000000
7F00000000
7F00000000
7F00000000
7F00000000
3F80000000
3F80000000
3FC0000300
1FE0000780
1FF0000FC0
0FFC003FE0
07FF00FFC0
03FFFFFF80
01FFFFFF00
00FFFFFE00
007FFFF800
001FFFE000
0001FF0000
ENDCHAR
STARTCHAR 102
ENCODING 102
SWIDTH 1944 0
DWIDTH 27 0
BBX 25 58 2 0
BITMAP
0007FF80
000FFF80
003FFF80
007FFF80
007FFF80
00FFC000
00FF0000
01FE0000
01FE0000
01FC0000
01FC0000
01FC0000
01FC0000
01FC0000
01FC0000
01FC0000
01FC0000
FFFFFE00
FFFFFE00
FFFFFE00
FFFFFE00
FFFFFE00
FFFFFE00
01FC0000
01FC0000
01FC0000
01FC0000
01FC0000
01FC0000
01FC0000
01FC0000
01FC0000
01FC0000
01FC0000
01FC0000
01FC0000
01FC0000
01FC0000
01FC0000
01FC0000
01FC0000
01FC0000
01FC0000
01FC0000
01FC0000
01FC0000
01FC0000
01FC0000
01FC0000
01FC0000
01FC0000
01FC0000
01FC0000
01FC0000
01FC0000
01FC0000
01FC0000
01FC0000
ENDCHAR
STARTCHAR 103
ENCODING 103
SWIDTH 3168 0
DWIDTH 44 0
BBX 35 58 4 -16
BITMAP
000FF00000
007FFE0FE0
00FFFF8FE0
03FFFFCFE0
07FFFFEFE0
0FFFFFFFE0
0FFE07FFE0
1FF001FFE0
3FE0007FE0
3FC0003FE0
3F80001FE0
7F80001FE0
7F00000FE0
7F00000FE0
FF00000FE0
FF00000FE0
FE00000FE0
FE00000FE0
FE00000FE0
FE00000FE0
FE00000FE0
FE00000FE0
FE00000FE0
FE00000FE0
FE00000FE0
FE00000FE0
FE00000FE0
FE00000FE0
FF00000FE0
7F00000FE0
7F00000FE0
7F80001FE0
3F80001FE0
3FC0003FE0
1FE0007FE0
1FF001FFE0
0FFC07FFE0
07FFFFFFE0
07FFFFEFE0
03FFFFCFE0
00FFFF8FE0
007FFE1FE0
000FF01FE0
0000001FC0
0000001FC0
0000001FC0
0000001FC0
0400003FC0
0E00007F80
1F0000FF80
3FC001FF00
3FF807FF00
1FFFFFFE00
0FFFFFFC00
07FFFFF800
01FFFFE000
007FFF8000
000FFC0000
ENDCHAR
STARTCHAR 104
ENCODING 104
SWIDTH 3096 0
DWIDTH 43 0
BBX 33 58 5 0
BITMAP
FE00000000
FE00000000
FE00000000
FE00000000
FE00000000
FE00000000
FE00000000
FE00000000
FE00000000
FE00000000
FE00000000
FE00000000
FE00000000
FE00000000
FE00000000
FE00000000
FE01FF0000
FE07FFE000
FE1FFFF000
FE3FFFF800
FEFFFFFC00
FEFFFFFE00
FFFC07FE00
FFF001FF00
FFE000FF00
FFC0007F00
FF80007F00
FF00007F80
FE00003F80
FE00003F80
FE00003F80
FE00003F80
FE00003F80
FE00003F80
FE00003F80
FE00003F80
FE00003F80
FE00003F80
FE00003F80
FE00003F80
FE00003F80
FE00003F80
FE00003F80
FE00003F80
FE00003F80
FE00003F80
FE00003F80
FE00003F80
FE00003F80
FE00003F80
FE00003F80
FE00003F80
FE00003F80
FE00003F80
FE00003F80
FE00003F80
FE00003F80
FE00003F80
ENDCHAR
STARTCHAR 105
ENCODING 105
SWIDTH 1368 0
DWIDTH 19 0
BBX 9 56 5 0
BITMAP
3E00
7F00
7F00
FF80
FF80
7F80
7F00
3E00
0000
0000
0000
0000
0000
0000
0000
7F00
7F00
7F00
7F00
7F00
7F00
7F00
7F00
7F00
7F00
7F00
7F00
7F00
7F00
7F00
7F00
7F00
7F00
7F00
7F00
7F00
7F00
7F00
7F00
7F00
7F00
7F00
7F00
7F00
7F00
7F00
7F00
7F00
7F00
7F00
7F00
7F00
7F00
7F00
7F00
7F00
ENDCHAR
STARTCHAR 106
ENCODING 106
SWIDTH 1368 0
DWIDTH 19 0
BBX 13 73 0 -17
BITMAP
01E0
03F8
07F8
07F8
07F8
07F8
03F8
01E0
0000
0000
0000
0000
0000
0000
0000
03F8
03F8
03F8
03F8
03F8
03F8
03F8
03F8
03F8
03F8
03F8
03F8
03F8
03F8
03F8
03F8
03F8
03F8
03F8
03F8
03F8
03F8
03F8
03F8
03F8
03F8
03F8
03F8
03F8
03F8
03F8
03F8
03F8
03F8
03F8
03F8
03F8
03F8
03F8
03F8
03F8
03F8
03F8
03F8
03F8
03F8
03F8
03F8
03F8
07F8
07F0
1FF0
FFF0
FFE0
FFE0
FFC0
FF00
FC00
ENDCHAR
STARTCHAR 107
ENCODING 107
SWIDTH 2880 0
DWIDTH 40 0
BBX 34 58 5 0
BITMAP
FE00000000
FE00000000
FE00000000
FE00000000
FE00000000
FE00000000
FE00000000
FE00000000
FE00000000
FE00000000
FE00000000
FE00000000
FE00000000
FE00000000
FE00000000
FE00000000
FE00000000
FE0000FF80
FE0001FE00
FE0003FC00
FE0007F800
FE000FF000
FE001FE000
FE003FE000
FE007FC000
FE00FF8000
FE01FF0000
FE03FE0000
FE07FC0000
FE0FF80000
FE1FF00000
FE3FE00000
FE7FC00000
FE7F800000
FEFF800000
FFFFC00000
FFFFC00000
FFFFE00000
FFFFF00000
FFEFF80000
FFC7F80000
FF83FC0000
FF03FE0000
FF01FF0000
FE00FF0000
FE007F8000
FE007FC000
FE003FE000
FE001FE000
FE000FF000
FE0007F800
FE0007FC00
FE0003FC00
FE0001FE00
FE0000FF00
FE0000FF80
FE00007F80
FE00003FC0
ENDCHAR
STARTCHAR 108
ENCODING 108
SWIDTH 1368 0
DWIDTH 19 0
BBX 7 58 6 0
BITMAP
FE
FE
FE
FE
FE
FE
FE
FE
FE
FE
FE
FE
FE
FE
FE
FE
FE
FE
FE
FE
FE
FE
FE
FE
FE
FE
FE
FE
FE
FE
FE
FE
FE
FE
FE
FE
FE
FE
FE
FE
FE
FE
FE
FE
FE
FE
FE
FE
FE
FE
FE
FE
FE
FE
FE
FE
FE
FE
ENDCHAR
STARTCHAR 109
ENCODING 109
SWIDTH 4896 0
DWIDTH 68 0
BBX 58 42 5 0
BITMAP
0001FF0000FF8000
FE0FFFC007FFE000
FE3FFFF01FFFF800
FE7FFFF83FFFFC00
FEFFFFFC7FFFFE00
FFFFFFFCFFFFFF00
FFF80FFFFE03FF00
FFE003FFF800FF80
FF8001FFE0007F80
FF8000FFC0003F80
FF00007FC0003FC0
FE00007F80003FC0
FE00007F80001FC0
FE00007F80001FC0
FE00007F80001FC0
FE00007F80001FC0
FE00007F80001FC0
FE00007F80001FC0
FE00007F80001FC0
FE00007F80001FC0
FE00007F80001FC0
FE00007F80001FC0
FE00007F80001FC0
FE00007F80001FC0
FE00007F80001FC0
FE00007F80001FC0
FE00007F80001FC0
FE00007F80001FC0
FE00007F80001FC0
FE00007F80001FC0
FE00007F80001FC0
FE00007F80001FC0
FE00007F80001FC0
FE00007F80001FC0
FE00007F80001FC0
FE00007F80001FC0
FE00007F80001FC0
FE00007F80001FC0
FE00007F80001FC0
FE00007F80001FC0
FE00007F80001FC0
FE00007F80001FC0
ENDCHAR
STARTCHAR 110
ENCODING 110
SWIDTH 3096 0
DWIDTH 43 0
BBX 33 42 5 0
BITMAP
0001FF0000
FE07FFE000
FE1FFFF000
FE3FFFF800
FEFFFFFC00
FEFFFFFE00
FFFC07FE00
FFF001FF00
FFC000FF00
FF80007F00
FF80007F00
FF00007F80
FE00007F80
FE00003F80
FE00003F80
FE00003F80
FE00003F80
FE00003F80
FE00003F80
FE00003F80
FE00003F80
FE00003F80
FE00003F80
FE00003F80
FE00003F80
FE00003F80
FE00003F80
FE00003F80
FE00003F80
FE00003F80
FE00003F80
FE00003F80
FE00003F80
FE00003F80
FE00003F80
FE00003F80
FE00003F80
FE00003F80
FE00003F80
FE00003F80
FE00003F80
FE00003F80
ENDCHAR
STARTCHAR 111
ENCODING 111
SWIDTH 3168 0
DWIDTH 44 0
BBX 38 43 3 -1
BITMAP
0003FF0000
001FFFE000
007FFFF800
00FFFFFC00
01FFFFFE00
03FFFFFF00
07FF03FF80
0FF8007FC0
1FF0003FC0
1FE0001FE0
3FC0000FF0
3FC0000FF0
3F800007F0
7F800007F8
7F000003F8
7F000003F8
7F000003F8
FF000003F8
FE000001FC
FE000001FC
FE000001FC
FE000001FC
FE000001FC
FE000001FC
FE000003FC
FF000003FC
7F000003F8
7F000003F8
7F000003F8
7F800007F8
3F800007F0
3FC0000FF0
3FC0000FF0
1FE0001FE0
1FF0003FE0
0FF8007FC0
07FF03FF80
03FFFFFF00
01FFFFFE00
00FFFFFC00
007FFFF800
001FFFE000
0003FE0000
ENDCHAR
STARTCHAR 112
ENCODING 112
SWIDTH 3168 0
DWIDTH 44 0
BBX 35 58 5 -16
BITMAP
0001FE0000
FE0FFFC000
FE3FFFF000
FE7FFFF800
FEFFFFFC00
FFFFFFFE00
FFFC0FFF00
FFE001FF00
FFC000FF80
FF80007F80
FF00003FC0
FF00003FC0
FF00001FC0
FF00001FC0
FF00001FE0
FF00000FE0
FF00000FE0
FF00000FE0
FF00000FE0
FF00000FE0
FF00000FE0
FF00000FE0
FF00000FE0
FF00000FE0
FF00000FE0
FF00000FE0
FF00000FE0
FF00000FE0
FF00001FE0
FF00001FC0
FF00001FC0
FF00003FC0
FF00003F80
FF80007F80
FFC000FF80
FFE001FF00
FFFC0FFE00
FFFFFFFE00
FEFFFFFC00
FE7FFFF800
FE3FFFF000
FE0FFFC000
FE01FE0000
FE00000000
FE00000000
FE00000000
FE00000000
FE00000000
FE00000000
FE00000000
FE00000000
FE00000000
FE00000000
FE00000000
FE00000000
FE00000000
FE00000000
FE00000000
ENDCHAR
STARTCHAR 113
ENCODING 113
SWIDTH 3168 0
DWIDTH 44 0
BBX 35 58 3 -16
BITMAP
0007F80000
003FFF07E0
00FFFFC7E0
01FFFFE7E0
03FFFFFFE0
07FFFFFFE0
0FFE03FFE0
0FF800FFE0
1FF0003FE0
1FE0001FE0
3FC0000FE0
3FC0000FE0
3F80000FE0
7F80000FE0
7F00000FE0
7F00000FE0
7F00000FE0
7F00000FE0
7F00000FE0
FF00000FE0
FF00000FE0
FF00000FE0
FF00000FE0
7F00000FE0
7F00000FE0
7F00000FE0
7F00000FE0
7F00000FE0
7F00000FE0
7F80000FE0
3F80000FE0
3FC0000FE0
3FC0001FE0
1FE0001FE0
1FF0003FE0
0FF800FFE0
0FFE03FFE0
07FFFFFFE0
03FFFFFFE0
01FFFFEFE0
00FFFFCFE0
003FFF0FE0
0007F80FE0
0000000FE0
0000000FE0
0000000FE0
0000000FE0
0000000FE0
0000000FE0
0000000FE0
0000000FE0
0000000FE0
0000000FE0
0000000FE0
0000000FE0
0000000FE0
0000000FE0
0000000FE0
ENDCHAR
STARTCHAR 114
ENCODING 114
SWIDTH 1872 0
DWIDTH 26 0
BBX 20 42 5 0
BITMAP
0007F0
FE1FF0
FE3FF0
FE7FF0
FEFFF0
FFFFF0
FFF800
FFE000
FFC000
FF8000
FF0000
FE0000
FE0000
FE0000
FE0000
FE0000
FE0000
FE0000
FE0000
FE0000
FE0000
FE0000
FE0000
FE0000
FE0000
FE0000
FE0000
FE0000
FE0000
FE0000
FE0000
FE0000
FE0000
FE0000
FE0000
FE0000
FE0000
FE0000
FE0000
FE0000
FE0000
FE0000
ENDCHAR
STARTCHAR 115
ENCODING 115
SWIDTH 2880 0
DWIDTH 40 0
BBX 32 43 4 -1
BITMAP
000FF800
00FFFF00
01FFFFC0
07FFFFE0
0FFFFFF0
1FFFFFF8
1FF01FFC
3FC003FE
3F8001FE
7F8000FE
7F0000FF
7F00007F
7F00007F
7F000000
7F800000
7FC00000
3FF00000
3FFE0000
1FFFE000
0FFFFC00
03FFFF80
00FFFFE0
003FFFF0
0007FFF8
00003FFC
000007FE
000001FE
000000FF
0000007F
0000007F
FE00007F
FE00007F
FE00007F
FF00007F
7F8000FF
7FC001FE
3FF80FFE
3FFFFFFC
1FFFFFF8
07FFFFF0
03FFFFE0
00FFFF80
001FF800
ENDCHAR
STARTCHAR 116
ENCODING 116
SWIDTH 1800 0
DWIDTH 25 0
BBX 23 52 0 -1
BITMAP
00FE00
00FE00
00FE00
00FE00
00FE00
00FE00
00FE00
00FE00
00FE00
00FE00
FFFFFC
FFFFFC
FFFFFC
FFFFFC
FFFFFC
FFFFFC
00FE00
00FE00
00FE00
00FE00
00FE00
00FE00
00FE00
00FE00
00FE00
00FE00
00FE00
00FE00
00FE00
00FE00
00FE00
00FE00
00FE00
00FE00
00FE00
00FE00
00FE00
00FE00
00FE00
00FE00
00FE00
00FE00
00FE00
00FE00
00FF00
00FF80
00FFFE
007FFE
007FFE
003FFE
001FFE
0003F8
ENDCHAR
STARTCHAR 117
ENCODING 117
SWIDTH 3096 0
DWIDTH 43 0
BBX 33 42 5 -1
BITMAP
FE00003F80
FE00003F80
FE00003F80
FE00003F80
FE00003F80
FE00003F80
FE00003F80
FE00003F80
FE00003F80
FE00003F80
FE00003F80
FE00003F80
FE00003F80
FE00003F80
FE00003F80
FE00003F80
FE00003F80
FE00003F80
FE00003F80
FE00003F80
FE00003F80
FE00003F80
FE00003F80
FE00003F80
FE00003F80
FE00003F80
FE00003F80
FE00003F80
FE00003F80
FE00003F80
FF00007F80
7F00007F80
7F0000FF80
7F8001FF80
7FC003FF80
3FF01FFF80
3FFFFFFF80
1FFFFFFF80
0FFFFF3F80
07FFFE3F80
01FFF83F80
007FE00000
ENDCHAR
STARTCHAR 118
ENCODING 118
SWIDTH 2736 0
DWIDTH 38 0
BBX 35 41 1 0
BITMAP
FF00000FE0
7F00000FE0
7F00001FE0
3F80001FC0
3F80001FC0
3F80003F80
1FC0003F80
1FC0003F80
1FC0007F00
0FE0007F00
0FE0007F00
07E000FE00
07F000FE00
07F000FE00
03F000FC00
03F801FC00
03F801FC00
01F801F800
01FC03F800
01FC03F000
00FC03F000
00FE07F000
007E07E000
007E07E000
007F0FE000
003F0FC000
003F0FC000
003F9FC000
001F9F8000
001F9F8000
001FFF0000
000FFF0000
000FFF0000
0007FE0000
0007FE0000
0007FE0000
0003FC0000
0003FC0000
0003FC0000
0001F80000
0001F80000
ENDCHAR
STARTCHAR 119
ENCODING 119
SWIDTH 4248 0
DWIDTH 59 0
BBX 55 41 2 0
BITMAP
FE0000FC0000FE
FE0000FE0000FE
7E0000FE0001FC
7F0001FE0001FC
7F0001FF0001FC
7F0001FF0001F8
3F8001FF0003F8
3F8003FF8003F8
3F8003FF8003F8
1F8003FF8003F0
1FC007FF8007F0
1FC007EFC007F0
1FC007CFC007E0
0FC00FCFC00FE0
0FE00FC7E00FE0
0FE00FC7E00FC0
07E01F87E00FC0
07E01F83F01FC0
07F01F83F01FC0
03F03F03F01F80
03F03F01F81F80
03F83F01F83F80
03F83E01F83F00
01F87E00FC3F00
01F87E00FC3F00
01FC7C00FC7F00
00FCFC007C7E00
00FCFC007E7E00
00FCF8007E7E00
00FFF8003EFC00
007FF8003FFC00
007FF0003FFC00
007FF0001FF800
003FF0001FF800
003FF0001FF800
003FE0001FF800
003FE0000FF000
001FE0000FF000
001FC0000FF000
001FC00007E000
000FC00007E000
ENDCHAR
STARTCHAR 120
ENCODING 120
SWIDTH 2808 0
DWIDTH 39 0
BBX 35 41 2 0
BITMAP
FF00003FE0
7F80007FC0
3FC0007F80
3FC000FF00
1FE000FF00
0FE001FE00
0FF003FC00
07F803FC00
03F807F800
03FC0FF000
01FC0FF000
00FE1FE000
00FF1FC000
007F3FC000
003FFF8000
003FFF0000
001FFF0000
000FFE0000
000FFC0000
0007FC0000
0007F80000
0007FC0000
000FFE0000
001FFE0000
001FFF0000
003FFF8000
007FBF8000
007F3FC000
00FF1FE000
01FE0FE000
01FC0FF000
03FC07F800
07F803F800
07F003FC00
0FF001FE00
1FE001FE00
1FE000FF00
3FC0007F80
7F80007F80
7F80003FC0
FF00003FE0
ENDCHAR
STARTCHAR 121
ENCODING 121
SWIDTH 2664 0
DWIDTH 37 0
BBX 35 58 1 -17
BITMAP
FF00001FE0
FF00001FC0
7F00001FC0
7F80003FC0
3F80003F80
3F80003F80
3FC0007F80
1FC0007F00
1FC0007F00
1FE000FF00
0FE000FE00
0FE000FE00
0FF000FE00
07F001FC00
07F001FC00
07F801FC00
03F803F800
03F803F800
01FC03F800
01FC07F000
01FC07F000
00FE07F000
00FE0FE000
00FE0FE000
007F0FE000
007F0FC000
007F1FC000
003F9F8000
003F9F8000
001FBF8000
001FFF0000
001FFF0000
000FFF0000
000FFE0000
000FFE0000
0007FE0000
0007FC0000
0007FC0000
0003FC0000
0003F80000
0003F80000
0003F80000
0003F00000
0003F00000
0007F00000
0007E00000
000FE00000
000FE00000
001FC00000
001FC00000
003F800000
00FF800000
3FFF000000
3FFE000000
3FFC000000
3FF8000000
3FF0000000
1FC0000000
ENDCHAR
STARTCHAR 122
ENCODING 122
SWIDTH 2808 0
DWIDTH 39 0
BBX 33 41 3 0
BITMAP
7FFFFFFF00
7FFFFFFF00
7FFFFFFF00
7FFFFFFF00
7FFFFFFF00
7FFFFFFF00
000001FE00
000003FC00
000007F800
00000FF800
00000FF000
00001FE000
00003FC000
00007FC000
00007F8000
0000FF0000
0001FE0000
0003FC0000
0007FC0000
0007F80000
000FF00000
001FE00000
003FE00000
003FC00000
007F800000
00FF000000
01FF000000
01FE000000
03FC000000
07F8000000
0FF0000000
1FF0000000
1FE0000000
3FC0000000
7F80000000
FFFFFFFF80
FFFFFFFF80
FFFFFFFF80
FFFFFFFF80
FFFFFFFF80
FFFFFFFF80
ENDCHAR
STARTCHAR 123
ENCODING 123
SWIDTH 1872 0
DWIDTH 26 0
BBX 23 72 2 -14
BITMAP
0001FE
0007FE
000FF8
000FE0
001FE0
003FC0
003F80
007F80
007F00
007F00
007F00
007F00
00FE00
00FE00
00FE00
00FE00
00FE00
00FE00
00FE00
00FE00
00FE00
00FE00
00FE00
00FE00
00FE00
00FE00
00FE00
00FE00
01FC00
03FC00
07F800
1FF800
FFF000
FFE000
FF8000
FFE000
FFF000
1FF800
07F800
03FC00
01FC00
00FE00
00FE00
00FE00
00FE00
00FE00
00FE00
00FE00
00FE00
00FE00
00FE00
00FE00
00FE00
00FE00
00FE00
00FE00
00FE00
007F00
007F00
007F00
007F00
007F80
003F80
003FC0
001FC0
000FE0
000FF8
0007FE
0001FE
0000FE
00003C
00000C
ENDCHAR
STARTCHAR 124
ENCODING 124
SWIDTH 1368 0
DWIDTH 19 0
BBX 5 65 7 -10
BITMAP
F8
F8
F8
F8
F8
F8
F8
F8
F8
F8
F8
F8
F8
F8
F8
F8
F8
F8
F8
F8
F8
F8
F8
F8
F8
F8
F8
F8
F8
F8
F8
F8
F8
F8
F8
F8
F8
F8
F8
F8
F8
F8
F8
F8
F8
F8
F8
F8
F8
F8
F8
F8
F8
F8
F8
F8
F8
F8
F8
F8
F8
F8
F8
F8
F8
ENDCHAR
STARTCHAR 125
ENCODING 125
SWIDTH 1872 0
DWIDTH 26 0
BBX 24 72 0 -14
BITMAP
7F8000
7FC000
1FE000
0FF000
07F800
03FC00
01FC00
01FC00
00FE00
00FE00
00FE00
00FE00
00FE00
00FE00
00FF00
00FF00
00FF00
00FF00
00FF00
00FF00
00FF00
00FF00
00FF00
00FF00
007F00
007F00
007F00
007F00
007F80
003F80
001FC0
001FF0
000FFF
0007FF
0001FF
0003FF
000FFF
001FF0
001FC0
003F80
003F80
007F00
007F00
007F00
007F00
00FF00
00FF00
00FF00
00FF00
00FF00
00FF00
00FF00
00FF00
00FF00
00FF00
00FE00
00FE00
00FE00
00FE00
00FE00
00FE00
01FC00
01FC00
03FC00
07F800
0FF000
1FE000
7FC000
FF8000
7F0000
7C0000
200000
ENDCHAR
STARTCHAR 126
ENCODING 126
SWIDTH 3816 0
DWIDTH 53 0
BBX 43 15 5 16
BITMAP
007F00000000
03FFC00007E0
07FFF00007E0
0FFFF80007E0
1FFFFE0007E0
3FFFFF000FC0
3FC1FF800FC0
7F007FC01FC0
7E003FF07F80
FE001FFFFF80
FC000FFFFF00
FC0007FFFE00
FC0001FFFC00
FC0000FFF000
0000001FC000
ENDCHAR
STARTCHAR 127
ENCODING 127
SWIDTH 72 0
DWIDTH 1 0
BBX 0 0 0 0
BITMAP
ENDCHAR
STARTCHAR 128
ENCODING 128
SWIDTH 3168 0
DWIDTH 44 0
BBX 19 6 13 20
BITMAP
FFFFE0
FFFFE0
FFFFE0
FFFFE0
FFFFE0
FFFFE0
ENDCHAR
STARTCHAR 129
ENCODING 129
SWIDTH 72 0
DWIDTH 1 0
BBX 0 0 0 0
BITMAP
ENDCHAR
STARTCHAR 130
ENCODING 130
SWIDTH 72 0
DWIDTH 1 0
BBX 0 0 0 0
BITMAP
ENDCHAR
STARTCHAR 131
ENCODING 131
SWIDTH 72 0
DWIDTH 1 0
BBX 0 0 0 0
BITMAP
ENDCHAR
STARTCHAR 132
ENCODING 132
SWIDTH 72 0
DWIDTH 1 0
BBX 0 0 0 0
BITMAP
ENDCHAR
STARTCHAR 133
ENCODING 133
SWIDTH 72 0
DWIDTH 1 0
BBX 0 0 0 0
BITMAP
ENDCHAR
STARTCHAR 134
ENCODING 134
SWIDTH 72 0
DWIDTH 1 0
BBX 0 0 0 0
BITMAP
ENDCHAR
STARTCHAR 135
ENCODING 135
SWIDTH 72 0
DWIDTH 1 0
BBX 0 0 0 0
BITMAP
ENDCHAR
STARTCHAR 136
ENCODING 136
SWIDTH 72 0
DWIDTH 1 0
BBX 0 0 0 0
BITMAP
ENDCHAR
STARTCHAR 137
ENCODING 137
SWIDTH 72 0
DWIDTH 1 0
BBX 0 0 0 0
BITMAP
ENDCHAR
STARTCHAR 138
ENCODING 138
SWIDTH 72 0
DWIDTH 1 0
BBX 0 0 0 0
BITMAP
ENDCHAR
STARTCHAR 139
ENCODING 139
SWIDTH 72 0
DWIDTH 1 0
BBX 0 0 0 0
BITMAP
ENDCHAR
STARTCHAR 140
ENCODING 140
SWIDTH 72 0
DWIDTH 1 0
BBX 0 0 0 0
BITMAP
ENDCHAR
STARTCHAR 141
ENCODING 141
SWIDTH 72 0
DWIDTH 1 0
BBX 0 0 0 0
BITMAP
ENDCHAR
STARTCHAR 142
ENCODING 142
SWIDTH 72 0
DWIDTH 1 0
BBX 0 0 0 0
BITMAP
ENDCHAR
STARTCHAR 143
ENCODING 143
SWIDTH 72 0
DWIDTH 1 0
BBX 0 0 0 0
BITMAP
ENDCHAR
STARTCHAR 144
ENCODING 144
SWIDTH 72 0
DWIDTH 1 0
BBX 0 0 0 0
BITMAP
ENDCHAR
STARTCHAR 145
ENCODING 145
SWIDTH 72 0
DWIDTH 1 0
BBX 0 0 0 0
BITMAP
ENDCHAR
STARTCHAR 146
ENCODING 146
SWIDTH 72 0
DWIDTH 1 0
BBX 0 0 0 0
BITMAP
ENDCHAR
STARTCHAR 147
ENCODING 147
SWIDTH 72 0
DWIDTH 1 0
BBX 0 0 0 0
BITMAP
ENDCHAR
STARTCHAR 148
ENCODING 148
SWIDTH 72 0
DWIDTH 1 0
BBX 0 0 0 0
BITMAP
ENDCHAR
STARTCHAR 149
ENCODING 149
SWIDTH 72 0
DWIDTH 1 0
BBX 0 0 0 0
BITMAP
ENDCHAR
STARTCHAR 150
ENCODING 150
SWIDTH 72 0
DWIDTH 1 0
BBX 0 0 0 0
BITMAP
ENDCHAR
STARTCHAR 151
ENCODING 151
SWIDTH 72 0
DWIDTH 1 0
BBX 0 0 0 0
BITMAP
ENDCHAR
STARTCHAR 152
ENCODING 152
SWIDTH 72 0
DWIDTH 1 0
BBX 0 0 0 0
BITMAP
ENDCHAR
STARTCHAR 153
ENCODING 153
SWIDTH 72 0
DWIDTH 1 0
BBX 0 0 0 0
BITMAP
ENDCHAR
STARTCHAR 154
ENCODING 154
SWIDTH 72 0
DWIDTH 1 0
BBX 0 0 0 0
BITMAP
ENDCHAR
STARTCHAR 155
ENCODING 155
SWIDTH 72 0
DWIDTH 1 0
BBX 0 0 0 0
BITMAP
ENDCHAR
STARTCHAR 156
ENCODING 156
SWIDTH 72 0
DWIDTH 1 0
BBX 0 0 0 0
BITMAP
ENDCHAR
STARTCHAR 157
ENCODING 157
SWIDTH 72 0
DWIDTH 1 0
BBX 0 0 0 0
BITMAP
ENDCHAR
STARTCHAR 158
ENCODING 158
SWIDTH 72 0
DWIDTH 1 0
BBX 0 0 0 0
BITMAP
ENDCHAR
STARTCHAR 159
ENCODING 159
SWIDTH 72 0
DWIDTH 1 0
BBX 0 0 0 0
BITMAP
ENDCHAR
STARTCHAR 160
ENCODING 160
SWIDTH 1368 0
DWIDTH 19 0
BBX 0 0 0 0
BITMAP
ENDCHAR
STARTCHAR 161
ENCODING 161
SWIDTH 1368 0
DWIDTH 19 0
BBX 9 56 5 -14
BITMAP
3E00
7F00
7F00
FF80
FF80
7F00
7F00
3E00
0000
0000
0000
0000
0000
0000
0000
0000
7F00
7F00
7F00
7F00
7F00
7F00
7F00
7F00
7F00
7F00
7F00
7F00
7F00
7F00
7F00
7F00
7F00
7F00
7F00
7F00
7F00
7F00
7F00
7F00
7F00
7F00
7F00
7F00
7F00
7F00
7F00
7F00
7F00
7F00
7F00
7F00
7F00
7F00
7F00
7F00
ENDCHAR
STARTCHAR 162
ENCODING 162
SWIDTH 3096 0
DWIDTH 43 0
BBX 35 60 4 -9
BITMAP
0001FC0000
0001FC0000
0001FC0000
0001FC0000
0001FC0000
0001FC0000
0001FC0000
0001FC0000
0001FC0000
0007FF0000
003FFFE000
00FFFFF000
01FFFFFC00
03FFFFFE00
07FFFFFF00
0FFE03FF00
0FF800FF80
1FE0007F80
3FC0003FC0
3FC0001FC0
3F80001FC0
7F80000FE0
7F00000FE0
7F00000FE0
7F00000000
FF00000000
FE00000000
FE00000000
FE00000000
FE00000000
FE00000000
FE00000000
FE00000000
FE00000000
FE00000000
7F00000000
7F00000000
7F00000000
7F80000FE0
3F80000FE0
3FC0001FC0
3FC0001FC0
1FE0003FC0
1FF800FF80
0FFE03FF00
07FFFFFF00
03FFFFFE00
01FFFFF800
00FFFFF000
003FFFC000
000FFF0000
0001FC0000
0001FC0000
0001FC0000
0001FC0000
0001FC0000
0001FC0000
0001FC0000
0001FC0000
0001FC0000
ENDCHAR
STARTCHAR 163
ENCODING 163
SWIDTH 3240 0
DWIDTH 45 0
BBX 40 56 3 0
BITMAP
00003FF000
0001FFFE00
0007FFFF80
000FFFFFC0
001FFFFFE0
003FFFFFF0
007FE03FF0
00FF800FF8
00FF0007FC
01FE0003FC
01FE0003FC
01FC0001FC
03FC0001FE
03FC0001FE
03FC0001FE
03F8000000
03F8000000
03F8000000
03F8000000
03FC000000
03FC000000
03FC000000
03FC000000
03FC000000
03FC000000
03FC000000
FFFFFFC000
FFFFFFC000
FFFFFFC000
FFFFFFC000
FFFFFFC000
FFFFFFC000
01FC000000
01FC000000
01FC000000
01FC000000
01FC000000
01FC000000
01FC000000
01FC000000
01FC000000
01FC000000
01FC000000
01FC000000
01FC000000
03FC000000
03F8000000
03F8000000
07F8000000
0FF0000000
FFFFFFFFFF
FFFFFFFFFF
FFFFFFFFFF
FFFFFFFFFF
FFFFFFFFFF
FFFFFFFFFF
ENDCHAR
STARTCHAR 164
ENCODING 164
SWIDTH 4032 0
DWIDTH 56 0
BBX 48 49 4 -1
BITMAP
040000000010
0E000FF80038
1F00FFFF007C
3F83FFFFC0FE
7FCFFFFFF1FF
FFFFFFFFFFFF
3FFFFFFFFFFE
1FFFF00FFFFC
0FFFC001FFF8
0FFF0000FFF0
07FE00003FE0
07FC00001FE0
07F800000FF0
0FF0000007F0
0FE0000007F8
1FC0000003F8
1FC0000003F8
1F80000001FC
3F80000001FC
3F80000001FC
3F80000000FC
3F00000000FE
3F00000000FE
3F00000000FE
3F00000000FE
3F00000000FE
3F00000000FE
3F00000000FE
3F00000000FE
3F80000000FC
3F80000001FC
3F80000001FC
1FC0000001FC
1FC0000003F8
1FC0000003F8
0FE0000007F8
0FF0000007F0
07F800000FF0
07FC00001FE0
07FE00003FF0
0FFF0000FFF8
1FFFC001FFFC
3FFFF80FFFFE
7FFFFFFFFFFF
FFDFFFFFF9FF
3F8FFFFFF0FE
1F03FFFFE07C
1E00FFFF0038
0C001FF80010
ENDCHAR
STARTCHAR 165
ENCODING 165
SWIDTH 2952 0
DWIDTH 41 0
BBX 39 55 1 0
BITMAP
FF000001FE
FF800001FE
7F800003FC
7F800003FC
3FC00007F8
3FC00007F8
1FE0000FF0
1FE0000FF0
0FF0001FE0
07F0001FC0
07F8003FC0
03F8003F80
03FC007F80
01FC007F00
01FE00FF00
00FE00FE00
00FF00FE00
007F01FC00
007F81FC00
003F83F800
003F83F800
001FC7F000
001FC7F000
000FEFE000
000FEFE000
0007FFC000
0007FFC000
0FFFFFFFE0
0FFFFFFFE0
0FFFFFFFE0
0FFFFFFFE0
0FFFFFFFE0
0000FE0000
0000FE0000
0000FE0000
0000FE0000
0000FE0000
0000FE0000
0FFFFFFFE0
0FFFFFFFE0
0FFFFFFFE0
0FFFFFFFE0
0FFFFFFFE0
0000FE0000
0000FE0000
0000FE0000
0000FE0000
0000FE0000
0000FE0000
0000FE0000
0000FE0000
0000FE0000
0000FE0000
0000FE0000
0000FE0000
ENDCHAR
STARTCHAR 166
ENCODING 166
SWIDTH 1368 0
DWIDTH 19 0
BBX 7 65 6 -10
BITMAP
FE
FE
FE
FE
FE
FE
FE
FE
FE
FE
FE
FE
FE
FE
FE
FE
FE
FE
FE
FE
FE
FE
FE
FE
FE
FE
FE
FE
00
00
00
00
00
00
00
FE
FE
FE
FE
FE
FE
FE
FE
FE
FE
FE
FE
FE
FE
FE
FE
FE
FE
FE
FE
FE
FE
FE
FE
FE
FE
FE
FE
FE
FE
ENDCHAR
STARTCHAR 167
ENCODING 167
SWIDTH 3456 0
DWIDTH 48 0
BBX 41 75 3 -19
BITMAP
0001FFE00000
000FFFFC0000
003FFFFF0000
00FFFFFFC000
01FFFFFFE000
03FFFFFFF000
07FF807FF800
0FFC000FFC00
0FF00007FC00
1FE00003FE00
1FC00001FE00
1FC00000FE00
1FC00000FE00
3FC00000FF00
3FC000007F00
3FC000007F00
1FC000000000
1FC000000000
1FE000000000
1FF000000000
0FFC00000000
0FFF00000000
07FFE0000000
03FFFC000000
01FFFFC00000
03FFFFF80000
07FFFFFE0000
0FFFFFFF8000
1FF1FFFFE000
3FC03FFFF000
3F8007FFF800
7F8000FFFC00
7F00001FFE00
7F000007FE00
7F000001FF00
7F000000FF00
7F0000007F00
7F0000007F80
7F0000007F80
7F8000003F80
3FC000003F80
3FE000003F80
1FF000007F00
1FFE00007F00
0FFF8000FF00
07FFF000FE00
03FFFF03FE00
00FFFFEFFC00
003FFFFFF800
000FFFFFE000
0001FFFFC000
00001FFFE000
000003FFF000
0000007FF800
0000001FF800
00000007FC00
00000003FC00
00000001FE00
00000001FE00
FF000000FE00
7F000000FE00
7F000000FE00
7F000000FE00
7F800001FE00
7F800001FE00
3FC00003FC00
3FE00007FC00
1FF8000FF800
0FFF007FF800
0FFFFFFFF000
03FFFFFFE000
01FFFFFFC000
007FFFFF0000
001FFFFC0000
0001FFC00000
ENDCHAR
STARTCHAR 168
ENCODING 168
SWIDTH 2376 0
DWIDTH 33 0
BBX 25 8 4 48
BITMAP
3C003E00
7E007F00
FF00FF80
FF00FF80
FF00FF80
FF00FF80
7E007F00
3C003E00
ENDCHAR
STARTCHAR 169
ENCODING 169
SWIDTH 4392 0
DWIDTH 61 0
BBX 54 57 3 -1
BITMAP
000003FF800000
00001FFFF00000
0000FFFFFE0000
0003FFFFFF0000
0007FFFFFFC000
001FFE00FFE000
003FE0001FF800
007F800003FC00
00FE000001FE00
01FC0000007F00
03F80000003F00
03F00000001F80
07E001FE000FC0
0FC00FFFC007C0
0F801FFFF003E0
1F003FFFF803E0
1F007FFFFC01F0
3E00FF03FC01F0
3E01FC00FE00F8
3C01F8007E00F8
7C01F8007E0078
7C03F0003E007C
7803F0003E007C
7803E0003F007C
7803E00000003C
F803E00000003C
F803E00000003C
F803E00000003C
F803E00000003C
F803E00000003C
F803E00000003C
F803E00000003C
7803E00000003C
7803E0003E007C
7803F0003E007C
7C03F0003E007C
7C01F8007E0078
3C01F8007E00F8
3E01FC00FE00F8
3E00FF03FC01F0
1F007FFFFC01F0
1F003FFFF803E0
0F801FFFF003E0
0FC00FFFC007C0
07E001FE000FC0
03F00000001F80
03F80000003F00
01FC0000007F00
00FE000001FE00
007F800003FC00
003FE0001FF800
001FFE00FFE000
0007FFFFFFC000
0003FFFFFF0000
0000FFFFFE0000
00001FFFF00000
000003FF800000
ENDCHAR
STARTCHAR 170
ENCODING 170
SWIDTH 2520 0
DWIDTH 35 0
BBX 24 30 6 26
BITMAP
00FF00
07FFC0
1FFFF0
3FFFF8
7FFFF8
7F83FC
FE00FC
FE00FE
FC007E
00007E
00007E
00007E
01FFFE
0FFFFE
1FFFFE
3FFFFE
7FFFFE
FF807E
FE007E
FC007E
FC007E
FC007E
FC007E
FE01FE
FF07FE
7FFFFE
7FFFFE
3FFF7E
1FFE7F
03F800
ENDCHAR
STARTCHAR 171
ENCODING 171
SWIDTH 2664 0
DWIDTH 37 0
BBX 30 30 3 6
BITMAP
001F80FC
003F00F8
007E01F0
007E03F0
00FC07E0
01F80FE0
03F80FC0
03F01F80
07E03F80
0FE07F00
1FC07E00
1F80FE00
3F81FC00
7F03F800
FE03F800
FE07F800
7F03F800
3F81FC00
1F80FE00
1FC07E00
0FE07F00
07E03F80
03F01F80
03F80FC0
01F80FE0
00FC07E0
007E03F0
007E01F0
003F00F8
001F80FC
ENDCHAR
STARTCHAR 172
ENCODING 172
SWIDTH 3096 0
DWIDTH 43 0
BBX 31 16 5 14
BITMAP
FFFFFFFE
FFFFFFFE
FFFFFFFE
FFFFFFFE
FFFFFFFE
FFFFFFFE
000000FE
000000FE
000000FE
000000FE
000000FE
000000FE
000000FE
000000FE
000000FE
000000FE
ENDCHAR
STARTCHAR 173
ENCODING 173
SWIDTH 1584 0
DWIDTH 22 0
BBX 19 6 1 20
BITMAP
FFFFE0
FFFFE0
FFFFE0
FFFFE0
FFFFE0
FFFFE0
ENDCHAR
STARTCHAR 174
ENCODING 174
SWIDTH 4392 0
DWIDTH 61 0
BBX 54 57 3 -1
BITMAP
000003FF800000
00001FFFF00000
0000FFFFFE0000
0003FFFFFF0000
0007FFFFFFC000
001FFE00FFE000
003FE0001FF800
007F800003FC00
00FE000001FE00
01FC0000007F00
03F80000003F00
07F00000001F80
07E0FFFF000FC0
0FC0FFFFC007C0
0F80FFFFF003E0
1F00FFFFF803E0
1F00FFFFFC01F0
3E00FC01FC01F0
3E00FC007E00F8
3C00FC007E00F8
7C00FC003E0078
7C00FC003E007C
7800FC003E007C
7800FC007E007C
F800FC00FC003C
F800FC01FC003C
F800FFFFF8003C
F800FFFFF0003C
F800FFFFC0003C
F800FFFFF0003C
F800FFFFF8003C
F800FC01FC003C
7800FC00FC003C
7800FC007E007C
7800FC007E007C
7C00FC007E007C
7C00FC007E0078
3C00FC007E00F8
3E00FC007E00F8
3E00FC003E01F0
1F00FC003E01F0
1F00FC003E03E0
0F80FC003E03E0
0FC0FC003F07C0
07E00000000FC0
07F00000001F80
03F80000003F00
01FC0000007F00
00FE000001FE00
007F800003FC00
003FE0001FF800
001FFE00FFE000
0007FFFFFFC000
0003FFFFFF0000
0000FFFFFC0000
00003FFFF00000
000003FF000000
ENDCHAR
STARTCHAR 175
ENCODING 175
SWIDTH 2592 0
DWIDTH 36 0
BBX 26 5 5 50
BITMAP
FFFFFFC0
FFFFFFC0
FFFFFFC0
FFFFFFC0
FFFFFFC0
ENDCHAR
STARTCHAR 176
ENCODING 176
SWIDTH 2088 0
DWIDTH 29 0
BBX 19 20 5 36
BITMAP
03F800
0FFE00
1FFF00
3FFF80
7FFFC0
7E0FC0
FC07E0
F803E0
F803E0
F803E0
F803E0
F803E0
F803E0
FC07E0
7E0FC0
7FFFC0
3FFF80
1FFF00
0FFE00
03F800
ENDCHAR
STARTCHAR 177
ENCODING 177
SWIDTH 3024 0
DWIDTH 42 0
BBX 35 49 4 0
BITMAP
0003F80000
0003F80000
0003F80000
0003F80000
0003F80000
0003F80000
0003F80000
0003F80000
0003F80000
0003F80000
0003F80000
0003F80000
0003F80000
0003F80000
0003F80000
0003F80000
FFFFFFFFE0
FFFFFFFFE0
FFFFFFFFE0
FFFFFFFFE0
FFFFFFFFE0
FFFFFFFFE0
0003F80000
0003F80000
0003F80000
0003F80000
0003F80000
0003F80000
0003F80000
0003F80000
0003F80000
0003F80000
0003F80000
0003F80000
0003F80000
0003F80000
0003F80000
0003F80000
0000000000
0000000000
0000000000
0000000000
0000000000
7FFFFFFF80
7FFFFFFF80
7FFFFFFF80
7FFFFFFF80
7FFFFFFF80
7FFFFFFF80
ENDCHAR
STARTCHAR 178
ENCODING 178
SWIDTH 2088 0
DWIDTH 29 0
BBX 23 31 3 25
BITMAP
01FE00
07FFC0
1FFFE0
3FFFF0
7FFFF8
7F03F8
FE01FC
FC00FC
FC00FC
FC00FC
0000FC
0001FC
0001F8
0003F8
0007F0
000FE0
001FE0
003FC0
007F80
00FF00
01FE00
03F800
07F000
0FE000
1FC000
3F8000
7FFFFE
FFFFFE
FFFFFE
FFFFFE
FFFFFE
ENDCHAR
STARTCHAR 179
ENCODING 179
SWIDTH 2088 0
DWIDTH 29 0
BBX 23 31 3 25
BITMAP
01FE00
0FFFC0
1FFFE0
3FFFF0
7FFFF8
7F03F8
FE01FC
FC00FC
0000FC
0000FC
0000FC
0001F8
0003F8
01FFF0
01FFE0
01FF80
01FFF0
01FFF8
0003FC
0000FC
0000FC
00007E
FC007E
FC00FC
FE00FC
FF03FC
7FFFF8
7FFFF8
1FFFF0
0FFFC0
01FE00
ENDCHAR
STARTCHAR 180
ENCODING 180
SWIDTH 1728 0
DWIDTH 24 0
BBX 16 11 5 47
BITMAP
01FF
03FC
07F8
07F0
0FE0
1FC0
3FC0
3F80
7F00
FE00
FC00
ENDCHAR
STARTCHAR 181
ENCODING 181
SWIDTH 3168 0
DWIDTH 44 0
BBX 32 57 6 -16
BITMAP
FE00007F
FE00007F
FE00007F
FE00007F
FE00007F
FE00007F
FE00007F
FE00007F
FE00007F
FE00007F
FE00007F
FE00007F
FE00007F
FE00007F
FE00007F
FE00007F
FE00007F
FE00007F
FE00007F
FE00007F
FE00007F
FE00007F
FE00007F
FE00007F
FE00007F
FE00007F
FE00007F
FE00007F
FE00007F
FE00007F
FF00007F
FF0000FF
FF0000FF
FF8001FF
FFC003FF
FFF01FFF
FFFFFFFF
FFFFFFBF
FFFFFF3F
FFFFFE3F
FE7FFC3F
FE1FE000
FE000000
FE000000
FE000000
FE000000
FE000000
FE000000
FE000000
FE000000
FE000000
FE000000
FE000000
FE000000
FE000000
FE000000
FE000000
ENDCHAR
STARTCHAR 182
ENCODING 182
SWIDTH 2736 0
DWIDTH 38 0
BBX 30 55 2 0
BITMAP
0003FFFC
001FFFFC
007FFFFC
01FFFFFC
03FFFFFC
07FFFFFC
0FFFFFFC
1FFFFFFC
1FFFFFFC
3FFFFFFC
3FFFFFFC
7FFFFFFC
7FFFFFFC
7FFFFFFC
7FFFFFFC
7FFFFFFC
FFFFFFFC
FFFFFFFC
FFFFFFFC
7FFFFFFC
7FFFFFFC
7FFFFFFC
7FFFFFFC
7FFFFFFC
3FFFFFFC
3FFFFFFC
3FFFFFFC
1FFFFFFC
0FFFFFFC
0FFFFFFC
07FFFFFC
01FFFFFC
00FFFFFC
003FFFFC
000FFFFC
000001FC
000001FC
000001FC
000001FC
000001FC
000001FC
000001FC
000001FC
000001FC
000001FC
000001FC
000001FC
000001FC
000001FC
000001FC
000001FC
000001FC
000001FC
000001FC
000001FC
ENDCHAR
STARTCHAR 183
ENCODING 183
SWIDTH 1440 0
DWIDTH 20 0
BBX 9 8 5 24
BITMAP
3E00
7F00
FF80
FF80
FF80
FF80
7F00
3E00
ENDCHAR
STARTCHAR 184
ENCODING 184
SWIDTH 1368 0
DWIDTH 19 0
BBX 12 17 4 -17
BITMAP
3E00
7C00
7F00
7FC0
7FE0
9FE0
07F0
03F0
01F0
01F0
03F0
07F0
0FE0
FFC0
FF80
FF00
F800
ENDCHAR
STARTCHAR 185
ENCODING 185
SWIDTH 2088 0
DWIDTH 29 0
BBX 14 30 5 25
BITMAP
000C
00FC
07FC
7FFC
FFFC
FFFC
FFFC
FCFC
C0FC
00FC
00FC
00FC
00FC
00FC
00FC
00FC
00FC
00FC
00FC
00FC
00FC
00FC
00FC
00FC
00FC
00FC
00FC
00FC
00FC
00FC
ENDCHAR
STARTCHAR 186
ENCODING 186
SWIDTH 2520 0
DWIDTH 35 0
BBX 27 30 4 26
BITMAP
007FC000
01FFF000
07FFFC00
0FFFFE00
1FFFFF00
1FE0FF00
3F803F80
7F001F80
7F001FC0
7E000FC0
7E000FC0
FE000FC0
FE000FC0
FE000FC0
FE000FE0
FE000FE0
FE000FE0
FE000FC0
7E000FC0
7E000FC0
7E000FC0
7F001FC0
3F001F80
3F803F80
1FE0FF00
1FFFFF00
0FFFFE00
07FFFC00
01FFF000
007F8000
ENDCHAR
STARTCHAR 187
ENCODING 187
SWIDTH 2664 0
DWIDTH 37 0
BBX 30 30 4 6
BITMAP
FC07E000
7C03F000
3E01F800
3F01F800
1F80FC00
1FC07E00
0FC07F00
07E03F00
07F01F80
03F81FC0
01F80FE0
01FC07E0
00FE07F0
007F03F8
007F01FC
007F81FC
007F03F8
00FE07F0
01FC07E0
01F80FE0
03F81FC0
07F01F80
07E03F00
0FC07F00
1FC07E00
1F80FC00
3F01F800
3E01F800
7C03F000
FC07E000
ENDCHAR
STARTCHAR 188
ENCODING 188
SWIDTH 4104 0
DWIDTH 57 0
BBX 51 55 3 0
BITMAP
000C0000000000
007C0000000000
07FC0000000000
3FFC0000000000
FFFC0000000000
FFFC0000040000
FFFC00000E0000
FCFC00001F8000
C0FC00001F0000
00FC00003F0000
00FC00003E0000
00FC00007C0000
00FC0000FC0000
00FC0000F80000
00FC0001F80000
00FC0003F00000
00FC0003E00000
00FC0007E00000
00FC0007C00000
00FC000FC00000
00FC001F800000
00FC001F000000
00FC003F000000
00FC007E000000
00FC007C000000
00FC00FC007E00
00FC00F800FE00
00FC01F801FE00
00FC03F001FE00
00FC03E003FE00
000007E007FE00
00000FC00FFE00
00000F800FFE00
00001F801FFE00
00001F003F7E00
00003F003E7E00
00007E007C7E00
00007C00FC7E00
0000FC01F87E00
0001F801F07E00
0001F003E07E00
0003F007E07E00
0003E007C07E00
0007E00F807E00
000FC01FFFFFE0
000F801FFFFFE0
001F801FFFFFE0
001F001FFFFFE0
003E001FFFFFE0
001E0000007E00
00040000007E00
00000000007E00
00000000007E00
00000000007E00
00000000007E00
ENDCHAR
STARTCHAR 189
ENCODING 189
SWIDTH 4392 0
DWIDTH 61 0
BBX 54 55 3 0
BITMAP
000C0000000000
00FC0000000000
07FC0000000000
3FFC0000000000
FFFC0000000000
FFFC0000100000
FFFC00003C0000
FCFC00003E0000
C0FC00007E0000
00FC0000FC0000
00FC0000F80000
00FC0001F80000
00FC0001F00000
00FC0003F00000
00FC0007E00000
00FC0007C00000
00FC000FC00000
00FC000F800000
00FC001F000000
00FC003F000000
00FC003E000000
00FC007E000000
00FC00FC000000
00FC00F8000000
00FC01F8000000
00FC01F003FC00
00FC03E01FFF00
00FC07E03FFFC0
00FC07C07FFFE0
00FC0FC0FFFFE0
00001F81FE0FF0
00001F01F803F0
00003F03F803F0
00003E03F003F0
00007C03F003F0
0000FC000003F0
0000F8000003F0
0001F8000007E0
0003F000000FE0
0003E000001FC0
0007E000003F80
0007C000007F80
000F800000FE00
001F800001FC00
001F000003F800
003F00000FF000
007E00001FE000
007C00003FC000
00FC00007F0000
00380000FE0000
00180001FFFFFC
00000001FFFFFC
00000001FFFFFC
00000001FFFFFC
00000001FFFFFC
ENDCHAR
STARTCHAR 190
ENCODING 190
SWIDTH 4392 0
DWIDTH 61 0
BBX 54 55 4 0
BITMAP
01FF0000000000
07FFE000000000
1FFFF000000000
3FFFF800000000
3FFFFC00000000
7F81FC0000C000
7E00FE0000E000
7E007E0001F800
00007E0001F000
00007E0003F000
0000FC0007E000
0003FC0007C000
00FFF8000FC000
00FFE0000F8000
00FFC0001F0000
00FFF0003F0000
00FFF8003E0000
0001FC007E0000
0000FE00FC0000
00007E00F80000
00007E01F80000
FC007E01F00000
FC007E03E00000
FE00FE07E00000
7F81FE07C00000
7FFFFC0FC01FC0
3FFFF81F803FC0
1FFFF01F003FC0
07FFE03F007FC0
01FF003E00FFC0
0000007C00FFC0
000000FC01FFC0
000000F803FFC0
000001F807EFC0
000003F007EFC0
000003E00FCFC0
000007E01F8FC0
000007C01F0FC0
00000FC03E0FC0
00001F807E0FC0
00001F00FC0FC0
00003F00F80FC0
00007E01F00FC0
00007C03F00FC0
0000FC03FFFFFC
0000F807FFFFFC
0001F807FFFFFC
0003F007FFFFFC
0003E007FFFFFC
0001E000000FC0
00004000000FC0
00000000000FC0
00000000000FC0
00000000000FC0
00000000000FC0
ENDCHAR
STARTCHAR 191
ENCODING 191
SWIDTH 2664 0
DWIDTH 37 0
BBX 31 57 3 -15
BITMAP
0007C000
000FE000
000FF000
001FF000
001FF000
000FF000
000FE000
0007C000
00000000
00000000
00000000
00000000
00000000
00000000
00000000
00000000
000FE000
000FE000
000FE000
000FE000
000FE000
000FE000
001FE000
001FC000
003FC000
007F8000
00FF8000
01FF0000
03FE0000
07FC0000
0FF80000
0FF00000
1FF00000
3FE00000
3FC00000
7F800000
7F000000
FF000000
FE000000
FE000000
FE000000
FE000000
FE000000
FE0000FE
FE0000FE
FE0001FE
FE0001FC
FF0001FC
7F8003FC
7FC007F8
3FF01FF8
3FFFFFF0
1FFFFFE0
0FFFFFC0
07FFFF80
01FFFE00
003FF000
ENDCHAR
STARTCHAR 192
ENCODING 192
SWIDTH 3672 0
DWIDTH 51 0
BBX 49 64 1 0
BITMAP
000001F8000000
000003F8000000
000003F0000000
000007E0000000
00000000000000
00000000000000
00000000000000
00000000000000
00000000000000
000007F0000000
000007F0000000
00000FF8000000
00000FF8000000
00000FF8000000
00001FFC000000
00001FFC000000
00003FFE000000
00003FFE000000
00003F7E000000
00007F7F000000
00007F7F000000
0000FE3F800000
0000FE3F800000
0000FE1F800000
0001FC1FC00000
0001FC1FC00000
0001F80FC00000
0003F80FE00000
0003F80FE00000
0007F007F00000
0007F007F00000
0007F007F00000
000FE003F80000
000FE003F80000
001FE003FC0000
001FC001FC0000
001FC001FC0000
003F8000FE0000
003F8000FE0000
003F8000FE0000
007F00007F0000
007F00007F0000
00FF00007F8000
00FE00003F8000
00FFFFFFFF8000
01FFFFFFFFC000
01FFFFFFFFC000
03FFFFFFFFE000
03FFFFFFFFE000
03FFFFFFFFE000
07F800000FF000
07F0000007F000
07F0000007F000
0FF0000007F800
0FE0000003F800
1FE0000003FC00
1FC0000001FC00
1FC0000001FC00
3FC0000001FE00
3F80000000FE00
7F80000000FF00
7F80000000FF00
7F000000007F00
FF000000007F80
ENDCHAR
STARTCHAR 193
ENCODING 193
SWIDTH 3672 0
DWIDTH 51 0
BBX 49 55 1 0
BITMAP
000007F0000000
000007F0000000
00000FF8000000
00000FF8000000
00000FF8000000
00001FFC000000
00001FFC000000
00003FFE000000
00003FFE000000
00003F7E000000
00007F7F000000
00007F7F000000
0000FE3F800000
0000FE3F800000
0000FE1F800000
0001FC1FC00000
0001FC1FC00000
0001F80FC00000
0003F80FE00000
0003F80FE00000
0007F007F00000
0007F007F00000
0007F007F00000
000FE003F80000
000FE003F80000
001FE003FC0000
001FC001FC0000
001FC001FC0000
003F8000FE0000
003F8000FE0000
003F8000FE0000
007F00007F0000
007F00007F0000
00FF00007F8000
00FE00003F8000
00FFFFFFFF8000
01FFFFFFFFC000
01FFFFFFFFC000
03FFFFFFFFE000
03FFFFFFFFE000
03FFFFFFFFE000
07F800000FF000
07F0000007F000
07F0000007F000
0FF0000007F800
0FE0000003F800
1FE0000003FC00
1FC0000001FC00
1FC0000001FC00
3FC0000001FE00
3F80000000FE00
7F80000000FF00
7F80000000FF00
7F000000007F00
FF000000007F80
ENDCHAR
STARTCHAR 194
ENCODING 194
SWIDTH 3672 0
DWIDTH 51 0
BBX 49 55 1 0
BITMAP
000007F0000000
000007F0000000
00000FF8000000
00000FF8000000
00000FF8000000
00001FFC000000
00001FFC000000
00003FFE000000
00003FFE000000
00003F7E000000
00007F7F000000
00007F7F000000
0000FE3F800000
0000FE3F800000
0000FE1F800000
0001FC1FC00000
0001FC1FC00000
0001F80FC00000
0003F80FE00000
0003F80FE00000
0007F007F00000
0007F007F00000
0007F007F00000
000FE003F80000
000FE003F80000
001FE003FC0000
001FC001FC0000
001FC001FC0000
003F8000FE0000
003F8000FE0000
003F8000FE0000
007F00007F0000
007F00007F0000
00FF00007F8000
00FE00003F8000
00FFFFFFFF8000
01FFFFFFFFC000
01FFFFFFFFC000
03FFFFFFFFE000
03FFFFFFFFE000
03FFFFFFFFE000
07F800000FF000
07F0000007F000
07F0000007F000
0FF0000007F800
0FE0000003F800
1FE0000003FC00
1FC0000001FC00
1FC0000001FC00
3FC0000001FE00
3F80000000FE00
7F80000000FF00
7F80000000FF00
7F000000007F00
FF000000007F80
ENDCHAR
STARTCHAR 195
ENCODING 195
SWIDTH 3672 0
DWIDTH 51 0
BBX 49 55 1 0
BITMAP
000007F0000000
000007F0000000
00000FF8000000
00000FF8000000
00000FF8000000
00001FFC000000
00001FFC000000
00003FFE000000
00003FFE000000
00003F7E000000
00007F7F000000
00007F7F000000
0000FE3F800000
0000FE3F800000
0000FE1F800000
0001FC1FC00000
0001FC1FC00000
0001F80FC00000
0003F80FE00000
0003F80FE00000
0007F007F00000
0007F007F00000
0007F007F00000
000FE003F80000
000FE003F80000
001FE003FC0000
001FC001FC0000
001FC001FC0000
003F8000FE0000
003F8000FE0000
003F8000FE0000
007F00007F0000
007F00007F0000
00FF00007F8000
00FE00003F8000
00FFFFFFFF8000
01FFFFFFFFC000
01FFFFFFFFC000
03FFFFFFFFE000
03FFFFFFFFE000
03FFFFFFFFE000
07F800000FF000
07F0000007F000
07F0000007F000
0FF0000007F800
0FE0000003F800
1FE0000003FC00
1FC0000001FC00
1FC0000001FC00
3FC0000001FE00
3F80000000FE00
7F80000000FF00
7F80000000FF00
7F000000007F00
FF000000007F80
ENDCHAR
STARTCHAR 196
ENCODING 196
SWIDTH 3672 0
DWIDTH 51 0
BBX 49 55 1 0
BITMAP
000007F0000000
000007F0000000
00000FF8000000
00000FF8000000
00000FF8000000
00001FFC000000
00001FFC000000
00003FFE000000
00003FFE000000
00003F7E000000
00007F7F000000
00007F7F000000
0000FE3F800000
0000FE3F800000
0000FE1F800000
0001FC1FC00000
0001FC1FC00000
0001F80FC00000
0003F80FE00000
0003F80FE00000
0007F007F00000
0007F007F00000
0007F007F00000
000FE003F80000
000FE003F80000
001FE003FC0000
001FC001FC0000
001FC001FC0000
003F8000FE0000
003F8000FE0000
003F8000FE0000
007F00007F0000
007F00007F0000
00FF00007F8000
00FE00003F8000
00FFFFFFFF8000
01FFFFFFFFC000
01FFFFFFFFC000
03FFFFFFFFE000
03FFFFFFFFE000
03FFFFFFFFE000
07F800000FF000
07F0000007F000
07F0000007F000
0FF0000007F800
0FE0000003F800
1FE0000003FC00
1FC0000001FC00
1FC0000001FC00
3FC0000001FE00
3F80000000FE00
7F80000000FF00
7F80000000FF00
7F000000007F00
FF000000007F80
ENDCHAR
STARTCHAR 197
ENCODING 197
SWIDTH 3672 0
DWIDTH 51 0
BBX 49 55 1 0
BITMAP
000007F0000000
000007F0000000
00000FF8000000
00000FF8000000
00000FF8000000
00001FFC000000
00001FFC000000
00003FFE000000
00003FFE000000
00003F7E000000
00007F7F000000
00007F7F000000
0000FE3F800000
0000FE3F800000
0000FE1F800000
0001FC1FC00000
0001FC1FC00000
0001F80FC00000
0003F80FE00000
0003F80FE00000
0007F007F00000
0007F007F00000
0007F007F00000
000FE003F80000
000FE003F80000
001FE003FC0000
001FC001FC0000
001FC001FC0000
003F8000FE0000
003F8000FE0000
003F8000FE0000
007F00007F0000
007F00007F0000
00FF00007F8000
00FE00003F8000
00FFFFFFFF8000
01FFFFFFFFC000
01FFFFFFFFC000
03FFFFFFFFE000
03FFFFFFFFE000
03FFFFFFFFE000
07F800000FF000
07F0000007F000
07F0000007F000
0FF0000007F800
0FE0000003F800
1FE0000003FC00
1FC0000001FC00
1FC0000001FC00
3FC0000001FE00
3F80000000FE00
7F80000000FF00
7F80000000FF00
7F000000007F00
FF000000007F80
ENDCHAR
STARTCHAR 198
ENCODING 198
SWIDTH 5256 0
DWIDTH 73 0
BBX 64 55 8 0
BITMAP
0000007FFFFFFFF8
000000FFFFFFFFF8
000001FFFFFFFFF8
000001FFFFFFFFF8
000003FFFFFFFFF8
000003FFFFFFFFF8
000007FFE0000000
00000FFFE0000000
00000FEFE0000000
00001FEFE0000000
00001FCFE0000000
00003FCFE0000000
00007F8FE0000000
00007F0FE0000000
0000FF0FE0000000
0000FE0FE0000000
0001FE0FE0000000
0003FC0FE0000000
0003F80FE0000000
0007F80FE0000000
000FF00FE0000000
000FF007F0000000
001FE007F0000000
001FC007F0000000
003FC007FFFFFFC0
007F8007FFFFFFC0
007F8007FFFFFFC0
00FF0007FFFFFFC0
00FF0007FFFFFFC0
01FE0007FFFFFFC0
03FC0007F0000000
03FC0007F0000000
07F80007F0000000
07F80007F0000000
0FF00007F0000000
1FFFFFFFF0000000
1FFFFFFFF0000000
3FFFFFFFF0000000
3FFFFFFFF0000000
7FFFFFFFF0000000
FFFFFFFFF0000000
FF000007F0000000
FE000007F0000000
FC000007F0000000
FC000003F8000000
F8000003F8000000
F8000003F8000000
F0000003F8000000
F0000003F8000000
E0000003FFFFFFFF
E0000003FFFFFFFF
C0000003FFFFFFFF
80000003FFFFFFFF
80000003FFFFFFFF
00000003FFFFFFFF
ENDCHAR
STARTCHAR 199
ENCODING 199
SWIDTH 3672 0
DWIDTH 51 0
BBX 42 73 5 -17
BITMAP
00007FE00000
0007FFFE0000
001FFFFF8000
003FFFFFC000
00FFFFFFF000
01FFFFFFF800
03FFC03FF800
07FE0007FC00
0FFC0003FE00
0FF00001FF00
1FE00000FF00
1FE000007F80
3FC000007F80
3F8000003F80
7F8000003FC0
7F0000003FC0
7F0000003FC0
FF0000001FC0
FF0000001FC0
FE0000000000
FE0000000000
FE0000000000
FE0000000000
FE0000000000
FE0000000000
FE0000000000
FE0000000000
FE0000000000
FE0000000000
FE0000000000
FE0000000000
FE0000000000
FE0000000000
FE0000000000
FE0000000000
FE0000000000
FE0000000000
FE0000000000
FF0000000000
FF0000001FC0
7F0000001FC0
7F0000003FC0
7F8000003FC0
3F8000003F80
3FC000007F80
3FE000007F80
1FE00000FF00
0FF00001FF00
0FF80003FE00
07FE0007FC00
03FF803FF800
01FFFFFFF000
00FFFFFFE000
007FFFFFC000
001FFFFF0000
0007FFFC0000
0000FFE00000
00003E000000
00003F800000
00003FE00000
00007FF00000
00001FF00000
000003F80000
000001F80000
000001F80000
000001F80000
000001F80000
000003F00000
00000FF00000
00007FE00000
00007FC00000
00007F800000
00007C000000
ENDCHAR
STARTCHAR 200
ENCODING 200
SWIDTH 3168 0
DWIDTH 44 0
BBX 36 55 6 0
BITMAP
FFFFFFFFE0
FFFFFFFFE0
FFFFFFFFE0
FFFFFFFFE0
FFFFFFFFE0
FFFFFFFFE0
FF00000000
FF00000000
FF00000000
FF00000000
FF00000000
FF00000000
FF00000000
FF00000000
FF00000000
FF00000000
FF00000000
FF00000000
FF00000000
FF00000000
FF00000000
FF00000000
FF00000000
FF00000000
FFFFFFFF00
FFFFFFFF00
FFFFFFFF00
FFFFFFFF00
FFFFFFFF00
FFFFFFFF00
FF00000000
FF00000000
FF00000000
FF00000000
FF00000000
FF00000000
FF00000000
FF00000000
FF00000000
FF00000000
FF00000000
FF00000000
FF00000000
FF00000000
FF00000000
FF00000000
FF00000000
FF00000000
FF00000000
FFFFFFFFF0
FFFFFFFFF0
FFFFFFFFF0
FFFFFFFFF0
FFFFFFFFF0
FFFFFFFFF0
ENDCHAR
STARTCHAR 201
ENCODING 201
SWIDTH 3168 0
DWIDTH 44 0
BBX 36 55 6 0
BITMAP
FFFFFFFFE0
FFFFFFFFE0
FFFFFFFFE0
FFFFFFFFE0
FFFFFFFFE0
FFFFFFFFE0
FF00000000
FF00000000
FF00000000
FF00000000
FF00000000
FF00000000
FF00000000
FF00000000
FF00000000
FF00000000
FF00000000
FF00000000
FF00000000
FF00000000
FF00000000
FF00000000
FF00000000
FF00000000
FFFFFFFF00
FFFFFFFF00
FFFFFFFF00
FFFFFFFF00
FFFFFFFF00
FFFFFFFF00
FF00000000
FF00000000
FF00000000
FF00000000
FF00000000
FF00000000
FF00000000
FF00000000
FF00000000
FF00000000
FF00000000
FF00000000
FF00000000
FF00000000
FF00000000
FF00000000
FF00000000
FF00000000
FF00000000
FFFFFFFFF0
FFFFFFFFF0
FFFFFFFFF0
FFFFFFFFF0
FFFFFFFFF0
FFFFFFFFF0
ENDCHAR
STARTCHAR 202
ENCODING 202
SWIDTH 3168 0
DWIDTH 44 0
BBX 36 55 6 0
BITMAP
FFFFFFFFE0
FFFFFFFFE0
FFFFFFFFE0
FFFFFFFFE0
FFFFFFFFE0
FFFFFFFFE0
FF00000000
FF00000000
FF00000000
FF00000000
FF00000000
FF00000000
FF00000000
FF00000000
FF00000000
FF00000000
FF00000000
FF00000000
FF00000000
FF00000000
FF00000000
FF00000000
FF00000000
FF00000000
FFFFFFFF00
FFFFFFFF00
FFFFFFFF00
FFFFFFFF00
FFFFFFFF00
FFFFFFFF00
FF00000000
FF00000000
FF00000000
FF00000000
FF00000000
FF00000000
FF00000000
FF00000000
FF00000000
FF00000000
FF00000000
FF00000000
FF00000000
FF00000000
FF00000000
FF00000000
FF00000000
FF00000000
FF00000000
FFFFFFFFF0
FFFFFFFFF0
FFFFFFFFF0
FFFFFFFFF0
FFFFFFFFF0
FFFFFFFFF0
ENDCHAR
STARTCHAR 203
ENCODING 203
SWIDTH 3168 0
DWIDTH 44 0
BBX 36 55 6 0
BITMAP
FFFFFFFFE0
FFFFFFFFE0
FFFFFFFFE0
FFFFFFFFE0
FFFFFFFFE0
FFFFFFFFE0
FF00000000
FF00000000
FF00000000
FF00000000
FF00000000
FF00000000
FF00000000
FF00000000
FF00000000
FF00000000
FF00000000
FF00000000
FF00000000
FF00000000
FF00000000
FF00000000
FF00000000
FF00000000
FFFFFFFF00
FFFFFFFF00
FFFFFFFF00
FFFFFFFF00
FFFFFFFF00
FFFFFFFF00
FF00000000
FF00000000
FF00000000
FF00000000
FF00000000
FF00000000
FF00000000
FF00000000
FF00000000
FF00000000
FF00000000
FF00000000
FF00000000
FF00000000
FF00000000
FF00000000
FF00000000
FF00000000
FF00000000
FFFFFFFFF0
FFFFFFFFF0
FFFFFFFFF0
FFFFFFFFF0
FFFFFFFFF0
FFFFFFFFF0
ENDCHAR
STARTCHAR 204
ENCODING 204
SWIDTH 1512 0
DWIDTH 21 0
BBX 7 55 7 0
BITMAP
FE
FE
FE
FE
FE
FE
FE
FE
FE
FE
FE
FE
FE
FE
FE
FE
FE
FE
FE
FE
FE
FE
FE
FE
FE
FE
FE
FE
FE
FE
FE
FE
FE
FE
FE
FE
FE
FE
FE
FE
FE
FE
FE
FE
FE
FE
FE
FE
FE
FE
FE
FE
FE
FE
FE
ENDCHAR
STARTCHAR 205
ENCODING 205
SWIDTH 1656 0
DWIDTH 23 0
BBX 7 55 7 0
BITMAP
FE
FE
FE
FE
FE
FE
FE
FE
FE
FE
FE
FE
FE
FE
FE
FE
FE
FE
FE
FE
FE
FE
FE
FE
FE
FE
FE
FE
FE
FE
FE
FE
FE
FE
FE
FE
FE
FE
FE
FE
FE
FE
FE
FE
FE
FE
FE
FE
FE
FE
FE
FE
FE
FE
FE
ENDCHAR
STARTCHAR 206
ENCODING 206
SWIDTH 1584 0
DWIDTH 22 0
BBX 7 55 7 0
BITMAP
FE
FE
FE
FE
FE
FE
FE
FE
FE
FE
FE
FE
FE
FE
FE
FE
FE
FE
FE
FE
FE
FE
FE
FE
FE
FE
FE
FE
FE
FE
FE
FE
FE
FE
FE
FE
FE
FE
FE
FE
FE
FE
FE
FE
FE
FE
FE
FE
FE
FE
FE
FE
FE
FE
FE
ENDCHAR
STARTCHAR 207
ENCODING 207
SWIDTH 1656 0
DWIDTH 23 0
BBX 7 55 7 0
BITMAP
FE
FE
FE
FE
FE
FE
FE
FE
FE
FE
FE
FE
FE
FE
FE
FE
FE
FE
FE
FE
FE
FE
FE
FE
FE
FE
FE
FE
FE
FE
FE
FE
FE
FE
FE
FE
FE
FE
FE
FE
FE
FE
FE
FE
FE
FE
FE
FE
FE
FE
FE
FE
FE
FE
FE
ENDCHAR
STARTCHAR 208
ENCODING 208
SWIDTH 3744 0
DWIDTH 52 0
BBX 48 55 0 0
BITMAP
00FFFFF80000
00FFFFFF0000
00FFFFFFE000
00FFFFFFF800
00FFFFFFFC00
00FFFFFFFE00
00FE000FFF00
00FE0001FF80
00FE00007FC0
00FE00003FE0
00FE00001FF0
00FE00000FF0
00FE000007F8
00FE000003F8
00FE000003FC
00FE000001FC
00FE000001FC
00FE000001FE
00FE000000FE
00FE000000FE
00FE000000FE
00FE000000FE
00FE000000FF
00FE000000FF
FFFFFF0000FF
FFFFFF0000FF
FFFFFF0000FF
FFFFFF0000FF
FFFFFF0000FF
FFFFFF0000FF
00FE000000FF
00FE000000FF
00FE000000FF
00FE000000FE
00FE000000FE
00FE000000FE
00FE000000FE
00FE000001FE
00FE000001FC
00FE000003FC
00FE000003FC
00FE000007F8
00FE000007F8
00FE00000FF0
00FE00001FF0
00FE00003FE0
00FE0000FFC0
00FE0001FF80
00FE001FFF00
00FFFFFFFE00
00FFFFFFFC00
00FFFFFFF000
00FFFFFFE000
00FFFFFF0000
00FFFFF00000
ENDCHAR
STARTCHAR 209
ENCODING 209
SWIDTH 4032 0
DWIDTH 56 0
BBX 42 55 7 0
BITMAP
FE0000001FC0
FF0000001FC0
FF8000001FC0
FF8000001FC0
FFC000001FC0
FFE000001FC0
FFE000001FC0
FFF000001FC0
FFF800001FC0
FFF800001FC0
FFFC00001FC0
FFFE00001FC0
FFFE00001FC0
FEFF00001FC0
FEFF80001FC0
FE7F80001FC0
FE3FC0001FC0
FE3FE0001FC0
FE1FE0001FC0
FE0FF0001FC0
FE0FF8001FC0
FE07F8001FC0
FE03FC001FC0
FE03FE001FC0
FE01FE001FC0
FE00FF001FC0
FE00FF801FC0
FE007F801FC0
FE003FC01FC0
FE003FC01FC0
FE001FE01FC0
FE000FF01FC0
FE000FF01FC0
FE0007F81FC0
FE0007FC1FC0
FE0003FC1FC0
FE0001FE1FC0
FE0001FF1FC0
FE0000FF1FC0
FE00007F9FC0
FE00007FDFC0
FE00003FDFC0
FE00001FFFC0
FE00001FFFC0
FE00000FFFC0
FE000007FFC0
FE000007FFC0
FE000003FFC0
FE000001FFC0
FE000001FFC0
FE000000FFC0
FE0000007FC0
FE0000007FC0
FE0000003FC0
FE0000001FC0
ENDCHAR
STARTCHAR 210
ENCODING 210
SWIDTH 3888 0
DWIDTH 54 0
BBX 45 57 4 -1
BITMAP
00003FF00000
0001FFFE0000
000FFFFF8000
001FFFFFE000
007FFFFFF000
00FFFFFFF800
01FFE01FFC00
03FF0007FE00
03FE0001FF00
07F80000FF80
0FF800007F80
0FF000003FC0
1FE000001FC0
1FC000001FE0
1FC000000FE0
3FC000000FE0
3F8000000FF0
3F80000007F0
7F80000007F0
7F00000007F0
7F00000007F8
7F00000007F8
7F00000003F8
7F00000003F8
7F00000003F8
FF00000003F8
FF00000003F8
FF00000003F8
FF00000003F8
FF00000003F8
FF00000003F8
FF00000003F8
7F00000003F8
7F00000003F8
7F00000003F8
7F00000007F8
7F00000007F8
7F00000007F0
7F80000007F0
3F80000007F0
3F8000000FF0
3FC000000FF0
3FC000000FE0
1FE000001FE0
1FE000001FC0
0FF000003FC0
0FF800007F80
07FC0000FF80
03FE0001FF00
03FF0003FE00
01FFE01FFC00
00FFFFFFF800
007FFFFFF000
001FFFFFE000
000FFFFF8000
0001FFFE0000
00003FF00000
ENDCHAR
STARTCHAR 211
ENCODING 211
SWIDTH 3888 0
DWIDTH 54 0
BBX 45 57 4 -1
BITMAP
00003FF00000
0001FFFE0000
000FFFFF8000
001FFFFFE000
007FFFFFF000
00FFFFFFF800
01FFE01FFC00
03FF0007FE00
03FE0001FF00
07F80000FF80
0FF800007F80
0FF000003FC0
1FE000001FC0
1FC000001FE0
1FC000000FE0
3FC000000FE0
3F8000000FF0
3F80000007F0
7F80000007F0
7F00000007F0
7F00000007F8
7F00000007F8
7F00000003F8
7F00000003F8
7F00000003F8
FF00000003F8
FF00000003F8
FF00000003F8
FF00000003F8
FF00000003F8
FF00000003F8
FF00000003F8
7F00000003F8
7F00000003F8
7F00000003F8
7F00000007F8
7F00000007F8
7F00000007F0
7F80000007F0
3F80000007F0
3F8000000FF0
3FC000000FF0
3FC000000FE0
1FE000001FE0
1FE000001FC0
0FF000003FC0
0FF800007F80
07FC0000FF80
03FE0001FF00
03FF0003FE00
01FFE01FFC00
00FFFFFFF800
007FFFFFF000
001FFFFFE000
000FFFFF8000
0001FFFE0000
00003FF00000
ENDCHAR
STARTCHAR 212
ENCODING 212
SWIDTH 3888 0
DWIDTH 54 0
BBX 45 57 4 -1
BITMAP
00003FF00000
0001FFFE0000
000FFFFF8000
001FFFFFE000
007FFFFFF000
00FFFFFFF800
01FFE01FFC00
03FF0007FE00
03FE0001FF00
07F80000FF80
0FF800007F80
0FF000003FC0
1FE000001FC0
1FC000001FE0
1FC000000FE0
3FC000000FE0
3F8000000FF0
3F80000007F0
7F80000007F0
7F00000007F0
7F00000007F8
7F00000007F8
7F00000003F8
7F00000003F8
7F00000003F8
FF00000003F8
FF00000003F8
FF00000003F8
FF00000003F8
FF00000003F8
FF00000003F8
FF00000003F8
7F00000003F8
7F00000003F8
7F00000003F8
7F00000007F8
7F00000007F8
7F00000007F0
7F80000007F0
3F80000007F0
3F8000000FF0
3FC000000FF0
3FC000000FE0
1FE000001FE0
1FE000001FC0
0FF000003FC0
0FF800007F80
07FC0000FF80
03FE0001FF00
03FF0003FE00
01FFE01FFC00
00FFFFFFF800
007FFFFFF000
001FFFFFE000
000FFFFF8000
0001FFFE0000
00003FF00000
ENDCHAR
STARTCHAR 213
ENCODING 213
SWIDTH 3888 0
DWIDTH 54 0
BBX 45 57 4 -1
BITMAP
00003FF00000
0001FFFE0000
000FFFFF8000
001FFFFFE000
007FFFFFF000
00FFFFFFF800
01FFE01FFC00
03FF0007FE00
03FE0001FF00
07F80000FF80
0FF800007F80
0FF000003FC0
1FE000001FC0
1FC000001FE0
1FC000000FE0
3FC000000FE0
3F8000000FF0
3F80000007F0
7F80000007F0
7F00000007F0
7F00000007F8
7F00000007F8
7F00000003F8
7F00000003F8
7F00000003F8
FF00000003F8
FF00000003F8
FF00000003F8
FF00000003F8
FF00000003F8
FF00000003F8
FF00000003F8
7F00000003F8
7F00000003F8
7F00000003F8
7F00000007F8
7F00000007F8
7F00000007F0
7F80000007F0
3F80000007F0
3F8000000FF0
3FC000000FF0
3FC000000FE0
1FE000001FE0
1FE000001FC0
0FF000003FC0
0FF800007F80
07FC0000FF80
03FE0001FF00
03FF0003FE00
01FFE01FFC00
00FFFFFFF800
007FFFFFF000
001FFFFFE000
000FFFFF8000
0001FFFE0000
00003FF00000
ENDCHAR
STARTCHAR 214
ENCODING 214
SWIDTH 3888 0
DWIDTH 54 0
BBX 45 57 4 -1
BITMAP
00003FF00000
0001FFFE0000
000FFFFF8000
001FFFFFE000
007FFFFFF000
00FFFFFFF800
01FFE01FFC00
03FF0007FE00
03FE0001FF00
07F80000FF80
0FF800007F80
0FF000003FC0
1FE000001FC0
1FC000001FE0
1FC000000FE0
3FC000000FE0
3F8000000FF0
3F80000007F0
7F80000007F0
7F00000007F0
7F00000007F8
7F00000007F8
7F00000003F8
7F00000003F8
7F00000003F8
FF00000003F8
FF00000003F8
FF00000003F8
FF00000003F8
FF00000003F8
FF00000003F8
FF00000003F8
7F00000003F8
7F00000003F8
7F00000003F8
7F00000007F8
7F00000007F8
7F00000007F0
7F80000007F0
3F80000007F0
3F8000000FF0
3FC000000FF0
3FC000000FE0
1FE000001FE0
1FE000001FC0
0FF000003FC0
0FF800007F80
07FC0000FF80
03FE0001FF00
03FF0003FE00
01FFE01FFC00
00FFFFFFF800
007FFFFFF000
001FFFFFE000
000FFFFF8000
0001FFFE0000
00003FF00000
ENDCHAR
STARTCHAR 215
ENCODING 215
SWIDTH 3024 0
DWIDTH 42 0
BBX 35 35 3 8
BITMAP
0800000200
0C00000700
1E00000F00
3F00001F80
7F80003FC0
FFC0007FE0
3FE000FF80
1FF001FF00
0FF803FE00
07FC07FC00
03FE0FF800
01FF1FF000
00FFBFE000
007FFFC000
003FFF8000
001FFF0000
000FFE0000
0007FC0000
000FFE0000
001FFF0000
003FFF8000
007FFFC000
00FFBFE000
01FF1FF000
03FE0FF800
07FC07FC00
0FF803FE00
1FF001FF00
3FE000FF80
7FC0007FC0
FF80003FE0
3F00001FC0
3E00000F80
1C00000700
0800000200
ENDCHAR
STARTCHAR 216
ENCODING 216
SWIDTH 3888 0
DWIDTH 54 0
BBX 45 62 5 -4
BITMAP
0000000000F8
0000000001F0
00007FE003F0
0003FFFC03E0
000FFFFF07E0
003FFFFFC7C0
007FFFFFEF80
01FFFFFFFF80
03FFC03FFF00
03FE000FFE00
07FC0003FE00
0FF80001FF00
0FF00000FF00
1FE00000FF80
1FC00001FF80
3FC00003FFC0
3F800003FFC0
7F800007DFE0
7F00000FDFE0
7F00000F8FE0
7F00001F8FE0
FF00001F0FF0
FE00003E0FF0
FE00007E07F0
FE00007C07F0
FE0000F807F0
FE0001F807F0
FE0001F007F0
FE0003F007F0
FE0003E007F0
FE0007C007F0
FE000FC007F0
FE000F8007F0
FE001F0007F0
FE003F0007F0
FE003E0007F0
FE007E0007F0
FE007C0007F0
FE00F80007F0
FF01F8000FF0
FF01F0000FE0
7F03E0000FE0
7F07E0000FE0
7F87C0001FE0
3F8FC0001FC0
3FCF80003FC0
3FDF00003FC0
1FFF00007F80
1FFE0000FF80
0FFE0000FF00
07FC0003FE00
03FF0007FE00
03FFC03FFC00
01FFFFFFF800
03FFFFFFF000
07FFFFFFC000
07CFFFFF8000
0FC3FFFC0000
1F807FE00000
1F0000000000
3F0000000000
7E0000000000
ENDCHAR
STARTCHAR 217
ENCODING 217
SWIDTH 3672 0
DWIDTH 51 0
BBX 40 56 6 -1
BITMAP
FE000000FF
FE000000FF
FE000000FF
FE000000FF
FE000000FF
FE000000FF
FE000000FF
FE000000FF
FE000000FF
FE000000FF
FE000000FF
FE000000FF
FE000000FF
FE000000FF
FE000000FF
FE000000FF
FE000000FF
FE000000FF
FE000000FF
FE000000FF
FE000000FF
FE000000FF
FE000000FF
FE000000FF
FE000000FF
FE000000FF
FE000000FF
FE000000FF
FE000000FF
FE000000FF
FE000000FF
FE000000FF
FE000000FF
FE000000FF
FE000000FF
FE000000FF
FE000000FF
FE000000FF
FE000000FF
FE000000FF
FE000000FE
FE000000FE
FF000000FE
FF000001FE
7F000001FE
7F800003FC
7FC00007FC
3FE0000FF8
1FF8001FF0
1FFE00FFF0
0FFFFFFFE0
07FFFFFF80
01FFFFFF00
00FFFFFC00
001FFFF000
0003FF8000
ENDCHAR
STARTCHAR 218
ENCODING 218
SWIDTH 3672 0
DWIDTH 51 0
BBX 40 56 6 -1
BITMAP
FE000000FF
FE000000FF
FE000000FF
FE000000FF
FE000000FF
FE000000FF
FE000000FF
FE000000FF
FE000000FF
FE000000FF
FE000000FF
FE000000FF
FE000000FF
FE000000FF
FE000000FF
FE000000FF
FE000000FF
FE000000FF
FE000000FF
FE000000FF
FE000000FF
FE000000FF
FE000000FF
FE000000FF
FE000000FF
FE000000FF
FE000000FF
FE000000FF
FE000000FF
FE000000FF
FE000000FF
FE000000FF
FE000000FF
FE000000FF
FE000000FF
FE000000FF
FE000000FF
FE000000FF
FE000000FF
FE000000FF
FE000000FE
FE000000FE
FF000000FE
FF000001FE
7F000001FE
7F800003FC
7FC00007FC
3FE0000FF8
1FF8001FF0
1FFE00FFF0
0FFFFFFFE0
07FFFFFF80
01FFFFFF00
00FFFFFC00
001FFFF000
0003FF8000
ENDCHAR
STARTCHAR 219
ENCODING 219
SWIDTH 3672 0
DWIDTH 51 0
BBX 40 56 6 -1
BITMAP
FE000000FF
FE000000FF
FE000000FF
FE000000FF
FE000000FF
FE000000FF
FE000000FF
FE000000FF
FE000000FF
FE000000FF
FE000000FF
FE000000FF
FE000000FF
FE000000FF
FE000000FF
FE000000FF
FE000000FF
FE000000FF
FE000000FF
FE000000FF
FE000000FF
FE000000FF
FE000000FF
FE000000FF
FE000000FF
FE000000FF
FE000000FF
FE000000FF
FE000000FF
FE000000FF
FE000000FF
FE000000FF
FE000000FF
FE000000FF
FE000000FF
FE000000FF
FE000000FF
FE000000FF
FE000000FF
FE000000FF
FE000000FE
FE000000FE
FF000000FE
FF000001FE
7F000001FE
7F800003FC
7FC00007FC
3FE0000FF8
1FF8001FF0
1FFE00FFF0
0FFFFFFFE0
07FFFFFF80
01FFFFFF00
00FFFFFC00
001FFFF000
0003FF8000
ENDCHAR
STARTCHAR 220
ENCODING 220
SWIDTH 3672 0
DWIDTH 51 0
BBX 40 56 6 -1
BITMAP
FE000000FF
FE000000FF
FE000000FF
FE000000FF
FE000000FF
FE000000FF
FE000000FF
FE000000FF
FE000000FF
FE000000FF
FE000000FF
FE000000FF
FE000000FF
FE000000FF
FE000000FF
FE000000FF
FE000000FF
FE000000FF
FE000000FF
FE000000FF
FE000000FF
FE000000FF
FE000000FF
FE000000FF
FE000000FF
FE000000FF
FE000000FF
FE000000FF
FE000000FF
FE000000FF
FE000000FF
FE000000FF
FE000000FF
FE000000FF
FE000000FF
FE000000FF
FE000000FF
FE000000FF
FE000000FF
FE000000FF
FE000000FE
FE000000FE
FF000000FE
FF000001FE
7F000001FE
7F800003FC
7FC00007FC
3FE0000FF8
1FF8001FF0
1FFE00FFF0
0FFFFFFFE0
07FFFFFF80
01FFFFFF00
00FFFFFC00
001FFFF000
0003FF8000
ENDCHAR
STARTCHAR 221
ENCODING 221
SWIDTH 3384 0
DWIDTH 47 0
BBX 45 55 1 0
BITMAP
FF00000007F8
FF8000000FF0
7F8000001FF0
3FC000001FE0
3FC000003FE0
1FE000003FC0
1FE000007FC0
0FF000007F80
0FF00000FF00
07F80000FF00
07F80001FE00
03FC0001FE00
03FC0003FC00
01FE0003FC00
00FF0007F800
00FF0007F800
007F800FF000
007F800FE000
003FC01FE000
003FC01FC000
001FE03FC000
001FE03F8000
000FF07F8000
0007F0FF0000
0007F8FF0000
0003F9FE0000
0003FDFC0000
0001FFFC0000
0001FFF80000
0000FFF80000
0000FFF00000
00007FF00000
00003FE00000
00003FE00000
00001FC00000
00001FC00000
00001FC00000
00001FC00000
00001FC00000
00001FC00000
00001FC00000
00001FC00000
00001FC00000
00001FC00000
00001FC00000
00001FC00000
00001FC00000
00001FC00000
00001FC00000
00001FC00000
00001FC00000
00001FC00000
00001FC00000
00001FC00000
00001FC00000
ENDCHAR
STARTCHAR 222
ENCODING 222
SWIDTH 3312 0
DWIDTH 46 0
BBX 37 55 6 0
BITMAP
FE00000000
FE00000000
FE00000000
FE00000000
FE00000000
FE00000000
FE00000000
FE00000000
FE00000000
FE00000000
FE00000000
FFFFFE0000
FFFFFFE000
FFFFFFF800
FFFFFFFC00
FFFFFFFF00
FFFFFFFF80
FE0003FF80
FE00007FC0
FE00003FE0
FE00001FE0
FE00000FF0
FE00000FF0
FE000007F0
FE000007F0
FE000007F0
FE000007F0
FE000007F8
FE000007F0
FE000007F0
FE000007F0
FE00000FF0
FE00000FF0
FE00001FE0
FE00003FE0
FE00007FC0
FE0003FF80
FFFFFFFF80
FFFFFFFF00
FFFFFFFC00
FFFFFFF800
FFFFFFE000
FFFFFE0000
FE00000000
FE00000000
FE00000000
FE00000000
FE00000000
FE00000000
FE00000000
FE00000000
FE00000000
FE00000000
FE00000000
FE00000000
ENDCHAR
STARTCHAR 223
ENCODING 223
SWIDTH 3312 0
DWIDTH 46 0
BBX 38 59 5 -1
BITMAP
00FFFE0000
03FFFF8000
07FFFFC000
0FFFFFE000
1FFFFFE000
1FF03FF000
3FE00FF800
3F8007F800
7F8003F800
7F0003F800
7F0001F800
FF0001F800
FE0001F800
FE0001F800
FE0001F800
FE0003F800
FE0003F800
FE0007F000
FE0007F000
FE000FF000
FE000FE000
FE001FC000
FE003FC000
FE003F8000
FE003F8000
FE003F8000
FE007F8000
FE007F8000
FE003F8000
FE003F8000
FE003FC000
FE003FE000
FE001FF000
FE000FF800
FE000FFC00
FE0007FE00
FE0003FF00
FE0000FFC0
FE00007FE0
FE00003FE0
FE00001FF0
FE00000FF8
FE000007F8
FE000003F8
FE000003FC
FE000001FC
FE000001FC
FE000001FC
FE000003FC
FE000003FC
FE040007F8
FE07000FF8
FE07E03FF0
FE0FFFFFF0
FE0FFFFFE0
FE0FFFFFC0
FE0FFFFF80
FE01FFFE00
00003FF000
ENDCHAR
STARTCHAR 224
ENCODING 224
SWIDTH 3024 0
DWIDTH 42 0
BBX 34 59 4 -1
BITMAP
03FE000000
00FF000000
007F800000
007F800000
003FC00000
001FE00000
000FE00000
0007F00000
0003F80000
0001F80000
0000FC0000
0000000000
0000000000
0000000000
0000000000
0000000000
0007FC0000
007FFF8000
01FFFFE000
03FFFFF000
07FFFFF800
0FFFFFFC00
1FF80FFE00
3FE003FE00
3FC000FF00
7F8000FF00
7F00007F00
7F00007F00
0000007F00
0000007F80
0000007F80
0000007F80
0000007F80
0007FFFF80
007FFFFF80
01FFFFFF80
07FFFFFF80
0FFFFFFF80
1FFFFFFF80
3FFC007F80
7FE0007F80
7F80007F80
7F00007F80
FF00007F80
FE00007F80
FE00007F80
FE00007F80
FE00007F80
FE00007F80
FF0000FF80
FF0003FF80
7FC007FF80
7FF03FFF80
3FFFFFFF80
1FFFFFBF80
0FFFFF3F80
07FFFC3FC0
01FFF83FC0
007FC00000
ENDCHAR
STARTCHAR 225
ENCODING 225
SWIDTH 3024 0
DWIDTH 42 0
BBX 34 59 4 -1
BITMAP
000007FC00
000007F800
00000FF000
00001FE000
00003FC000
00003F8000
00007F0000
0000FE0000
0000FC0000
0001F80000
0003F00000
0000000000
0000000000
0000000000
0000000000
0000000000
0007FC0000
007FFF8000
01FFFFE000
03FFFFF000
07FFFFF800
0FFFFFFC00
1FF80FFE00
3FE003FE00
3FC000FF00
7F8000FF00
7F00007F00
7F00007F00
0000007F00
0000007F80
0000007F80
0000007F80
0000007F80
0007FFFF80
007FFFFF80
01FFFFFF80
07FFFFFF80
0FFFFFFF80
1FFFFFFF80
3FFC007F80
7FE0007F80
7F80007F80
7F00007F80
FF00007F80
FE00007F80
FE00007F80
FE00007F80
FE00007F80
FE00007F80
FF0000FF80
FF0003FF80
7FC007FF80
7FF03FFF80
3FFFFFFF80
1FFFFFBF80
0FFFFF3F80
07FFFC3FC0
01FFF83FC0
007FC00000
ENDCHAR
STARTCHAR 226
ENCODING 226
SWIDTH 3024 0
DWIDTH 42 0
BBX 34 59 4 -1
BITMAP
0001FC0000
0003FE0000
0007FF0000
000FFF0000
001F9F8000
003F0FC000
007E07E000
00FE03F000
01FC01F800
01F801FC00
0000000000
0000000000
0000000000
0000000000
0000000000
0000000000
0007FC0000
007FFF8000
01FFFFE000
03FFFFF000
07FFFFF800
0FFFFFFC00
1FF80FFE00
3FE003FE00
3FC000FF00
7F8000FF00
7F00007F00
7F00007F00
0000007F00
0000007F80
0000007F80
0000007F80
0000007F80
0007FFFF80
007FFFFF80
01FFFFFF80
07FFFFFF80
0FFFFFFF80
1FFFFFFF80
3FFC007F80
7FE0007F80
7F80007F80
7F00007F80
FF00007F80
FE00007F80
FE00007F80
FE00007F80
FE00007F80
FE00007F80
FF0000FF80
FF0003FF80
7FC007FF80
7FF03FFF80
3FFFFFFF80
1FFFFFBF80
0FFFFF3F80
07FFFC3FC0
01FFF83FC0
007FC00000
ENDCHAR
STARTCHAR 227
ENCODING 227
SWIDTH 3024 0
DWIDTH 42 0
BBX 34 59 4 -1
BITMAP
0000001000
003E001F00
00FF803F00
01FFE03E00
03FFF87E00
03FFFFFE00
07F0FFFC00
07C07FF800
07C01FF000
07C007C000
0780000000
0000000000
0000000000
0000000000
0000000000
0000000000
0007FC0000
007FFF8000
01FFFFE000
03FFFFF000
07FFFFF800
0FFFFFFC00
1FF80FFE00
3FE003FE00
3FC000FF00
7F8000FF00
7F00007F00
7F00007F00
0000007F00
0000007F80
0000007F80
0000007F80
0000007F80
0007FFFF80
007FFFFF80
01FFFFFF80
07FFFFFF80
0FFFFFFF80
1FFFFFFF80
3FFC007F80
7FE0007F80
7F80007F80
7F00007F80
FF00007F80
FE00007F80
FE00007F80
FE00007F80
FE00007F80
FE00007F80
FF0000FF80
FF0003FF80
7FC007FF80
7FF03FFF80
3FFFFFFF80
1FFFFFBF80
0FFFFF3F80
07FFFC3FC0
01FFF83FC0
007FC00000
ENDCHAR
STARTCHAR 228
ENCODING 228
SWIDTH 3024 0
DWIDTH 42 0
BBX 34 57 4 -1
BITMAP
00F000F000
01F801F800
03FC03FC00
03FC03FC00
03FC03FC00
03FC03FC00
01F801F800
00F000F000
0000000000
0000000000
0000000000
0000000000
0000000000
0000000000
0007FC0000
007FFF8000
01FFFFE000
03FFFFF000
07FFFFF800
0FFFFFFC00
1FF80FFE00
3FE003FE00
3FC000FF00
7F8000FF00
7F00007F00
7F00007F00
0000007F00
0000007F80
0000007F80
0000007F80
0000007F80
0007FFFF80
007FFFFF80
01FFFFFF80
07FFFFFF80
0FFFFFFF80
1FFFFFFF80
3FFC007F80
7FE0007F80
7F80007F80
7F00007F80
FF00007F80
FE00007F80
FE00007F80
FE00007F80
FE00007F80
FE00007F80
FF0000FF80
FF0003FF80
7FC007FF80
7FF03FFF80
3FFFFFFF80
1FFFFFBF80
0FFFFF3F80
07FFFC3FC0
01FFF83FC0
007FC00000
ENDCHAR
STARTCHAR 229
ENCODING 229
SWIDTH 3024 0
DWIDTH 42 0
BBX 34 59 4 -1
BITMAP
003C03C000
003C03C000
003C03C000
003C03C000
003C03C000
003C03C000
001E07C000
001FDF8000
000FFF0000
0007FE0000
0001F80000
0000000000
0000000000
0000000000
0000000000
0000000000
0007FC0000
007FFF8000
01FFFFE000
03FFFFF000
07FFFFF800
0FFFFFFC00
1FF80FFE00
3FE003FE00
3FC000FF00
7F8000FF00
7F00007F00
7F00007F00
0000007F00
0000007F80
0000007F80
0000007F80
0000007F80
0007FFFF80
007FFFFF80
01FFFFFF80
07FFFFFF80
0FFFFFFF80
1FFFFFFF80
3FFC007F80
7FE0007F80
7F80007F80
7F00007F80
FF00007F80
FE00007F80
FE00007F80
FE00007F80
FE00007F80
FE00007F80
FF0000FF80
FF0003FF80
7FC007FF80
7FF03FFF80
3FFFFFFF80
1FFFFFBF80
0FFFFF3F80
07FFFC3FC0
01FFF83FC0
007FC00000
ENDCHAR
STARTCHAR 230
ENCODING 230
SWIDTH 4752 0
DWIDTH 66 0
BBX 60 43 3 -1
BITMAP
000FFC0001FF0000
007FFF8007FFE000
01FFFFE01FFFF800
03FFFFF07FFFFC00
07FFFFF8FFFFFE00
0FFFFFFDFFFFFF00
1FFC07FFFF01FF80
3FF001FFFC007FC0
3FC000FFF8003FC0
7F8000FFF0001FE0
7F80007FE0000FE0
7F00007FE0000FE0
7F00007FC00007F0
0000003FC00007F0
0000003F800007F0
0000003F800007F0
0000003F800007F0
0000003F800007F0
001FFFFFFFFFFFF0
00FFFFFFFFFFFFF0
03FFFFFFFFFFFFF0
0FFFFFFFFFFFFFF0
1FFFFFFFFFFFFFF0
3FFFFFFFFFFFFFF0
3FF8003F80000000
7FE0003F80000000
7F80003F80000000
FF00003F80000000
FF00003F80000000
FE00003FC0000000
FE00003FC0000000
FE00003FE0000000
FE00003FE0000000
FF0000FFF0000080
FF0001FFF80001C0
7F8007FFFE0007C0
7FE03FFFFF803FE0
3FFFFFF9FFFFFFE0
3FFFFFF0FFFFFFF0
1FFFFFC07FFFFFC0
07FFFF801FFFFF00
03FFFC0007FFFC00
007FE00000FFE000
ENDCHAR
STARTCHAR 231
ENCODING 231
SWIDTH 2952 0
DWIDTH 41 0
BBX 34 59 4 -17
BITMAP
0007FC0000
003FFF8000
00FFFFE000
01FFFFF800
03FFFFFC00
07FFFFFE00
0FFC07FF00
1FF001FF00
1FE0007F80
3FC0003F80
3F80003FC0
7F80001FC0
7F00001FC0
FF00001FC0
FE00000FC0
FE00000000
FE00000000
FE00000000
FE00000000
FE00000000
FE00000000
FE00000000
FE00000000
FE00000000
FE00000000
FE00000000
FE00000000
FE00000000
FE00000000
FF00000FC0
7F00001FC0
7F80001FC0
3F80001FC0
3FC0003F80
1FE0007F80
1FF000FF00
0FFC07FF00
07FFFFFE00
03FFFFFC00
01FFFFF800
00FFFFE000
003FFF8000
0007FC0000
0007E00000
0007F00000
0007FC0000
0007FE0000
0001FF0000
00003F0000
00003F0000
00001F0000
00001F0000
00003F0000
00003F0000
0000FE0000
000FFE0000
0007FC0000
0007F00000
0007800000
ENDCHAR
STARTCHAR 232
ENCODING 232
SWIDTH 2952 0
DWIDTH 41 0
BBX 35 59 3 -1
BITMAP
01FF000000
00FF000000
007F800000
003FC00000
001FC00000
000FE00000
000FF00000
0007F00000
0003F80000
0001FC0000
0000FE0000
0000000000
0000000000
0000000000
0000000000
0000000000
0003FE0000
000FFFC000
003FFFF000
00FFFFF800
01FFFFFC00
03FFFFFE00
07FE03FF00
0FF800FF00
0FF0007F80
1FE0003F80
1FC0003FC0
3FC0001FC0
3F80001FC0
7F80000FE0
7F00000FE0
7F00000FE0
7F00000FE0
7F00000FE0
FFFFFFFFE0
FFFFFFFFE0
FFFFFFFFE0
FFFFFFFFE0
FFFFFFFFE0
FFFFFFFFE0
FE00000000
FF00000000
7F00000000
7F00000000
7F00000000
7F00000000
3F80000000
3F80000000
3FC0000300
1FE0000780
1FF0000FC0
0FFC003FE0
07FF00FFC0
03FFFFFF80
01FFFFFF00
00FFFFFE00
007FFFF800
001FFFE000
0001FF0000
ENDCHAR
STARTCHAR 233
ENCODING 233
SWIDTH 2952 0
DWIDTH 41 0
BBX 35 59 3 -1
BITMAP
000003FE00
000007F800
00000FF000
00000FE000
00001FC000
00003F8000
00007F0000
00007F0000
0000FE0000
0001FC0000
0001F80000
0000000000
0000000000
0000000000
0000000000
0000000000
0003FE0000
000FFFC000
003FFFF000
00FFFFF800
01FFFFFC00
03FFFFFE00
07FE03FF00
0FF800FF00
0FF0007F80
1FE0003F80
1FC0003FC0
3FC0001FC0
3F80001FC0
7F80000FE0
7F00000FE0
7F00000FE0
7F00000FE0
7F00000FE0
FFFFFFFFE0
FFFFFFFFE0
FFFFFFFFE0
FFFFFFFFE0
FFFFFFFFE0
FFFFFFFFE0
FE00000000
FF00000000
7F00000000
7F00000000
7F00000000
7F00000000
3F80000000
3F80000000
3FC0000300
1FE0000780
1FF0000FC0
0FFC003FE0
07FF00FFC0
03FFFFFF80
01FFFFFF00
00FFFFFE00
007FFFF800
001FFFE000
0001FF0000
ENDCHAR
STARTCHAR 234
ENCODING 234
SWIDTH 2952 0
DWIDTH 41 0
BBX 35 59 3 -1
BITMAP
0001FC0000
0003FE0000
0007FF0000
000FDF8000
001FDFC000
003F8FE000
007F07F000
00FE03F800
00FC01F800
01F800FC00
0000000000
0000000000
0000000000
0000000000
0000000000
0000000000
0003FE0000
000FFFC000
003FFFF000
00FFFFF800
01FFFFFC00
03FFFFFE00
07FE03FF00
0FF800FF00
0FF0007F80
1FE0003F80
1FC0003FC0
3FC0001FC0
3F80001FC0
7F80000FE0
7F00000FE0
7F00000FE0
7F00000FE0
7F00000FE0
FFFFFFFFE0
FFFFFFFFE0
FFFFFFFFE0
FFFFFFFFE0
FFFFFFFFE0
FFFFFFFFE0
FE00000000
FF00000000
7F00000000
7F00000000
7F00000000
7F00000000
3F80000000
3F80000000
3FC0000300
1FE0000780
1FF0000FC0
0FFC003FE0
07FF00FFC0
03FFFFFF80
01FFFFFF00
00FFFFFE00
007FFFF800
001FFFE000
0001FF0000
ENDCHAR
STARTCHAR 235
ENCODING 235
SWIDTH 2952 0
DWIDTH 41 0
BBX 35 57 3 -1
BITMAP
0078007800
00FC00FC00
01FE01FE00
01FE01FE00
01FE01FE00
01FE01FE00
00FC00FC00
0078007800
0000000000
0000000000
0000000000
0000000000
0000000000
0000000000
0003FE0000
000FFFC000
003FFFF000
00FFFFF800
01FFFFFC00
03FFFFFE00
07FE03FF00
0FF800FF00
0FF0007F80
1FE0003F80
1FC0003FC0
3FC0001FC0
3F80001FC0
7F80000FE0
7F00000FE0
7F00000FE0
7F00000FE0
7F00000FE0
FFFFFFFFE0
FFFFFFFFE0
FFFFFFFFE0
FFFFFFFFE0
FFFFFFFFE0
FFFFFFFFE0
FE00000000
FF00000000
7F00000000
7F00000000
7F00000000
7F00000000
3F80000000
3F80000000
3FC0000300
1FE0000780
1FF0000FC0
0FFC003FE0
07FF00FFC0
03FFFFFF80
01FFFFFF00
00FFFFFE00
007FFFF800
001FFFE000
0001FF0000
ENDCHAR
STARTCHAR 236
ENCODING 236
SWIDTH 1368 0
DWIDTH 19 0
BBX 14 57 0 0
BITMAP
FE00
FE00
FF00
7F80
3F80
1FC0
0FE0
0FF0
07F0
03F8
01FC
0000
0000
0000
0000
0000
03F8
03F8
03F8
03F8
03F8
03F8
03F8
03F8
03F8
03F8
03F8
03F8
03F8
03F8
03F8
03F8
03F8
03F8
03F8
03F8
03F8
03F8
03F8
03F8
03F8
03F8
03F8
03F8
03F8
03F8
03F8
03F8
03F8
03F8
03F8
03F8
03F8
03F8
03F8
03F8
03F8
ENDCHAR
STARTCHAR 237
ENCODING 237
SWIDTH 1584 0
DWIDTH 22 0
BBX 16 57 6 0
BITMAP
01FF
03FC
07F8
07F0
0FE0
1FE0
1FC0
3F80
7F00
FE00
FC00
0000
0000
0000
0000
0000
FE00
FE00
FE00
FE00
FE00
FE00
FE00
FE00
FE00
FE00
FE00
FE00
FE00
FE00
FE00
FE00
FE00
FE00
FE00
FE00
FE00
FE00
FE00
FE00
FE00
FE00
FE00
FE00
FE00
FE00
FE00
FE00
FE00
FE00
FE00
FE00
FE00
FE00
FE00
FE00
FE00
ENDCHAR
STARTCHAR 238
ENCODING 238
SWIDTH 1512 0
DWIDTH 21 0
BBX 21 58 0 0
BITMAP
01F000
03F800
07FC00
0FFE00
1FFF00
3F9F80
7F1FC0
7E0FE0
FC07F0
F803F8
F001F8
000000
000000
000000
000000
000000
000000
03F800
03F800
03F800
03F800
03F800
03F800
03F800
03F800
03F800
03F800
03F800
03F800
03F800
03F800
03F800
03F800
03F800
03F800
03F800
03F800
03F800
03F800
03F800
03F800
03F800
03F800
03F800
03F800
03F800
03F800
03F800
03F800
03F800
03F800
03F800
03F800
03F800
03F800
03F800
03F800
03F800
ENDCHAR
STARTCHAR 239
ENCODING 239
SWIDTH 1728 0
DWIDTH 24 0
BBX 24 55 0 0
BITMAP
3C003C
7E007E
FF00FF
FF00FF
FF00FF
FF00FF
7E007E
3C003C
000000
000000
000000
000000
000000
000000
00FE00
00FE00
00FE00
00FE00
00FE00
00FE00
00FE00
00FE00
00FE00
00FE00
00FE00
00FE00
00FE00
00FE00
00FE00
00FE00
00FE00
00FE00
00FE00
00FE00
00FE00
00FE00
00FE00
00FE00
00FE00
00FE00
00FE00
00FE00
00FE00
00FE00
00FE00
00FE00
00FE00
00FE00
00FE00
00FE00
00FE00
00FE00
00FE00
00FE00
00FE00
ENDCHAR
STARTCHAR 240
ENCODING 240
SWIDTH 3312 0
DWIDTH 46 0
BBX 36 59 5 -1
BITMAP
03FE000400
03FF800E00
07FFE01F00
07FFF03F00
03FFFCFF80
007FFFFE00
000FFFFC00
0003FFF000
0001FFE000
00007FE000
0001FFF000
0003FFF800
000FFFFC00
001FE3FC00
003FC3FE00
003F01FE00
001E00FF00
0008007F00
0000007F80
0000003F80
0000003FC0
0007F81FC0
003FFF1FC0
00FFFFDFE0
01FFFFEFE0
03FFFFFFE0
07FFFFFFE0
0FFE01FFE0
1FF8007FF0
1FE0001FF0
3FC0000FF0
3F80000FF0
7F800007F0
7F000007F0
7F000007F0
FF000007F0
FE000007F0
FE000007F0
FE000007F0
FE000007F0
FE000007F0
FE000007F0
FE00000FF0
FE00000FE0
FF00000FE0
7F00000FE0
7F00001FC0
7F80001FC0
3FC0003FC0
3FC0007F80
1FE000FF80
1FF801FF00
0FFE07FE00
07FFFFFC00
03FFFFFC00
01FFFFF000
007FFFE000
001FFF8000
0003FC0000
ENDCHAR
STARTCHAR 241
ENCODING 241
SWIDTH 3096 0
DWIDTH 43 0
BBX 33 58 5 0
BITMAP
0000002000
007C007C00
01FF007C00
03FFC07C00
07FFE1FC00
0FFFFFF800
0FC3FFF800
0F80FFF000
0F807FE000
1F001F8000
1F00000000
0000000000
0000000000
0000000000
0000000000
0000000000
0001FF0000
FE07FFE000
FE1FFFF000
FE3FFFF800
FEFFFFFC00
FEFFFFFE00
FFFC07FE00
FFF001FF00
FFC000FF00
FF80007F00
FF80007F00
FF00007F80
FE00007F80
FE00003F80
FE00003F80
FE00003F80
FE00003F80
FE00003F80
FE00003F80
FE00003F80
FE00003F80
FE00003F80
FE00003F80
FE00003F80
FE00003F80
FE00003F80
FE00003F80
FE00003F80
FE00003F80
FE00003F80
FE00003F80
FE00003F80
FE00003F80
FE00003F80
FE00003F80
FE00003F80
FE00003F80
FE00003F80
FE00003F80
FE00003F80
FE00003F80
FE00003F80
ENDCHAR
STARTCHAR 242
ENCODING 242
SWIDTH 3168 0
DWIDTH 44 0
BBX 38 59 3 -1
BITMAP
01FF000000
00FF800000
007F800000
003FC00000
001FE00000
000FE00000
0007F00000
0003F80000
0001FC0000
0000FC0000
0000FE0000
0000000000
0000000000
0000000000
0000000000
0000000000
0003FF0000
001FFFE000
007FFFF800
00FFFFFC00
01FFFFFE00
03FFFFFF00
07FF03FF80
0FF8007FC0
1FF0003FC0
1FE0001FE0
3FC0000FF0
3FC0000FF0
3F800007F0
7F800007F8
7F000003F8
7F000003F8
7F000003F8
FF000003F8
FE000001FC
FE000001FC
FE000001FC
FE000001FC
FE000001FC
FE000001FC
FE000003FC
FF000003FC
7F000003F8
7F000003F8
7F000003F8
7F800007F8
3F800007F0
3FC0000FF0
3FC0000FF0
1FE0001FE0
1FF0003FE0
0FF8007FC0
07FF03FF80
03FFFFFF00
01FFFFFE00
00FFFFFC00
007FFFF800
001FFFE000
0003FE0000
ENDCHAR
STARTCHAR 243
ENCODING 243
SWIDTH 3168 0
DWIDTH 44 0
BBX 38 59 3 -1
BITMAP
000003FE00
000007FC00
000007F800
00000FF000
00001FE000
00003FC000
00003F8000
00007F0000
0000FE0000
0000FC0000
0001F80000
0000000000
0000000000
0000000000
0000000000
0000000000
0003FF0000
001FFFE000
007FFFF800
00FFFFFC00
01FFFFFE00
03FFFFFF00
07FF03FF80
0FF8007FC0
1FF0003FC0
1FE0001FE0
3FC0000FF0
3FC0000FF0
3F800007F0
7F800007F8
7F000003F8
7F000003F8
7F000003F8
FF000003F8
FE000001FC
FE000001FC
FE000001FC
FE000001FC
FE000001FC
FE000001FC
FE000003FC
FF000003FC
7F000003F8
7F000003F8
7F000003F8
7F800007F8
3F800007F0
3FC0000FF0
3FC0000FF0
1FE0001FE0
1FF0003FE0
0FF8007FC0
07FF03FF80
03FFFFFF00
01FFFFFE00
00FFFFFC00
007FFFF800
001FFFE000
0003FE0000
ENDCHAR
STARTCHAR 244
ENCODING 244
SWIDTH 3168 0
DWIDTH 44 0
BBX 38 59 3 -1
BITMAP
0001FC0000
0003FE0000
0003FF0000
0007FF8000
000FCFC000
001F87E000
003F03F000
007E03F800
00FE01FC00
01FC00FC00
0000000000
0000000000
0000000000
0000000000
0000000000
0000000000
0003FF0000
001FFFE000
007FFFF800
00FFFFFC00
01FFFFFE00
03FFFFFF00
07FF03FF80
0FF8007FC0
1FF0003FC0
1FE0001FE0
3FC0000FF0
3FC0000FF0
3F800007F0
7F800007F8
7F000003F8
7F000003F8
7F000003F8
FF000003F8
FE000001FC
FE000001FC
FE000001FC
FE000001FC
FE000001FC
FE000001FC
FE000003FC
FF000003FC
7F000003F8
7F000003F8
7F000003F8
7F800007F8
3F800007F0
3FC0000FF0
3FC0000FF0
1FE0001FE0
1FF0003FE0
0FF8007FC0
07FF03FF80
03FFFFFF00
01FFFFFE00
00FFFFFC00
007FFFF800
001FFFE000
0003FE0000
ENDCHAR
STARTCHAR 245
ENCODING 245
SWIDTH 3168 0
DWIDTH 44 0
BBX 38 59 3 -1
BITMAP
0000000800
001F000F00
007FC01F00
00FFF01F00
01FFF83F00
01FFFFFE00
03F0FFFE00
03E03FFC00
03E01FF800
03C007E000
07C0000000
0000000000
0000000000
0000000000
0000000000
0000000000
0003FF0000
001FFFE000
007FFFF800
00FFFFFC00
01FFFFFE00
03FFFFFF00
07FF03FF80
0FF8007FC0
1FF0003FC0
1FE0001FE0
3FC0000FF0
3FC0000FF0
3F800007F0
7F800007F8
7F000003F8
7F000003F8
7F000003F8
FF000003F8
FE000001FC
FE000001FC
FE000001FC
FE000001FC
FE000001FC
FE000001FC
FE000003FC
FF000003FC
7F000003F8
7F000003F8
7F000003F8
7F800007F8
3F800007F0
3FC0000FF0
3FC0000FF0
1FE0001FE0
1FF0003FE0
0FF8007FC0
07FF03FF80
03FFFFFF00
01FFFFFE00
00FFFFFC00
007FFFF800
001FFFE000
0003FE0000
ENDCHAR
STARTCHAR 246
ENCODING 246
SWIDTH 3168 0
DWIDTH 44 0
BBX 38 57 3 -1
BITMAP
0078007800
00FC00FC00
01FE01FE00
01FE01FE00
01FE01FE00
01FE01FE00
00FC00FC00
0078007800
0000000000
0000000000
0000000000
0000000000
0000000000
0000000000
0003FF0000
001FFFE000
007FFFF800
00FFFFFC00
01FFFFFE00
03FFFFFF00
07FF03FF80
0FF8007FC0
1FF0003FC0
1FE0001FE0
3FC0000FF0
3FC0000FF0
3F800007F0
7F800007F8
7F000003F8
7F000003F8
7F000003F8
FF000003F8
FE000001FC
FE000001FC
FE000001FC
FE000001FC
FE000001FC
FE000001FC
FE000003FC
FF000003FC
7F000003F8
7F000003F8
7F000003F8
7F800007F8
3F800007F0
3FC0000FF0
3FC0000FF0
1FE0001FE0
1FF0003FE0
0FF8007FC0
07FF03FF80
03FFFFFF00
01FFFFFE00
00FFFFFC00
007FFFF800
001FFFE000
0003FE0000
ENDCHAR
STARTCHAR 247
ENCODING 247
SWIDTH 3240 0
DWIDTH 45 0
BBX 38 38 3 8
BITMAP
0000780000
0000FC0000
0001FE0000
0001FE0000
0001FE0000
0001FE0000
0000FC0000
0000780000
0000000000
0000000000
0000000000
0000000000
0000000000
0000000000
0000000000
0000000000
FFFFFFFFFC
FFFFFFFFFC
FFFFFFFFFC
FFFFFFFFFC
FFFFFFFFFC
FFFFFFFFFC
0000000000
0000000000
0000000000
0000000000
0000000000
0000000000
0000000000
0000000000
0000780000
0000FC0000
0001FE0000
0001FE0000
0001FE0000
0001FE0000
0000FC0000
0000780000
ENDCHAR
STARTCHAR 248
ENCODING 248
SWIDTH 3168 0
DWIDTH 44 0
BBX 38 51 3 -5
BITMAP
00000007C0
00000007C0
0000000F80
0000000F80
0001FF1F00
000FFFFF00
003FFFFE00
00FFFFFE00
01FFFFFE00
03FFFFFF00
07FF03FF80
0FFC00FFC0
0FF000FFE0
1FE001FFE0
1FC001EFF0
3FC003EFF0
3F8003C7F0
7F8007C7F8
7F000783F8
7F000F83F8
7F000F03F8
7F001F01FC
FF001E01FC
FF003E01FC
FE003C01FC
FE007C01FC
FE007801FC
FE00F801FC
7F00F001FC
7F01F001FC
7F01E003FC
7F03E003F8
7F03C003F8
7F87C007F8
3F878007F8
3FCF8007F0
3FCF000FF0
1FFF001FE0
0FFE003FE0
0FFE007FC0
07FF01FF80
03FFFFFF00
01FFFFFE00
00FFFFFC00
00FFFFF800
01FFFFE000
01E3FF0000
03E0000000
03E0000000
07C0000000
0FC0000000
ENDCHAR
STARTCHAR 249
ENCODING 249
SWIDTH 3096 0
DWIDTH 43 0
BBX 33 58 5 -1
BITMAP
07FC000000
03FC000000
01FE000000
00FF000000
007F000000
003F800000
001FC00000
001FE00000
000FE00000
0007F00000
0003F80000
0000000000
0000000000
0000000000
0000000000
0000000000
FE00003F80
FE00003F80
FE00003F80
FE00003F80
FE00003F80
FE00003F80
FE00003F80
FE00003F80
FE00003F80
FE00003F80
FE00003F80
FE00003F80
FE00003F80
FE00003F80
FE00003F80
FE00003F80
FE00003F80
FE00003F80
FE00003F80
FE00003F80
FE00003F80
FE00003F80
FE00003F80
FE00003F80
FE00003F80
FE00003F80
FE00003F80
FE00003F80
FE00003F80
FE00003F80
FF00007F80
7F00007F80
7F0000FF80
7F8001FF80
7FC003FF80
3FF01FFF80
3FFFFFFF80
1FFFFFFF80
0FFFFF3F80
07FFFE3F80
01FFF83F80
007FE00000
ENDCHAR
STARTCHAR 250
ENCODING 250
SWIDTH 3096 0
DWIDTH 43 0
BBX 33 58 5 -1
BITMAP
00000FF800
00001FE000
00003FC000
00003F8000
00007F0000
0000FF0000
0000FE0000
0001FC0000
0003F80000
0007F00000
0007E00000
0000000000
0000000000
0000000000
0000000000
0000000000
FE00003F80
FE00003F80
FE00003F80
FE00003F80
FE00003F80
FE00003F80
FE00003F80
FE00003F80
FE00003F80
FE00003F80
FE00003F80
FE00003F80
FE00003F80
FE00003F80
FE00003F80
FE00003F80
FE00003F80
FE00003F80
FE00003F80
FE00003F80
FE00003F80
FE00003F80
FE00003F80
FE00003F80
FE00003F80
FE00003F80
FE00003F80
FE00003F80
FE00003F80
FE00003F80
FF00007F80
7F00007F80
7F0000FF80
7F8001FF80
7FC003FF80
3FF01FFF80
3FFFFFFF80
1FFFFFFF80
0FFFFF3F80
07FFFE3F80
01FFF83F80
007FE00000
ENDCHAR
STARTCHAR 251
ENCODING 251
SWIDTH 3096 0
DWIDTH 43 0
BBX 33 59 5 -1
BITMAP
0003E00000
0007F00000
000FF80000
001FFC0000
003FFE0000
007F3F0000
00FE3F8000
01FC1FC000
01F80FE000
03F007F000
07E003F000
0000000000
0000000000
0000000000
0000000000
0000000000
0000000000
FE00003F80
FE00003F80
FE00003F80
FE00003F80
FE00003F80
FE00003F80
FE00003F80
FE00003F80
FE00003F80
FE00003F80
FE00003F80
FE00003F80
FE00003F80
FE00003F80
FE00003F80
FE00003F80
FE00003F80
FE00003F80
FE00003F80
FE00003F80
FE00003F80
FE00003F80
FE00003F80
FE00003F80
FE00003F80
FE00003F80
FE00003F80
FE00003F80
FE00003F80
FE00003F80
FF00007F80
7F00007F80
7F0000FF80
7F8001FF80
7FC003FF80
3FF01FFF80
3FFFFFFF80
1FFFFFFF80
0FFFFF3F80
07FFFE3F80
01FFF83F80
007FE00000
ENDCHAR
STARTCHAR 252
ENCODING 252
SWIDTH 3096 0
DWIDTH 43 0
BBX 33 56 5 -1
BITMAP
01E001E000
03F003F000
07F807F800
07F807F800
07F807F800
07F807F800
03F003F000
01E001E000
0000000000
0000000000
0000000000
0000000000
0000000000
0000000000
FE00003F80
FE00003F80
FE00003F80
FE00003F80
FE00003F80
FE00003F80
FE00003F80
FE00003F80
FE00003F80
FE00003F80
FE00003F80
FE00003F80
FE00003F80
FE00003F80
FE00003F80
FE00003F80
FE00003F80
FE00003F80
FE00003F80
FE00003F80
FE00003F80
FE00003F80
FE00003F80
FE00003F80
FE00003F80
FE00003F80
FE00003F80
FE00003F80
FE00003F80
FE00003F80
FF00007F80
7F00007F80
7F0000FF80
7F8001FF80
7FC003FF80
3FF01FFF80
3FFFFFFF80
1FFFFFFF80
0FFFFF3F80
07FFFE3F80
01FFF83F80
007FE00000
ENDCHAR
STARTCHAR 253
ENCODING 253
SWIDTH 2664 0
DWIDTH 37 0
BBX 35 74 1 -17
BITMAP
000007FC00
000007F800
00000FF000
00001FE000
00001FC000
00003F8000
00007F0000
00007E0000
0000FC0000
0001FC0000
0003F80000
0000000000
0000000000
0000000000
0000000000
0000000000
FF00001FE0
FF00001FC0
7F00001FC0
7F80003FC0
3F80003F80
3F80003F80
3FC0007F80
1FC0007F00
1FC0007F00
1FE000FF00
0FE000FE00
0FE000FE00
0FF000FE00
07F001FC00
07F001FC00
07F801FC00
03F803F800
03F803F800
01FC03F800
01FC07F000
01FC07F000
00FE07F000
00FE0FE000
00FE0FE000
007F0FE000
007F0FC000
007F1FC000
003F9F8000
003F9F8000
001FBF8000
001FFF0000
001FFF0000
000FFF0000
000FFE0000
000FFE0000
0007FE0000
0007FC0000
0007FC0000
0003FC0000
0003F80000
0003F80000
0003F80000
0003F00000
0003F00000
0007F00000
0007E00000
000FE00000
000FE00000
001FC00000
001FC00000
003F800000
00FF800000
3FFF000000
3FFE000000
3FFC000000
3FF8000000
3FF0000000
1FC0000000
ENDCHAR
STARTCHAR 254
ENCODING 254
SWIDTH 3240 0
DWIDTH 45 0
BBX 35 74 6 -16
BITMAP
FE00000000
FE00000000
FE00000000
FE00000000
FE00000000
FE00000000
FE00000000
FE00000000
FE00000000
FE00000000
FE00000000
FE00000000
FE00000000
FE00000000
FE00000000
FE00000000
FE03FE0000
FE1FFF8000
FE3FFFE000
FEFFFFF000
FFFFFFF800
FFFFFFFC00
FFF80FFE00
FFE003FE00
FF8001FF00
FF0000FF00
FE00007F80
FE00007F80
FE00003F80
FE00003FC0
FE00001FC0
FE00001FC0
FE00001FC0
FE00001FC0
FE00001FC0
FE00001FC0
FE00001FC0
FE00001FE0
FE00001FE0
FE00001FC0
FE00001FC0
FE00001FC0
FE00001FC0
FE00001FC0
FE00001FC0
FE00003FC0
FE00003F80
FE00007F80
FE00007F80
FF0000FF00
FF8001FF00
FFE003FE00
FFF80FFE00
FFFFFFFC00
FFFFFFF800
FEFFFFF000
FE7FFFE000
FE1FFF8000
FE03FC0000
FE00000000
FE00000000
FE00000000
FE00000000
FE00000000
FE00000000
FE00000000
FE00000000
FE00000000
FE00000000
FE00000000
FE00000000
FE00000000
FE00000000
FE00000000
ENDCHAR
STARTCHAR 255
ENCODING 255
SWIDTH 2664 0
DWIDTH 37 0
BBX 35 72 1 -17
BITMAP
00F000F000
01F801F800
03FC03FC00
03FC03FC00
03FC03FC00
03FC03FC00
01F801F800
00F000F000
0000000000
0000000000
0000000000
0000000000
0000000000
0000000000
FF00001FE0
FF00001FC0
7F00001FC0
7F80003FC0
3F80003F80
3F80003F80
3FC0007F80
1FC0007F00
1FC0007F00
1FE000FF00
0FE000FE00
0FE000FE00
0FF000FE00
07F001FC00
07F001FC00
07F801FC00
03F803F800
03F803F800
01FC03F800
01FC07F000
01FC07F000
00FE07F000
00FE0FE000
00FE0FE000
007F0FE000
007F0FC000
007F1FC000
003F9F8000
003F9F8000
001FBF8000
001FFF0000
001FFF0000
000FFF0000
000FFE0000
000FFE0000
0007FE0000
0007FC0000
0007FC0000
0003FC0000
0003F80000
0003F80000
0003F80000
0003F00000
0003F00000
0007F00000
0007E00000
000FE00000
000FE00000
001FC00000
001FC00000
003F800000
00FF800000
3FFF000000
3FFE000000
3FFC000000
3FF8000000
3FF0000000
1FC0000000
ENDCHAR
ENDFONT
